<svg width="183" height="52" viewBox="0 0 183 52" fill="none" xmlns="http://www.w3.org/2000/svg">
<path d="M15.0694 1.41602C14.0297 1.41602 13.3404 2.96191 14.0071 3.57348C14.6739 4.18504 17.3353 6.53504 17.3353 6.53504V13.8965C17.3353 13.8965 3.40105 40.3523 1.87541 43.5857C0.349758 46.819 2.86991 50.5847 5.50307 50.5847C8.13622 50.5847 36.2195 50.3808 40.1522 50.3808C44.085 50.3808 45.0343 45.2562 44.2376 43.7272C43.4408 42.1983 28.3482 13.5341 28.3482 13.5341V6.85781L31.3261 3.8736C32.2189 2.97891 31.8064 1.47264 30.5294 1.47264C29.2523 1.47264 16.968 1.42168 15.0694 1.42168" fill="white"/>
<path d="M13.7981 20.4706C9.65059 28.3983 2.78518 41.4224 1.86979 43.393C0.344145 46.6434 2.86428 50.392 5.49744 50.392C8.13059 50.392 36.2195 50.1599 40.1523 50.1599C44.085 50.1599 45.0343 45.0352 44.2376 43.5063C43.8308 42.7305 35.6488 27.4357 31.733 19.995C22.37 11.9144 19.8668 23.8456 13.8038 20.465" fill="#48BCD0"/>
<path d="M9.44718 28.7326C5.29968 36.6603 2.78518 41.6831 1.86979 43.6254C0.344145 46.8757 2.86428 50.6244 5.49744 50.6244C8.13059 50.6244 36.2195 50.3809 40.1523 50.3809C44.085 50.3809 45.04 45.2562 44.2376 43.7273C43.8308 42.9515 43.2036 42.3456 39.2877 34.9049C26.9526 35.8506 23.2119 25.907 9.45282 28.7213" fill="#343434"/>
<path fill-rule="evenodd" clip-rule="evenodd" d="M12.6218 1.65869C12.9809 0.899472 13.8147 0 15.0694 0C16.0309 0 19.581 0.014178 23.0445 0.0283245L24.0858 0.032584C27.1659 0.0451933 29.9584 0.0566255 30.5293 0.0566255C31.8182 0.0566255 32.7655 0.867694 33.0906 1.9179C33.3995 2.91608 33.1363 4.06117 32.3249 4.87427L29.7608 7.44384V13.1831L31.9682 17.3758C33.3956 20.087 35.3071 23.7178 37.2435 27.3964C41.1148 34.7508 45.0895 42.3037 45.4897 43.0716C45.8583 43.779 45.9434 44.682 45.8988 45.4897C45.8518 46.3416 45.6498 47.2886 45.2669 48.1845C44.5016 49.9748 42.8752 51.7961 40.1522 51.7961C38.1918 51.7961 30.195 51.8471 22.3494 51.898C21.5642 51.9031 20.7804 51.9082 20.0045 51.9133C13.0363 51.9587 6.69313 52 5.50299 52C3.5193 52 1.83226 50.6266 0.903575 49.0005C-0.0518135 47.3277 -0.395806 45.0869 0.598269 42.9802C1.37745 41.3288 5.26338 33.8673 8.92649 26.8705C10.7641 23.3605 12.5539 19.9518 13.8843 17.4206C14.5495 16.155 15.0999 15.1087 15.484 14.3788L15.9226 13.5455V7.1737C15.6681 6.94863 15.3358 6.65442 14.985 6.34341C14.2403 5.68293 13.3975 4.93316 13.0533 4.61742C12.0476 3.695 12.2876 2.36517 12.6218 1.65869ZM18.2691 5.47251L18.7479 5.89524V14.2468L18.5845 14.5569L17.3352 13.8961C18.5845 14.5569 18.5846 14.5567 18.5845 14.5569L17.9831 15.6996C17.5992 16.4291 17.049 17.475 16.384 18.7401C15.0541 21.2705 13.265 24.6778 11.4283 28.1859C7.74289 35.2254 3.89886 42.6085 3.1524 44.1905C2.62082 45.3171 2.77408 46.5758 3.35565 47.5941C3.96392 48.6592 4.85352 49.1687 5.50299 49.1687C6.68282 49.1687 13.0179 49.1274 19.9953 49.082C20.768 49.077 21.5487 49.0719 22.3311 49.0668C30.1686 49.0158 38.1798 48.9648 40.1522 48.9648C41.3619 48.9648 42.1765 48.2239 42.6699 47.0696C42.9163 46.4931 43.0481 45.8723 43.0779 45.3333C43.0926 45.0657 43.0812 44.8376 43.0548 44.6605C43.0418 44.5728 43.0261 44.5047 43.0115 44.455C43.0042 44.4305 42.9978 44.4122 42.9928 44.3996C42.9878 44.3869 42.985 44.3815 42.9853 44.3822C42.5888 43.6212 38.6188 36.0774 34.7446 28.7175C32.8083 25.0389 30.8968 21.4081 29.4694 18.697L27.0995 14.1957L27.099 14.1947C27.0988 14.1945 27.0988 14.1944 28.3482 13.5337L27.099 14.1947L26.9355 13.8843V6.27107L30.3117 2.88765C29.4286 2.8858 26.8693 2.87532 24.0821 2.86391L23.033 2.85962C19.7971 2.8464 16.4976 2.83321 15.2952 2.83151C15.6975 3.19308 16.2965 3.72573 16.8573 4.22307C17.2311 4.55449 17.5841 4.8669 17.8437 5.09649L18.2691 5.47251Z" fill="#343434"/>
<path d="M22.7204 26.0087L15.1204 41.1223H17.6857L23.2176 30.301L26.1333 35.9636L21.8954 35.9863L20.8387 38.3136L27.1052 38.2457L28.6478 41.1676L31.3318 41.1223L23.7488 25.9917L22.7204 26.0087Z" fill="white"/>
<path fill-rule="evenodd" clip-rule="evenodd" d="M25.1329 19.033C24.3749 19.033 23.7604 19.6488 23.7604 20.4084C23.7604 21.1681 24.3749 21.7839 25.1329 21.7839C25.891 21.7839 26.5055 21.1681 26.5055 20.4084C26.5055 19.6488 25.891 19.033 25.1329 19.033ZM22.2336 20.4084C22.2336 18.8038 23.5317 17.5029 25.1329 17.5029C26.7342 17.5029 28.0322 18.8038 28.0322 20.4084C28.0322 22.0131 26.7342 23.3139 25.1329 23.3139C23.5317 23.3139 22.2336 22.0131 22.2336 20.4084Z" fill="#343434"/>
<path fill-rule="evenodd" clip-rule="evenodd" d="M24.2177 5.60389C23.9011 5.60389 23.6445 5.86109 23.6445 6.17837C23.6445 6.49564 23.9011 6.75284 24.2177 6.75284C24.5343 6.75284 24.791 6.49564 24.791 6.17837C24.791 5.86109 24.5343 5.60389 24.2177 5.60389ZM22.8811 6.17837C22.8811 5.43858 23.4795 4.83887 24.2177 4.83887C24.9559 4.83887 25.5544 5.43858 25.5544 6.17837C25.5544 6.91815 24.9559 7.51786 24.2177 7.51786C23.4795 7.51786 22.8811 6.91815 22.8811 6.17837Z" fill="#B3B4B3"/>
<path fill-rule="evenodd" clip-rule="evenodd" d="M22.0816 12.8362C21.5348 12.8362 21.0916 13.2803 21.0916 13.8282C21.0916 14.3762 21.5348 14.8203 22.0816 14.8203C22.6283 14.8203 23.0716 14.3762 23.0716 13.8282C23.0716 13.2803 22.6283 12.8362 22.0816 12.8362ZM20.0994 13.8282C20.0994 12.7312 20.9868 11.8418 22.0816 11.8418C23.1763 11.8418 24.0638 12.7312 24.0638 13.8282C24.0638 14.9253 23.1763 15.8147 22.0816 15.8147C20.9868 15.8147 20.0994 14.9253 20.0994 13.8282Z" fill="#48BCD0"/>
<path fill-rule="evenodd" clip-rule="evenodd" d="M82.8625 12.1743H87.5737V40.2041H82.8625V12.1743ZM56.6611 22.3256C59.1518 20.6059 62.1268 19.7314 65.1497 19.8303H65.1639C70.9644 19.8303 74.3174 22.5241 74.3174 28.3371V40.2182H69.8751V37.7654C68.7574 39.5093 66.5645 40.4876 63.551 40.4876C58.953 40.4876 56.0527 37.8221 56.0527 34.4478C56.0527 31.0734 58.3022 28.4363 64.414 28.4363H69.6204V28.1386C69.6204 25.3739 67.9651 23.7576 64.6121 23.7576C62.4097 23.7243 60.259 24.4277 58.5003 25.7567L56.6611 22.3256ZM67.5613 36.3088C68.4746 35.7469 69.1897 34.9127 69.6062 33.9232V33.8807V31.5413H64.7394C61.5279 31.5413 60.6649 32.8031 60.6649 34.2209C60.6649 35.9648 62.0938 37.0565 64.5131 37.0565C65.5821 37.1321 66.648 36.8707 67.5613 36.3088ZM111.568 40.1899H117.298L108.102 28.4931L116.506 20.0289H110.847L101.085 29.0886V12.1743H96.3735V40.1899H101.085V34.8732L104.593 31.5414L111.568 40.1899ZM122.688 20.0288H127.4V40.204H122.688V20.0288ZM161.594 20.0006C160.165 19.9485 158.743 20.2241 157.436 20.8064C156.129 21.3888 154.973 22.2624 154.054 23.3608C153.318 22.2503 152.302 21.3545 151.11 20.7644C149.917 20.1742 148.59 19.9107 147.263 20.0006C146.023 19.9513 144.787 20.1804 143.646 20.671C142.506 21.1616 141.489 21.9013 140.67 22.8362V20.27H136.185V40.431H140.896V30.1946C140.896 26.1964 143.004 24.1548 146.131 24.1548C148.961 24.1548 150.658 25.8986 150.658 29.4857V40.431H155.369V30.1946C155.369 26.1964 157.52 24.1548 160.604 24.1548C163.434 24.1548 165.131 25.8986 165.131 29.4857V40.431H169.843V28.876C169.843 22.7937 166.447 20.0431 161.594 20.0431V20.0006ZM178.289 20.0288H183V40.204H178.289V20.0288Z" fill="#343434"/>
</svg>
