<svg width="24" height="24" viewBox="0 0 24 24" fill="none" xmlns="http://www.w3.org/2000/svg">
<path d="M18 12C18.5128 12 18.9355 12.386 18.9933 12.8834L19 13V17H23C23.5523 17 24 17.4477 24 18C24 18.5128 23.614 18.9355 23.1166 18.9933L23 19H19V23C19 23.5523 18.5523 24 18 24C17.4872 24 17.0645 23.614 17.0067 23.1166L17 23V19H13C12.4477 19 12 18.5523 12 18C12 17.4872 12.386 17.0645 12.8834 17.0067L13 17H17V13C17 12.4477 17.4477 12 18 12ZM8.93939 14.0697C10.9583 13.8598 13.0177 14.1256 14.8647 14.8449L15 14.8985V15.2408H12.6429C11.7687 15.2408 11.0057 15.7419 10.5988 16.4861C10.1245 16.4725 9.64698 16.4898 9.17109 16.5393C7.49145 16.7139 5.94305 17.276 4.71701 18.125C3.49121 18.9738 2.67118 20.0491 2.28869 21.1763C2.0697 21.8216 1.3953 22.1579 0.782354 21.9273C0.16941 21.6968 -0.14996 20.9867 0.0690229 20.3413C0.651784 18.624 1.84358 17.1446 3.42174 16.0517C4.99967 14.959 6.92143 14.2794 8.93939 14.0697ZM10.5 0C13.5376 0 16 2.46243 16 5.5C16 8.53757 13.5376 11 10.5 11C7.46243 11 5 8.53757 5 5.5C5 2.46243 7.46243 0 10.5 0ZM10.5 2C8.567 2 7 3.567 7 5.5C7 7.433 8.567 9 10.5 9C12.433 9 14 7.433 14 5.5C14 3.567 12.433 2 10.5 2Z" fill="url(#paint0_linear_83_1642)"/>
<defs>
<linearGradient id="paint0_linear_83_1642" x1="0" y1="0" x2="28.2353" y2="7.05882" gradientUnits="userSpaceOnUse">
<stop stop-color="#655FF3"/>
<stop offset="1" stop-color="#CD3DF6"/>
</linearGradient>
</defs>
</svg>
