<?xml version="1.0" encoding="utf-8"?>
<!-- Generator: Adobe Illustrator 25.4.1, SVG Export Plug-In . SVG Version: 6.00 Build 0)  -->
<svg version="1.1" id="Layer_1" xmlns="http://www.w3.org/2000/svg" xmlns:xlink="http://www.w3.org/1999/xlink" x="0px" y="0px"
	 viewBox="0 0 24 18.1" style="enable-background:new 0 0 24 18.1;" xml:space="preserve">
<style type="text/css">
	.st0{fill:#FFFFFF;}
</style>
<path class="st0" d="M20.4,1.6c2.7,3.9,4,8.3,3.5,13.4c0,0,0,0,0,0.1c-2.1,1.5-4,2.4-6,3c0,0,0,0,0,0c0,0,0,0,0,0
	c-0.5-0.6-0.9-1.3-1.2-2c0,0,0-0.1,0-0.1c0.7-0.2,1.3-0.5,1.9-0.9c0,0,0.1-0.1,0-0.1c-0.1-0.1-0.3-0.2-0.4-0.3c0,0-0.1,0-0.1,0
	c-3.9,1.8-8.1,1.8-12.1,0c0,0-0.1,0-0.1,0c-0.1,0.1-0.2,0.2-0.4,0.3c0,0,0,0.1,0,0.1c0.6,0.3,1.2,0.6,1.9,0.9c0,0,0.1,0.1,0,0.1
	c-0.4,0.7-0.8,1.3-1.2,2c0,0-0.1,0-0.1,0c-2-0.6-3.9-1.5-6-3c0,0,0,0,0-0.1c-0.4-4.4,0.4-8.9,3.5-13.4c0,0,0,0,0,0
	C5.2,0.8,6.9,0.3,8.6,0c0,0,0.1,0,0.1,0c0.2,0.4,0.5,0.8,0.6,1.2c1.8-0.3,3.6-0.3,5.5,0c0.2-0.4,0.4-0.9,0.6-1.2c0,0,0,0,0,0
	c0,0,0,0,0,0C17.2,0.3,18.8,0.8,20.4,1.6C20.4,1.5,20.4,1.5,20.4,1.6z M10.2,9.9c0-1.3-0.9-2.4-2.2-2.4c-1.2,0-2.2,1.1-2.2,2.4
	c0,1.3,1,2.4,2.2,2.4C9.2,12.3,10.2,11.2,10.2,9.9z M18.2,9.9c0-1.3-0.9-2.4-2.2-2.4c-1.2,0-2.2,1.1-2.2,2.4c0,1.3,1,2.4,2.2,2.4
	C17.2,12.3,18.2,11.2,18.2,9.9z"/>
</svg>
