<svg width="18" height="15" viewBox="0 0 18 15" fill="none" xmlns="http://www.w3.org/2000/svg">
<path d="M5.66082 15C12.4536 15 16.1683 9.22965 16.1683 4.2258C16.1683 4.06192 16.1651 3.8988 16.1579 3.73635C16.8807 3.20007 17.5045 2.53607 18 1.77547C17.3383 2.07712 16.6262 2.28015 15.8792 2.37169C16.6417 1.9029 17.227 1.16126 17.5032 0.277237C16.7783 0.718198 15.9852 1.02905 15.1582 1.1964C14.4843 0.46035 13.5248 0 12.4625 0C10.4231 0 8.76926 1.69582 8.76926 3.78619C8.76926 4.08337 8.80171 4.37235 8.86507 4.64962C5.79574 4.49126 3.07409 2.98444 1.25261 0.693225C0.924545 1.27111 0.751988 1.9279 0.752561 2.5965C0.752561 3.91027 1.40451 5.07004 2.39598 5.74856C1.80951 5.7302 1.23592 5.56777 0.723439 5.27494C0.72289 5.29084 0.72289 5.30632 0.72289 5.32331C0.72289 7.15717 1.99584 8.68834 3.68565 9.03529C3.36828 9.12391 3.04079 9.16872 2.71185 9.16852C2.4743 9.16852 2.24279 9.14456 2.01779 9.10027C2.48795 10.6048 3.85127 11.6997 5.46765 11.7303C4.20366 12.7462 2.61143 13.3512 0.880902 13.3512C0.586518 13.3515 0.292374 13.334 0 13.2988C1.63441 14.373 3.57512 14.9997 5.661 14.9997" fill="white"/>
</svg>
