<svg width="190" height="50" viewBox="0 0 190 50" fill="none" xmlns="http://www.w3.org/2000/svg">
<path fill-rule="evenodd" clip-rule="evenodd" d="M190 11.7771C190 10.9261 189.71 10.2231 189.135 9.66193C188.556 9.10076 187.846 8.82324 187 8.82324C186.154 8.82324 185.439 9.10076 184.865 9.66193C184.29 10.2231 184 10.9261 184 11.7771C184 12.6282 184.29 13.3312 184.865 13.8924C185.439 14.4535 186.154 14.731 187 14.731C187.846 14.731 188.563 14.4535 189.135 13.8924C189.71 13.3312 190 12.6282 190 11.7771ZM189.457 41.3963V18.1352H184.543V41.3963H189.457ZM73.9772 19.2943C75.6439 20.2501 76.9464 21.6192 77.8908 23.4076C78.8289 25.1959 79.2982 27.3173 79.2982 29.7717C79.2982 32.1028 78.8289 34.1748 77.8908 35.9754C76.9525 37.7762 75.6439 39.1761 73.9772 40.1812C72.3106 41.1803 70.4155 41.6798 68.2921 41.6798C66.5638 41.6798 65.0637 41.353 63.7921 40.7055C62.5205 40.0517 61.4896 39.17 60.6996 38.0476L60.1071 41.4084H55.8293V9.58781H60.7429V21.5822C62.5947 19.097 65.1069 17.8575 68.2921 17.8575C70.4155 17.8575 72.3106 18.3386 73.9772 19.2943ZM72.4094 35.3773C73.6686 33.9404 74.2982 32.0658 74.2982 29.7656C74.2982 27.4962 73.6686 25.64 72.4094 24.197C71.1501 22.7601 69.5081 22.0386 67.4773 22.0386C65.4464 22.0386 63.8107 22.7539 62.5637 24.1723C61.3168 25.5968 60.6996 27.4408 60.6996 29.7162C60.6996 32.0164 61.3231 33.8973 62.5637 35.3526C63.8044 36.8081 65.4464 37.5358 67.4773 37.5358C69.502 37.5358 71.1501 36.8142 72.4094 35.3773ZM96.1253 18.1352V22.7233H93.9402C91.9094 22.7233 90.4402 23.3832 89.5267 24.7028C88.6131 26.0225 88.1626 27.6938 88.1626 29.7227V41.4025H83.2491V18.1352H87.6131L88.1563 21.6318C88.823 20.5403 89.6872 19.6832 90.7488 19.0664C91.8106 18.4436 93.2366 18.1352 95.0265 18.1352H96.1253ZM98.7852 36.0131C99.7728 37.8139 101.168 39.2075 102.97 40.1942C104.773 41.1809 106.847 41.6681 109.18 41.6681C111.513 41.6681 113.588 41.1809 115.39 40.1942C117.193 39.2075 118.587 37.8139 119.575 36.0131C120.557 34.2125 121.05 32.1281 121.05 29.7662C121.05 27.4351 120.563 25.3631 119.575 23.5623C118.587 21.7554 117.193 20.3556 115.39 19.3567C113.581 18.3576 111.513 17.8581 109.18 17.8581C106.841 17.8581 104.773 18.3576 102.97 19.3567C101.168 20.3618 99.7728 21.7617 98.7852 23.5623C97.8038 25.3692 97.3099 27.4351 97.3099 29.7662C97.3099 32.1281 97.7976 34.2125 98.7852 36.0131ZM116.05 29.76C116.05 32.0356 115.421 33.8917 114.162 35.3286C112.902 36.7717 111.242 37.487 109.18 37.487C107.119 37.487 105.464 36.7654 104.224 35.3286C102.983 33.8856 102.359 32.0293 102.359 29.76C102.359 27.4845 102.983 25.6282 104.224 24.1914C105.464 22.7545 107.119 22.0329 109.18 22.0329C111.242 22.0329 112.902 22.7545 114.162 24.1914C115.421 25.6343 116.05 27.4906 116.05 29.76ZM125.013 9.58781H129.921V29.4881L140.562 18.1289H146.248L137.563 27.49L146.797 41.3961H140.976L134.063 31.079L129.927 35.439V41.39H125.013V9.58781ZM148.587 36.0131C149.575 37.8139 150.97 39.2075 152.773 40.1942C154.575 41.1809 156.65 41.6681 158.982 41.6681C161.316 41.6681 163.39 41.1809 165.191 40.1942C166.994 39.2075 168.39 37.8139 169.378 36.0131C170.358 34.2125 170.853 32.1281 170.853 29.7662C170.853 27.4351 170.365 25.3631 169.378 23.5623C168.39 21.7554 166.994 20.3556 165.191 19.3567C163.384 18.3576 161.316 17.8581 158.982 17.8581C156.643 17.8581 154.575 18.3576 152.773 19.3567C150.97 20.3618 149.575 21.7617 148.587 23.5623C147.606 25.3692 147.112 27.4351 147.112 29.7662C147.112 32.1281 147.6 34.2125 148.587 36.0131ZM165.853 29.76C165.853 32.0356 165.223 33.8917 163.965 35.3286C162.705 36.7717 161.044 37.487 158.982 37.487C156.921 37.487 155.266 36.7654 154.026 35.3286C152.785 33.8856 152.161 32.0293 152.161 29.76C152.161 27.4845 152.785 25.6282 154.026 24.1914C155.266 22.7545 156.921 22.0329 158.982 22.0329C161.044 22.0329 162.705 22.7545 163.965 24.1914C165.223 25.6343 165.853 27.4906 165.853 29.76ZM174.809 9.58781H179.723V41.3961H174.809V9.58781Z" fill="#1F1F22"/>
<path d="M38.2971 26.9352L36.22 24.9825L38.2971 23.0474C39.2755 22.1235 39.9965 21.2866 40.5458 20.415C41.8849 18.2706 42.6057 15.8124 42.6057 13.2671C42.6057 5.94491 36.735 0 29.5425 0H6.83203C3.05552 0 0 3.10321 0 6.93865V43.0615C0 46.8794 3.05552 50.0001 6.83203 50.0001H29.5425C36.7522 50.0001 42.6057 44.0552 42.6057 36.733C42.6057 34.1877 41.9019 31.7294 40.5458 29.585C39.9965 28.696 39.2755 27.8591 38.2971 26.9352ZM14.1619 4.35844H29.5425C34.3832 4.35844 38.3143 8.35077 38.3143 13.2671C38.3143 14.9756 37.8336 16.6319 36.9411 18.0614C36.5976 18.6192 36.0998 19.1772 35.3962 19.8396L33.0615 22.0188L14.1619 4.35844ZM29.5425 45.6416H14.1447L33.0444 27.9638L35.379 30.143C36.0827 30.8055 36.5805 31.3633 36.9239 31.9213C37.8336 33.3508 38.3143 35.0244 38.3143 36.7155C38.3143 41.6319 34.3832 45.6416 29.5425 45.6416ZM4.29148 6.93865C4.29148 5.52651 5.42443 4.35844 6.83203 4.35844C7.46717 4.35844 8.08513 4.60252 8.54862 5.03836L29.8859 25L8.54862 44.9618C8.08513 45.3975 7.46717 45.6416 6.83203 45.6416C5.44158 45.6416 4.29148 44.491 4.29148 43.0615V6.93865Z" fill="#73FFD8"/>
</svg>
