<svg width="24" height="24" viewBox="0 0 24 24" fill="none" xmlns="http://www.w3.org/2000/svg">
<path d="M11.1246 4V6L9.74322 6.0044L8.81017 6.01483L7.97897 6.03275L7.24194 6.05939L6.7991 6.0826L6.3924 6.1106L6.01956 6.14376L5.6783 6.18245C5.62393 6.18937 5.57078 6.19655 5.51881 6.20397L5.22064 6.25162C5.1257 6.26856 5.03506 6.28657 4.94836 6.30571L4.69967 6.3666C4.58084 6.3988 4.47 6.4337 4.36588 6.47149L4.16619 6.55098C4.0066 6.62054 3.86327 6.69852 3.73026 6.78587L3.57522 6.89525L3.4278 7.01399C3.40373 7.03458 3.37989 7.05558 3.35623 7.07699L3.21299 7.21342L3.14199 7.28619C3.09751 7.33291 3.05471 7.38014 3.01353 7.42827L2.89479 7.57568L2.78542 7.73072C2.69807 7.86372 2.6201 8.00705 2.55054 8.16663L2.47105 8.36631C2.43326 8.47044 2.39837 8.58127 2.36617 8.7001L2.30528 8.94878C2.28614 9.03549 2.26813 9.12612 2.2512 9.22107L2.20355 9.51923L2.16197 9.84555C2.15553 9.90241 2.14932 9.96054 2.14334 10.02L2.11019 10.3928L2.08218 10.7995L2.05897 11.2424L2.03233 11.9794L2.01441 12.8106L2.00058 14.4261L2.00099 20.8082L2.00807 21.2491L2.0205 21.5569L2.03144 21.6996L2.04427 21.8007L2.05878 21.8669L2.07477 21.9053C2.07755 21.9098 2.08038 21.9134 2.08327 21.9163L2.1104 21.933L2.16186 21.9483L2.29993 21.9681L2.44272 21.9791L2.75048 21.9915L3.57101 22L9.57352 21.999L10.834 21.9901L11.667 21.9761L12.4112 21.9547L13.0731 21.9247L13.4721 21.8995L13.8395 21.8697L14.1773 21.8349C14.2312 21.8287 14.284 21.8223 14.3357 21.8156L14.6329 21.773C14.6803 21.7654 14.7267 21.7576 14.7721 21.7495L15.0331 21.6982L15.1553 21.6702L15.3846 21.6095L15.5952 21.5421L15.7891 21.4677L15.9684 21.3861C15.9971 21.3719 16.0254 21.3573 16.0531 21.3424L16.214 21.2493L16.2907 21.1997L16.4378 21.0942L16.5781 20.9803L16.7137 20.8574L16.8572 20.7139L16.9197 20.6466L17.0381 20.5089C17.0761 20.4622 17.1126 20.4145 17.1477 20.3655L17.249 20.2143L17.3421 20.0534C17.357 20.0257 17.3715 19.9975 17.3858 19.9687L17.4674 19.7895L17.5417 19.5956L17.6091 19.385L17.6698 19.1557C17.6794 19.1158 17.6887 19.0751 17.6978 19.0334L17.7491 18.7725L17.7946 18.4879L17.8346 18.1777L17.8693 17.8399L17.8991 17.4725L17.9243 17.0735L17.9453 16.641L17.9757 15.6675L17.9897 14.8344L17.9986 13.5739L17.9996 12.875H19.9996L19.995 14.3265L19.9786 15.5972L19.9648 16.1702L19.9357 16.9574L19.9099 17.4373L19.8785 17.8836L19.8409 18.2985L19.7968 18.6841C19.7889 18.746 19.7806 18.8068 19.7721 18.8666L19.7171 19.2122C19.7073 19.2677 19.6972 19.3223 19.6867 19.3759L19.6198 19.6863C19.5249 20.0858 19.4072 20.4298 19.2614 20.7408L19.1468 20.9683C19.0266 21.1902 18.89 21.3968 18.7346 21.5975L18.5729 21.7967L18.3983 21.994C18.368 22.0269 18.3373 22.0598 18.3059 22.0927L18.0925 22.3061L17.9938 22.3985L17.7964 22.5732C17.7635 22.6012 17.7304 22.6287 17.6972 22.6556L17.4964 22.8111C17.2934 22.9603 17.083 23.0911 16.8556 23.2058L16.6223 23.3152L16.3755 23.4142C16.1637 23.4927 15.9356 23.5609 15.6859 23.6202L15.3755 23.6871C15.3219 23.6976 15.2674 23.7077 15.2118 23.7175L14.8662 23.7725C14.8064 23.781 14.7456 23.7893 14.6837 23.7972L14.2981 23.8413L13.8832 23.8789L13.4368 23.9103L12.957 23.9361L12.1697 23.9652L11.5968 23.9791L10.326 23.9954L8.87459 24L3.10027 23.9982L2.69221 23.9912C2.62903 23.9894 2.56816 23.9874 2.50947 23.985L2.18213 23.9661C1.47352 23.9104 1.1319 23.7673 0.751333 23.4103L0.669039 23.3305C0.253134 22.9146 0.0931591 22.5767 0.0334631 21.8174L0.014564 21.4901L0.00414749 21.1107L0 20.6722L0.00214902 14.0036L0.0110798 12.9822L0.021441 12.3578L0.0448992 11.5002L0.0665768 10.978L0.109457 10.2632L0.145713 9.82902C0.152304 9.75933 0.159175 9.69094 0.166339 9.62381L0.212909 9.23572C0.372026 8.05214 0.644383 7.28811 1.10458 6.62107L1.25623 6.41328L1.4209 6.20967C1.50657 6.10854 1.59732 6.00813 1.69343 5.90718L1.9067 5.69391L2.00538 5.60154L2.20275 5.42684C2.23573 5.39882 2.26879 5.37134 2.30197 5.34439L2.5028 5.18897C2.70577 5.03976 2.91616 4.90892 3.14352 4.79424L3.37688 4.68486L3.62366 4.58578C3.83549 4.50736 4.06351 4.43914 4.31323 4.37986L4.62365 4.31292C4.67725 4.30245 4.73179 4.29232 4.78734 4.28251L5.13298 4.22752C5.1927 4.21898 5.25352 4.21074 5.31546 4.20281L5.70107 4.15865L6.11598 4.12112L6.5623 4.08971L7.04215 4.06393L7.82942 4.03477L8.40235 4.02095L9.67313 4.00458L11.1246 4ZM5.99959 16H10.9996C11.5519 16 11.9996 16.4477 11.9996 17C11.9996 17.5128 11.6135 17.9355 11.1162 17.9933L10.9996 18H5.99959C5.4473 18 4.99959 17.5523 4.99959 17C4.99959 16.4872 5.38563 16.0645 5.88296 16.0067L5.99959 16ZM5.99959 10H13.9996C14.5519 10 14.9996 10.4477 14.9996 11C14.9996 11.5128 14.6135 11.9355 14.1162 11.9933L13.9996 12H5.99959C5.4473 12 4.99959 11.5523 4.99959 11C4.99959 10.4872 5.38563 10.0645 5.88296 10.0067L5.99959 10ZM18.9996 0C19.5124 0 19.9351 0.38604 19.9929 0.883379L19.9996 1L19.999 4H22.9996C23.5519 4 23.9996 4.44772 23.9996 5C23.9996 5.51284 23.6135 5.93551 23.1162 5.99327L22.9996 6H19.999L19.9996 9C19.9996 9.55229 19.5519 10 18.9996 10C18.4867 10 18.0641 9.61396 18.0063 9.11662L17.9996 9L17.999 6H14.9996C14.4473 6 13.9996 5.55228 13.9996 5C13.9996 4.48716 14.3856 4.06449 14.883 4.00673L14.9996 4H17.999L17.9996 1C17.9996 0.447715 18.4473 0 18.9996 0Z" fill="url(#paint0_linear_83_1614)"/>
<defs>
<linearGradient id="paint0_linear_83_1614" x1="0" y1="0" x2="28.2349" y2="7.05859" gradientUnits="userSpaceOnUse">
<stop stop-color="#655FF3"/>
<stop offset="1" stop-color="#CD3DF6"/>
</linearGradient>
</defs>
</svg>
