<?xml version="1.0" encoding="utf-8"?>
<!-- Generator: Adobe Illustrator 25.4.1, SVG Export Plug-In . SVG Version: 6.00 Build 0)  -->
<svg version="1.1" id="Layer_1" xmlns="http://www.w3.org/2000/svg" xmlns:xlink="http://www.w3.org/1999/xlink" x="0px" y="0px"
	 viewBox="0 0 192 48" style="enable-background:new 0 0 192 48;" xml:space="preserve">
<style type="text/css">
	.st0{fill:#FFFFFF;}
</style>
<path class="st0" d="M192,47.9c-2.7,0-5.3,0-8.1,0c0-9.5,0-19,0-28.6c-5.5,5.4-11,10.7-16.4,16c-0.4-0.4-0.8-0.8-1.2-1.1
	c-4.1-4-8.2-8.1-12.3-12.1c-3.6-3.5-7.2-7.1-10.8-10.6c-0.1-0.1-0.2-0.3-0.2-0.5c0-3.5,0-7.1,0-10.6c0-0.1,0-0.1,0-0.3
	c8.2,8,16.3,15.9,24.6,24c0.1-0.1,0.2-0.3,0.3-0.4c7.9-7.7,15.8-15.5,23.8-23.2c0.1-0.1,0.2-0.2,0.4-0.3C192,16,192,32,192,47.9z"/>
<path class="st0" d="M0,0.1c0.2,0,0.4,0,0.6,0c7,0,14,0,20.9,0c4.8,0,8.8,1.8,12.1,5.3c4.7,5,5.2,12.2,2.6,17.4
	c-1.8,3.5-4.4,6.3-8.2,7.9c-0.1,0-0.2,0.1-0.3,0.1c3.3,5.7,6.7,11.4,10,17.1c-0.2,0-0.3,0-0.4,0c-2.9,0-5.8,0-8.6,0
	c-0.3,0-0.4-0.1-0.6-0.3c-4.6-7.8-9.2-15.5-13.8-23.3c-0.1-0.1-0.1-0.2-0.2-0.4c0.2,0,0.4,0,0.6,0c2.3,0,4.6,0.1,6.8,0.1
	c4,0,7.5-3.1,8-7c0.6-4.7-3.2-8.1-6.4-8.7c-0.6-0.1-1.2-0.2-1.9-0.2c-5.1,0-10.1,0-15.2,0c-1,0-1.5-0.4-2-1.1
	C2.8,4.8,1.5,2.7,0.3,0.5C0.2,0.4,0.1,0.3,0,0.1C0,0.1,0,0.1,0,0.1z"/>
<path class="st0" d="M129.2,47.9c0-15.9,0-31.9,0-47.8c2.7,0,5.4,0,8.1,0c0,13.2,0,26.5,0,39.8c8.2,0,16.3,0,24.5,0c0,2.7,0,5.4,0,8
	C151,47.9,140.1,47.9,129.2,47.9z"/>
<path class="st0" d="M76.3,47.9C84.5,31.9,92.6,16,100.8,0c5.5,10.7,10.9,21.3,16.4,32c-0.2,0-0.3,0-0.5,0c-2.8,0-5.5,0-8.3,0
	c-0.3,0-0.5-0.1-0.6-0.4c-2.2-4.4-4.5-8.8-6.7-13.2c-0.1-0.1-0.1-0.3-0.2-0.4c-0.1,0.2-0.2,0.3-0.2,0.4c-3.6,7.1-7.2,14.1-10.9,21.2
	c-1.4,2.7-2.8,5.3-4.2,8c-0.1,0.1-0.2,0.3-0.4,0.3c-2.9,0-5.8,0-8.7,0C76.4,47.9,76.4,47.9,76.3,47.9z"/>
<path class="st0" d="M40.8,28c0-2.6,0-5.3,0-7.9c10.9,0,21.7,0,32.6,0c0,2.6,0,5.3,0,7.9C62.5,28,51.7,28,40.8,28z"/>
<path class="st0" d="M40.8,47.9c-0.1-0.4,0-0.7,0.3-1c2.5-2.2,5-4.5,7.5-6.7c0.1-0.1,0.4-0.2,0.6-0.2c7.9,0,15.9,0,23.8,0
	c0.1,0,0.2,0,0.3,0c0,2.7,0,5.3,0,8C62.5,47.9,51.7,47.9,40.8,47.9z"/>
<path class="st0" d="M73.4,0.1c0,2.7,0,5.3,0,8c-0.2,0-0.3,0-0.5,0c-7.9,0-15.7,0-23.6,0c-0.2,0-0.5-0.1-0.6-0.2
	c-2.6-2.5-5.1-5-7.7-7.5c-0.1-0.1-0.1-0.1-0.2-0.2C51.7,0.1,62.5,0.1,73.4,0.1z"/>
<path class="st0" d="M125.2,47.9c-1.2,0-2.3,0-3.4,0c-1.8,0-3.6,0-5.4,0c-0.2,0-0.4-0.1-0.5-0.2c-1.3-2.5-2.5-5-3.8-7.5
	c0-0.1-0.1-0.1-0.1-0.2c0.2,0,0.3,0,0.4,0c2.8,0,5.5,0,8.3,0c0.2,0,0.4,0,0.5,0.2c1.3,2.5,2.6,5,3.8,7.5
	C125.2,47.7,125.2,47.8,125.2,47.9z"/>
</svg>
