<svg width="24" height="24" viewBox="0 0 24 24" fill="none" xmlns="http://www.w3.org/2000/svg">
<path d="M1 18C1.55228 18 2 18.4477 2 19L2.00286 19.8474L2.01688 20.5203L2.02898 20.7851L2.0449 21.008L2.06496 21.1933L2.08948 21.3454L2.11878 21.4686L2.15319 21.5675C2.16554 21.5968 2.17879 21.6229 2.19301 21.6463L2.23857 21.7094L2.29193 21.7625L2.32337 21.787L2.39811 21.8312L2.49282 21.8693L2.54922 21.8862L2.68326 21.9159L2.84977 21.9405L3.05375 21.9602L3.44093 21.9817L3.94056 21.9944L5 22L5.11662 22.0067C5.61396 22.0645 6 22.4872 6 23C6 23.5523 5.55228 24 5 24L4.53167 23.9997L3.81107 23.9932L3.20488 23.9752L2.69743 23.9411C1.77083 23.854 1.34274 23.644 0.849387 23.1506L0.766797 23.0658C0.28786 22.5593 0.104445 22.0882 0.0369892 21.021L0.0185524 20.6423L0.00376975 19.9801L0 19L0.00672773 18.8834C0.0644928 18.386 0.487164 18 1 18ZM23 18C23.5128 18 23.9355 18.386 23.9933 18.8834L24 19L23.9962 19.9801L23.9814 20.6423L23.963 21.021C23.8956 22.0882 23.7121 22.5593 23.2332 23.0658L23.1506 23.1506C22.6573 23.644 22.2292 23.854 21.3026 23.9411L20.7951 23.9752L20.1889 23.9932L19.4683 23.9997L19 24C18.4477 24 18 23.5523 18 23C18 22.4872 18.386 22.0645 18.8834 22.0067L19 22L20.0594 21.9944L20.5591 21.9817L20.9462 21.9602L21.1502 21.9405L21.3167 21.9159L21.4508 21.8862L21.5072 21.8693L21.6019 21.8312L21.6766 21.787L21.7081 21.7625L21.7614 21.7094L21.807 21.6463C21.8212 21.6229 21.8345 21.5968 21.8468 21.5675L21.8812 21.4686L21.9105 21.3454L21.935 21.1933L21.9551 21.008L21.971 20.7851L21.9831 20.5203L21.9971 19.8474L22 19C22 18.4477 22.4477 18 23 18ZM12 14C13.3973 14 14.7684 14.3236 15.9735 14.9364C17.1686 15.544 18.1554 16.4131 18.8363 17.4517C19.1391 17.9136 19.0102 18.5335 18.5483 18.8363C18.0864 19.1391 17.4665 19.0102 17.1637 18.5483C16.6772 17.8062 15.9563 17.1713 15.067 16.7191C14.1449 16.2503 13.0845 16 12 16C10.9154 16 9.85503 16.2502 8.93287 16.7191C8.04361 17.1713 7.32274 17.8062 6.83632 18.5482C6.53353 19.0101 5.91365 19.1391 5.45176 18.8363C4.98987 18.5335 4.86089 17.9136 5.16368 17.4518C5.84454 16.4131 6.83124 15.5441 8.02639 14.9363C9.23154 14.3236 10.6027 14 12 14ZM12 4C14.2091 4 16 5.79086 16 8C16 10.2091 14.2091 12 12 12C9.79086 12 8 10.2091 8 8C8 5.79086 9.79086 4 12 4ZM12 6C10.8954 6 10 6.89543 10 8C10 9.10457 10.8954 10 12 10C13.1046 10 14 9.10457 14 8C14 6.89543 13.1046 6 12 6ZM5 0C5.55228 0 6 0.447715 6 1C6 1.51284 5.61396 1.93551 5.11662 1.99327L5 2L3.94056 2.00557L3.44093 2.01831L3.17136 2.03158C3.13032 2.03413 3.09115 2.03686 3.05375 2.03978L2.84977 2.05954L2.68326 2.08409L2.54922 2.11379C2.52931 2.11919 2.51054 2.12482 2.49282 2.13069L2.39811 2.16881L2.32337 2.213C2.3123 2.22089 2.30185 2.22904 2.29193 2.23748L2.23857 2.29065L2.19301 2.35374C2.17879 2.37714 2.16554 2.40316 2.15319 2.43252L2.11878 2.53136L2.08948 2.65464L2.06496 2.80673L2.0449 2.99202L2.02898 3.21487L2.01688 3.47967L2.00286 4.15262L2 5C2 5.55228 1.55228 6 1 6C0.487164 6 0.0644928 5.61396 0.00672773 5.11662L0 5L0.00376975 4.01989L0.0185524 3.35772L0.0369892 2.97905C0.104445 1.91185 0.28786 1.44069 0.766797 0.934243L0.849387 0.8494C1.34274 0.356039 1.77083 0.145972 2.69743 0.0588525L3.02553 0.0341464C3.08355 0.0307143 3.1433 0.0276067 3.20488 0.0247961L3.81107 0.00677697L4.53167 0.000341079L5 0ZM19.4683 0.000341079L20.1889 0.00677697L20.7951 0.0247961C20.8567 0.0276067 20.9164 0.0307143 20.9745 0.0341464L21.3026 0.0588525C22.2292 0.145972 22.6573 0.356039 23.1506 0.8494L23.2332 0.934243C23.7121 1.44069 23.8956 1.91185 23.963 2.97905L23.9814 3.35772L23.9962 4.01989L24 5L23.9933 5.11662C23.9355 5.61396 23.5128 6 23 6C22.4477 6 22 5.55228 22 5L21.9971 4.15262L21.9831 3.47967L21.971 3.21487L21.9551 2.99202L21.935 2.80673L21.9105 2.65464L21.8812 2.53136L21.8468 2.43252C21.8345 2.40316 21.8212 2.37714 21.807 2.35374L21.7614 2.29065L21.7081 2.23748C21.6981 2.22904 21.6877 2.22089 21.6766 2.213L21.6019 2.16881L21.5072 2.13069C21.4895 2.12482 21.4707 2.11919 21.4508 2.11379L21.3167 2.08409L21.1502 2.05954L20.9462 2.03978C20.9089 2.03686 20.8697 2.03413 20.8286 2.03158L20.5591 2.01831L20.0594 2.00557L19 2L18.8834 1.99327C18.386 1.93551 18 1.51284 18 1C18 0.447715 18.4477 0 19 0L19.4683 0.000341079Z" fill="url(#paint0_linear_85_3293)"/>
<defs>
<linearGradient id="paint0_linear_85_3293" x1="0" y1="0" x2="28.2353" y2="7.05882" gradientUnits="userSpaceOnUse">
<stop stop-color="#655FF3"/>
<stop offset="1" stop-color="#CD3DF6"/>
</linearGradient>
</defs>
</svg>
