<svg width="24" height="24" viewBox="0 0 24 24" fill="none" xmlns="http://www.w3.org/2000/svg">
<path d="M12 0C18.6274 0 24 5.37258 24 12C24 18.6274 18.6274 24 12 24C5.37258 24 0 18.6274 0 12C0 5.37258 5.37258 0 12 0ZM13.0011 2.04948L13 3.05556C13 3.60784 12.5523 4.05556 12 4.05556C11.4872 4.05556 11.0645 3.66952 11.0067 3.17218L11 3.05556L10.9999 2.04939C6.27556 2.51849 2.51849 6.27556 2.04939 10.9999L3.05556 11C3.60784 11 4.05556 11.4477 4.05556 12C4.05556 12.5128 3.66952 12.9355 3.17218 12.9933L3.05556 13L2.04948 13.0011C2.51902 17.725 6.2759 21.4815 10.9999 21.9506L11 20.9444C11 20.3922 11.4477 19.9444 12 19.9444C12.5128 19.9444 12.9355 20.3305 12.9933 20.8278L13 20.9444L13.0011 21.9505C17.7246 21.481 21.481 17.7246 21.9505 13.0011L20.9444 13C20.3922 13 19.9444 12.5523 19.9444 12C19.9444 11.4872 20.3305 11.0645 20.8278 11.0067L20.9444 11L21.9506 10.9999C21.4815 6.2759 17.725 2.51902 13.0011 2.04948ZM6.08619 7.48228C5.73829 6.67066 6.46549 5.85071 7.27102 6.01916L7.297 6.026L7.36975 6.03796L14.01 9.144L14.1591 9.26935C14.7681 9.80203 15.2685 10.455 15.6252 11.1933L15.7388 11.4425L17.9146 16.5194C18.2904 17.4006 17.4006 18.2904 16.5178 17.9139L11.4425 15.7388C10.013 15.1261 8.87388 13.9869 8.26127 12.5575L6.08619 7.48228ZM8.847 8.847L10.0996 11.7697C10.5099 12.7271 11.2729 13.4901 12.2303 13.9005L15.152 15.152L13.9005 12.2304C13.5217 11.3466 12.8424 10.6284 11.9871 10.2004L11.7697 10.0996L8.847 8.847Z" fill="url(#paint0_linear_85_3305)"/>
<defs>
<linearGradient id="paint0_linear_85_3305" x1="0" y1="0" x2="28.2353" y2="7.05882" gradientUnits="userSpaceOnUse">
<stop stop-color="#655FF3"/>
<stop offset="1" stop-color="#CD3DF6"/>
</linearGradient>
</defs>
</svg>
