<svg width="24" height="24" viewBox="0 0 24 24" fill="none" xmlns="http://www.w3.org/2000/svg">
<path d="M18.3592 1L18.8762 1.0072L19.3231 1.02175L19.7107 1.04543C20.3128 1.09347 20.7114 1.18692 21.1266 1.36278C22.2703 1.84736 23.1766 2.77426 23.6477 3.93763C23.6603 3.96873 23.6724 3.99949 23.6842 4.03002L23.7495 4.2116L23.8053 4.39405L23.8523 4.58353L23.8911 4.78622C23.897 4.82144 23.9025 4.85747 23.9078 4.89444L23.9359 5.12849L23.9579 5.39116L23.9743 5.68862L23.9902 6.21354L23.9992 7.09278L24 8.56063C24 9.62571 23.147 10.4981 22.0833 10.4981H21.7778C21.0208 10.4981 20.3866 11.1083 20.338 11.8654L20.3333 11.9981C20.3333 12.8316 20.9851 13.4981 21.7778 13.4981H22.0833C23.147 13.4981 24 14.3706 24 15.4356V16.3731L23.9961 17.3713L23.9902 17.7827L23.9807 18.1439L23.9667 18.4611L23.9476 18.7404L23.9227 18.9879L23.8911 19.21L23.8523 19.4127L23.8053 19.6022C23.7968 19.633 23.7879 19.6635 23.7786 19.6939L23.7181 19.8751L23.6477 20.0586C23.1766 21.2221 22.2702 22.149 21.1266 22.6334L20.9375 22.7091L20.7507 22.7737C20.7194 22.7836 20.6878 22.7931 20.656 22.8021L20.4598 22.8517L20.2487 22.8922C20.2119 22.8983 20.1742 22.904 20.1355 22.9094L19.8893 22.9381C19.8458 22.9423 19.8009 22.9463 19.7546 22.9499L19.4578 22.9688L19.1188 22.9821L18.7306 22.9909L18.0411 22.9972H5.95888L5.48407 22.9938L4.88117 22.9821L4.38888 22.9601L4.11069 22.9382L3.86451 22.9094C3.82576 22.904 3.78807 22.8983 3.75127 22.8922L3.54023 22.8517L3.34404 22.8022C3.3122 22.7931 3.28069 22.7836 3.24937 22.7738L3.06259 22.7092L2.87351 22.6335C1.72984 22.1491 0.823539 21.2222 0.352218 20.0586C0.288105 19.9003 0.235328 19.7442 0.191967 19.5782L0.133748 19.3204C0.0907175 19.0969 0.0609012 18.8485 0.0405509 18.5517L0.0204343 18.1706L0.00796575 17.734L0.00170593 17.2327L0 15.4356C0 14.3706 0.853035 13.4981 1.91667 13.4981H2.22222C2.97923 13.4981 3.61342 12.888 3.66197 12.1309L3.66667 11.9981C3.66667 11.1647 3.01489 10.4981 2.22222 10.4981H1.91667C0.853033 10.4981 0 9.62571 0 8.56034L0.00170852 6.7617L0.00796765 6.26095C0.00948829 6.18312 0.0112676 6.10799 0.0133357 6.03535L0.0294484 5.62804L0.0539294 5.2717C0.0733595 5.04912 0.099328 4.85449 0.133754 4.67572L0.191977 4.41798C0.235341 4.25207 0.288122 4.09599 0.352239 3.93768C0.823484 2.77414 1.72973 1.8473 2.87342 1.3628C3.3716 1.15176 3.84587 1.05938 4.67772 1.02175L5.12522 1.0072L5.64291 1H18.3592ZM18.3079 2.9997H5.69422L5.26755 3.0049L4.74553 3.02137L4.46512 3.03909L4.22994 3.06297L4.03241 3.09364C3.972 3.10507 3.91661 3.11775 3.86496 3.13177L3.71999 3.17801L3.65356 3.20437C3.0004 3.48107 2.47901 4.0143 2.20597 4.68846C2.16925 4.77914 2.13863 4.87718 2.11323 4.99299L2.07892 5.18133L2.05178 5.40411C2.04782 5.44454 2.04413 5.48673 2.04069 5.53085L2.02305 5.81991L2.0109 6.16291L2.00154 6.79559L2 8.49813H2.22222C4.06606 8.49813 5.56379 9.96703 5.66113 11.8351L5.66617 12.0297L5.65946 12.2258C5.54323 14.0572 4.04561 15.4981 2.22222 15.4981H1.999L2.00045 16.9522L2.00668 17.638L2.01633 18.0113L2.03114 18.3267L2.05178 18.5919L2.07892 18.8148L2.11322 19.0033C2.13227 19.0901 2.15426 19.167 2.17955 19.2383L2.20596 19.3078C2.47902 19.982 3.00044 20.5152 3.65362 20.7919L3.76269 20.834L3.88028 20.8701L4.01203 20.9007L4.16357 20.9263L4.34054 20.9471L4.54857 20.9638L4.79331 20.9766L5.24158 20.9895L5.80413 20.9962L17.9797 20.9973L18.7584 20.9895L19.334 20.9706L19.6595 20.9471L19.8365 20.9263L19.988 20.9007L20.056 20.8861L20.18 20.8527C20.1996 20.8467 20.2187 20.8404 20.2374 20.8339L20.3465 20.7918C20.9996 20.5152 21.521 19.9819 21.794 19.3079L21.8361 19.1938L21.8723 19.0713L21.8883 19.005L21.9163 18.8589L21.9394 18.6898L21.9581 18.4918L21.9786 18.1281L21.9914 17.6669L21.9981 17.0884L22 15.4981H21.7778C19.9339 15.4981 18.4362 14.0293 18.3389 12.1612L18.3338 11.9665L18.3405 11.7704C18.4568 9.93901 19.9544 8.49813 21.7778 8.49813H22L21.9993 7.15018L21.9891 6.21272L21.9753 5.79276L21.9622 5.56156L21.9455 5.36343L21.9249 5.1933L21.8998 5.04606L21.8701 4.91662L21.8352 4.7999L21.7939 4.68838C21.521 4.01434 20.9996 3.48108 20.3465 3.20435C20.3248 3.19519 20.3027 3.18641 20.28 3.178L20.1351 3.13176C20.0834 3.11774 20.028 3.10507 19.9677 3.09364L19.7702 3.06296L19.5353 3.03909C19.4926 3.03565 19.448 3.03245 19.4013 3.0295L19.0958 3.01461L18.7339 3.0049L18.3079 2.9997ZM12.1089 8.01002C12.3821 8.0703 12.5503 8.50528 12.8865 9.37519C13.0777 9.86999 13.1733 10.1173 13.3523 10.2856C13.4024 10.3328 13.4569 10.3748 13.5149 10.4111C13.7216 10.5404 13.9797 10.5644 14.496 10.6124C15.37 10.6936 15.8069 10.7343 15.9404 10.9928C15.968 11.0463 15.9868 11.1043 15.996 11.1643C16.0403 11.454 15.7189 11.7573 15.0765 12.3639L14.8981 12.5323C14.5977 12.8159 14.4476 12.9577 14.3607 13.1346C14.3085 13.2408 14.2736 13.3552 14.2572 13.473C14.23 13.6696 14.274 13.8753 14.3619 14.2868L14.3933 14.4337C14.5511 15.1716 14.6299 15.5404 14.5315 15.7217C14.4431 15.8846 14.2801 15.9889 14.1001 15.9978C13.8999 16.0077 13.6176 15.769 13.0531 15.2917C12.6811 14.9772 12.4952 14.8198 12.2887 14.7584C12.1 14.7022 11.9 14.7022 11.7113 14.7584C11.5048 14.8198 11.3189 14.9772 10.9469 15.2917C10.3824 15.769 10.1001 16.0077 9.89987 15.9978C9.71987 15.9889 9.55694 15.8846 9.46854 15.7217C9.37014 15.5404 9.44894 15.1716 9.60667 14.4337L9.63814 14.2868C9.72601 13.8753 9.77001 13.6696 9.74281 13.473C9.72641 13.3552 9.69147 13.2408 9.63934 13.1346C9.55241 12.9577 9.40227 12.8159 9.10191 12.5323L8.9235 12.3639C8.28104 11.7573 7.9598 11.454 8.00404 11.1643C8.0132 11.1043 8.03198 11.0463 8.05962 10.9928C8.19306 10.7343 8.63004 10.6936 9.50401 10.6124C10.0203 10.5644 10.2784 10.5404 10.4851 10.4111C10.5431 10.3748 10.5976 10.3328 10.6477 10.2856C10.8267 10.1173 10.9223 9.86999 11.1135 9.37519C11.4497 8.50528 11.6179 8.0703 11.8911 8.01002C11.9629 7.99417 12.0371 7.99417 12.1089 8.01002Z" fill="url(#paint0_linear_83_1617)"/>
<defs>
<linearGradient id="paint0_linear_83_1617" x1="0" y1="1" x2="27.9226" y2="8.61622" gradientUnits="userSpaceOnUse">
<stop stop-color="#655FF3"/>
<stop offset="1" stop-color="#CD3DF6"/>
</linearGradient>
</defs>
</svg>
