<svg width="470" height="480" viewBox="0 0 470 480" fill="none" xmlns="http://www.w3.org/2000/svg">
<path fill-rule="evenodd" clip-rule="evenodd" d="M235.001 480C364.787 480 470 411.279 470 326.506V246.654H0.0012207V326.506C0.0012207 411.279 105.214 480 235.001 480Z" fill="black" fill-opacity="0.04"/>
<path fill-rule="evenodd" clip-rule="evenodd" d="M235.001 453.383C364.787 453.383 470 384.661 470 299.889V246.654H0.0012207V299.889C0.0012207 384.661 105.214 453.383 235.001 453.383Z" fill="black" fill-opacity="0.04"/>
<path fill-rule="evenodd" clip-rule="evenodd" d="M235.001 426.765C364.787 426.765 470 358.044 470 273.272V246.654H0.0012207V273.272C0.0012207 358.044 105.214 426.765 235.001 426.765Z" fill="black" fill-opacity="0.04"/>
<path d="M470 246.644C470 248.22 469.965 249.795 469.894 251.36C469.823 252.926 469.717 254.481 469.567 256.036C469.425 257.592 469.248 259.137 469.036 260.682C468.824 262.217 468.576 263.753 468.293 265.278C468.152 266.071 468.002 266.843 467.825 267.636C467.551 268.93 467.259 270.225 466.932 271.519C466.613 272.803 466.268 274.088 465.897 275.372C465.526 276.647 465.137 277.921 464.712 279.195C464.296 280.46 463.854 281.724 463.386 282.978C462.917 284.232 462.431 285.477 461.918 286.721C461.405 287.965 460.866 289.209 460.308 290.434C459.742 291.668 459.159 292.892 458.558 294.106C457.947 295.32 457.32 296.534 456.674 297.739C456.02 298.943 455.348 300.137 454.658 301.331C453.959 302.525 453.243 303.699 452.5 304.883C451.766 306.057 451.006 307.221 450.219 308.385C449.441 309.539 448.636 310.693 447.814 311.847C446.991 312.991 446.142 314.124 445.276 315.258C444.409 316.382 443.525 317.506 442.614 318.62C441.712 319.734 440.784 320.837 439.838 321.931C438.891 323.035 437.919 324.118 436.928 325.202C435.947 326.286 434.939 327.35 433.913 328.413C432.887 329.477 431.835 330.53 430.774 331.574C429.704 332.617 428.625 333.661 427.52 334.685C426.414 335.708 425.291 336.732 424.151 337.735C423.01 338.748 421.852 339.742 420.676 340.735C419.499 341.719 418.306 342.702 417.094 343.675C415.883 344.638 414.645 345.602 413.398 346.545C412.151 347.498 410.887 348.441 409.604 349.365C408.322 350.298 407.022 351.211 405.705 352.124C404.387 353.027 403.052 353.93 401.699 354.813C400.346 355.706 398.984 356.579 397.596 357.442C396.217 358.315 394.82 359.168 393.405 360.011C391.99 360.854 390.557 361.687 389.107 362.509C387.666 363.332 386.198 364.135 384.721 364.938C383.244 365.73 381.75 366.523 380.247 367.296C378.735 368.068 377.214 368.831 375.675 369.584C373.429 370.687 371.148 371.751 368.831 372.805C366.523 373.848 364.18 374.872 361.81 375.865C359.44 376.858 357.044 377.822 354.612 378.765C352.189 379.698 349.731 380.611 347.246 381.494C344.77 382.377 342.259 383.23 339.721 384.063C337.183 384.886 334.627 385.689 332.037 386.451C329.454 387.214 326.837 387.956 324.202 388.659C321.567 389.371 318.905 390.043 316.226 390.696C314.36 391.137 312.477 391.569 310.593 391.99C308.701 392.411 306.799 392.813 304.889 393.204C302.979 393.585 301.061 393.967 299.133 394.318C297.205 394.679 295.269 395.02 293.323 395.351C290.98 395.743 288.628 396.114 286.258 396.455C283.897 396.806 281.518 397.128 279.122 397.429C276.726 397.72 274.32 398 271.906 398.251C269.492 398.502 267.061 398.723 264.62 398.924C262.179 399.124 259.721 399.305 257.263 399.455C254.796 399.606 252.32 399.736 249.835 399.837C247.341 399.937 244.848 400.017 242.345 400.068C239.834 400.118 237.314 400.148 234.794 400.148C232.468 400.148 230.16 400.118 227.852 400.078C225.544 400.037 223.254 399.967 220.964 399.887C218.682 399.797 216.401 399.686 214.128 399.556C211.865 399.435 209.601 399.285 207.355 399.114C205.1 398.944 202.863 398.753 200.634 398.532C198.406 398.322 196.178 398.091 193.976 397.84C191.765 397.589 189.563 397.318 187.379 397.027C185.186 396.736 183.011 396.415 180.844 396.084C178.687 395.753 176.529 395.402 174.389 395.03C172.249 394.669 170.118 394.278 167.996 393.866C165.883 393.455 163.778 393.034 161.691 392.582C159.595 392.141 157.517 391.669 155.448 391.187C153.388 390.706 151.336 390.204 149.294 389.682C147.26 389.17 145.235 388.629 143.228 388.077C141.212 387.515 139.222 386.943 137.241 386.361C135.26 385.769 133.297 385.157 131.343 384.535C129.389 383.912 127.461 383.27 125.533 382.608C123.615 381.946 121.713 381.273 119.83 380.581C117.938 379.889 116.063 379.176 114.215 378.454C112.358 377.731 110.519 376.989 108.697 376.236C106.875 375.474 105.071 374.701 103.285 373.918C101.499 373.126 99.7305 372.323 97.9797 371.5C96.2288 370.687 94.4957 369.844 92.7802 369.002C91.0647 368.149 89.3757 367.286 87.6956 366.403C86.0155 365.53 84.3619 364.627 82.726 363.724C81.0813 362.81 79.4631 361.887 77.8626 360.954C76.262 360.021 74.688 359.068 73.1317 358.104C71.5666 357.131 70.028 356.158 68.5159 355.164C66.9949 354.171 65.5005 353.168 64.0238 352.144C62.5471 351.131 61.088 350.097 59.6555 349.044C58.223 348 56.817 346.946 55.4287 345.873C54.0404 344.799 52.6698 343.715 51.3257 342.622C49.5572 341.177 47.8505 339.732 46.1793 338.257C45.127 337.334 44.1012 336.41 43.0843 335.477C42.0762 334.544 41.077 333.601 40.0955 332.658C39.114 331.704 38.1413 330.751 37.1951 329.788C36.2489 328.825 35.3116 327.861 34.392 326.878C33.4812 325.905 32.5792 324.921 31.6949 323.928C30.8107 322.934 29.9441 321.941 29.0952 320.928C28.2463 319.924 27.4151 318.911 26.6016 317.897C25.788 316.874 24.9922 315.85 24.214 314.817C23.2413 313.532 22.2863 312.238 21.3667 310.934C20.4471 309.629 19.5628 308.315 18.6962 307C17.8296 305.676 16.9896 304.341 16.1849 302.996C15.3802 301.662 14.5932 300.307 13.8416 298.943C13.0899 297.588 12.3737 296.213 11.6751 294.839C10.9854 293.464 10.3222 292.079 9.68551 290.684C9.04884 289.29 8.4387 287.885 7.86392 286.47C7.28915 285.055 6.74975 283.64 6.23687 282.216C5.71515 280.791 5.23765 279.356 4.77783 277.911C4.32685 276.466 3.9024 275.021 3.51333 273.566C3.12425 272.101 2.77054 270.646 2.44336 269.171C2.11618 267.696 1.81553 266.221 1.55025 264.736C1.29381 263.251 1.0639 261.766 0.860522 260.271C0.665983 258.776 0.506815 257.271 0.383017 255.765C0.250377 254.25 0.153107 252.735 0.0912087 251.22C0.0204672 249.695 -0.00606081 248.169 0.00114075 246.644C0.00114075 245.119 0.0469953 243.594 0.117737 242.079C0.188478 240.553 0.29459 239.048 0.436073 237.533C0.568713 236.028 0.745567 234.533 0.948948 233.038C1.15233 231.543 1.39108 230.058 1.66521 228.573C1.84206 227.599 2.0366 226.626 2.23998 225.653C2.44336 224.679 2.66443 223.706 2.90318 222.743C3.13309 221.769 3.38069 220.806 3.64597 219.843C3.91125 218.88 4.19421 217.916 4.49486 216.963C4.90163 215.608 5.33492 214.264 5.80358 212.919C6.2634 211.575 6.75859 210.24 7.27146 208.916C7.79318 207.581 8.33258 206.267 8.89852 204.952C9.47329 203.638 10.0658 202.333 10.6847 201.029C11.3126 199.734 11.9581 198.44 12.6301 197.155C13.3022 195.871 14.0007 194.597 14.7258 193.322C15.4421 192.058 16.1937 190.794 16.963 189.539C17.7412 188.285 18.537 187.041 19.3594 185.807C20.1729 184.573 21.0218 183.348 21.8884 182.124C22.7638 180.91 23.6481 179.696 24.5677 178.492C25.4874 177.298 26.4247 176.104 27.3886 174.92C28.3524 173.736 29.3339 172.562 30.342 171.398C31.3501 170.234 32.3758 169.08 33.437 167.926C34.4892 166.782 35.5592 165.648 36.6557 164.524C37.7522 163.4 38.8752 162.277 40.0159 161.173C41.1478 160.069 42.315 158.975 43.4999 157.892C44.676 156.808 45.8786 155.724 47.1077 154.661C48.328 153.597 49.5748 152.543 50.8393 151.51C52.1038 150.466 53.386 149.433 54.6947 148.409C55.9946 147.396 57.321 146.382 58.6651 145.389C60.0092 144.385 61.371 143.402 62.7593 142.429C64.1387 141.455 65.5359 140.492 66.9595 139.539C68.3832 138.586 69.8157 137.653 71.2748 136.729C72.7338 135.796 74.2105 134.883 75.705 133.98C77.1994 133.087 78.7026 132.194 80.2324 131.321C81.7622 130.438 83.3097 129.575 84.8748 128.722C86.44 127.879 88.014 127.036 89.6145 126.214C91.2062 125.391 92.8244 124.578 94.4514 123.785C96.0873 122.982 97.7321 122.2 99.3945 121.427C101.057 120.655 102.728 119.902 104.426 119.159C106.124 118.417 107.83 117.684 109.555 116.972C111.279 116.26 113.021 115.557 114.772 114.875C116.85 114.052 118.954 113.259 121.077 112.487C123.199 111.704 125.348 110.951 127.514 110.219C129.672 109.486 131.856 108.774 134.058 108.092C136.268 107.399 138.488 106.737 140.725 106.085C142.971 105.443 145.226 104.821 147.508 104.218C149.78 103.626 152.079 103.044 154.387 102.493C156.704 101.941 159.03 101.409 161.382 100.897C163.725 100.395 166.086 99.9138 168.465 99.4522C170.967 98.9706 173.478 98.509 176.016 98.0775C178.545 97.6461 181.092 97.2447 183.656 96.8734C186.221 96.4921 188.803 96.1409 191.394 95.8198C193.993 95.4987 196.602 95.2077 199.219 94.9469C201.846 94.686 204.49 94.4451 207.134 94.2445C209.786 94.0337 212.457 93.8531 215.127 93.7026C217.807 93.5621 220.495 93.4417 223.201 93.3514C225.898 93.2611 228.613 93.2009 231.336 93.1708C232.645 93.1608 233.936 93.1608 235.227 93.1608C238.03 93.1608 240.824 93.1909 243.601 93.2511C246.386 93.3213 249.154 93.4116 251.904 93.5421C253.575 93.6123 255.229 93.7026 256.883 93.803C258.536 93.9033 260.19 94.0137 261.835 94.1341C263.479 94.2545 265.115 94.3849 266.751 94.5355C268.387 94.6759 270.014 94.8264 271.641 94.997C273.259 95.1576 274.877 95.3382 276.496 95.5288C278.105 95.7095 279.714 95.9101 281.315 96.1209C282.915 96.3316 284.507 96.5523 286.099 96.7831C287.69 97.0139 289.273 97.2547 290.847 97.5056C290.853 97.5056 290.862 97.5056 290.874 97.5056C293.394 97.8969 295.896 98.3284 298.381 98.7699C300.866 99.2214 303.333 99.7031 305.783 100.205C308.444 100.747 311.088 101.329 313.715 101.931C316.332 102.543 318.932 103.175 321.514 103.847C324.096 104.509 326.651 105.202 329.189 105.934C331.718 106.657 334.23 107.409 336.714 108.192C339.208 108.975 341.666 109.777 344.107 110.62C346.539 111.453 348.953 112.316 351.34 113.209C353.719 114.102 356.08 115.015 358.414 115.959C360.74 116.902 363.048 117.865 365.32 118.868C366.753 119.491 368.177 120.133 369.591 120.785C371.006 121.427 372.412 122.089 373.8 122.752C375.198 123.424 376.577 124.096 377.948 124.789C379.318 125.471 380.671 126.163 382.015 126.876C383.695 127.759 385.349 128.652 386.985 129.555C388.63 130.468 390.248 131.381 391.84 132.324C393.44 133.258 395.023 134.211 396.579 135.174C398.136 136.137 399.674 137.111 401.195 138.104C402.716 139.097 404.21 140.101 405.687 141.124C407.164 142.138 408.623 143.171 410.055 144.215C411.488 145.258 412.894 146.322 414.291 147.386C415.679 148.459 417.041 149.543 418.394 150.637C419.738 151.731 421.056 152.834 422.356 153.958C423.656 155.072 424.938 156.206 426.185 157.35C427.44 158.494 428.669 159.648 429.881 160.812C431.083 161.986 432.268 163.16 433.427 164.344C434.585 165.538 435.717 166.742 436.822 167.946C437.936 169.16 439.015 170.384 440.076 171.608C441.138 172.843 442.172 174.087 443.18 175.341C444.188 176.595 445.17 177.86 446.125 179.134C447.08 180.398 448.008 181.683 448.91 182.977C449.812 184.272 450.688 185.576 451.536 186.89C452.385 188.195 453.208 189.519 454.004 190.844C454.799 192.178 455.569 193.513 456.303 194.868C457.045 196.212 457.753 197.567 458.434 198.932C459.124 200.296 459.778 201.671 460.397 203.056C461.025 204.44 461.617 205.825 462.183 207.22C462.758 208.625 463.288 210.029 463.801 211.434C464.305 212.849 464.783 214.274 465.234 215.699C465.676 217.124 466.092 218.558 466.481 220.003C466.87 221.448 467.223 222.893 467.542 224.348C467.869 225.803 468.161 227.268 468.426 228.733C468.682 230.208 468.912 231.683 469.107 233.158C469.31 234.643 469.469 236.128 469.602 237.623C469.735 239.109 469.841 240.614 469.903 242.119C469.973 243.614 470 245.129 470 246.644Z" fill="url(#paint0_linear_131_136)"/>
<path d="M74.4228 322.734C76.66 322.754 78.7911 322.965 80.8514 323.336C82.9029 323.697 84.8748 324.209 86.7848 324.841C88.7037 325.463 90.5518 326.216 92.3646 327.038C94.1773 327.861 95.9547 328.764 97.7056 329.708C99.4564 330.661 101.198 331.654 102.932 332.648C104.674 333.651 106.416 334.664 108.184 335.648C109.944 336.631 111.73 337.584 113.56 338.477C115.4 339.37 117.274 340.193 119.211 340.926C121.13 341.648 123.102 342.26 125.091 342.762C127.09 343.264 129.124 343.655 131.166 343.936C133.218 344.227 135.287 344.408 137.365 344.498C139.443 344.588 141.521 344.578 143.599 344.478C145.677 344.378 147.746 344.197 149.807 343.916C151.858 343.645 153.901 343.294 155.899 342.852C157.907 342.421 159.887 341.909 161.824 341.327C163.76 340.745 165.653 340.093 167.483 339.37C168.748 338.869 170.012 338.227 171.285 337.494C172.559 336.752 173.832 335.909 175.123 335.026C176.405 334.133 177.705 333.199 179.023 332.256C180.34 331.323 181.676 330.38 183.029 329.497C184.381 328.604 185.752 327.761 187.158 327.008C188.555 326.266 189.979 325.614 191.438 325.112C192.897 324.61 194.383 324.249 195.904 324.078C197.433 323.918 198.99 323.938 200.59 324.209C203.986 324.781 206.302 325.925 207.938 327.4C209.583 328.875 210.556 330.691 211.254 332.638C211.608 333.611 211.882 334.614 212.147 335.618C212.413 336.621 212.652 337.635 212.926 338.618C213.483 340.585 214.164 342.451 215.366 344.006C216.242 345.14 217.276 346.184 218.435 347.147C219.593 348.11 220.884 348.993 222.281 349.806C223.678 350.619 225.182 351.361 226.764 352.044C228.356 352.726 230.019 353.348 231.752 353.92C233.476 354.492 235.271 355.024 237.093 355.506C238.914 355.997 240.78 356.449 242.646 356.87C244.521 357.292 246.404 357.683 248.279 358.064C250.153 358.446 252.019 358.807 253.85 359.158C255.636 359.509 257.431 359.85 259.226 360.191L264.611 361.235C266.406 361.576 268.192 361.937 269.979 362.309C271.765 362.67 273.533 363.061 275.293 363.463C277.053 363.864 278.795 364.285 280.519 364.737C282.243 365.189 283.95 365.66 285.63 366.172C287.31 366.674 288.964 367.225 290.591 367.807C292.209 368.389 293.81 369.012 295.366 369.674C296.745 370.276 298.098 370.918 299.398 371.6C300.707 372.283 301.971 373.005 303.174 373.778C304.385 374.54 305.535 375.343 306.614 376.176C307.701 377.019 308.71 377.882 309.647 378.785C310.575 379.688 311.433 380.611 312.194 381.564C312.954 382.518 313.626 383.501 314.192 384.494C314.749 385.498 315.218 386.511 315.554 387.545C315.899 388.578 316.129 389.632 316.226 390.696C314.36 391.137 312.477 391.569 310.593 391.99C308.701 392.411 306.8 392.813 304.889 393.204C302.979 393.585 301.061 393.967 299.133 394.318C297.205 394.679 295.269 395.02 293.323 395.351C290.98 395.743 288.628 396.114 286.258 396.455C283.897 396.806 281.518 397.127 279.122 397.429C276.726 397.72 274.32 398 271.906 398.251C269.492 398.502 267.061 398.723 264.62 398.924C262.179 399.124 259.721 399.305 257.263 399.455C254.796 399.606 252.32 399.736 249.835 399.837C247.341 399.937 244.848 400.017 242.345 400.068C239.834 400.118 237.314 400.148 234.794 400.148C232.468 400.148 230.16 400.118 227.852 400.078C225.544 400.037 223.254 399.967 220.964 399.887C218.682 399.797 216.401 399.686 214.128 399.556C211.865 399.435 209.601 399.285 207.355 399.114C205.1 398.944 202.863 398.753 200.634 398.532C198.406 398.322 196.178 398.091 193.976 397.84C191.765 397.589 189.563 397.318 187.379 397.027C185.186 396.736 183.011 396.415 180.844 396.084C178.687 395.753 176.529 395.402 174.389 395.03C172.249 394.669 170.118 394.278 167.996 393.866C165.883 393.455 163.778 393.034 161.691 392.582C159.595 392.14 157.517 391.669 155.448 391.187C153.388 390.706 151.336 390.204 149.294 389.682C147.26 389.17 145.235 388.628 143.228 388.077C141.212 387.515 139.222 386.943 137.241 386.361C135.26 385.769 133.297 385.157 131.343 384.535C129.389 383.912 127.461 383.27 125.533 382.608C123.615 381.946 121.713 381.273 119.83 380.581C117.938 379.889 116.063 379.176 114.215 378.454C112.358 377.731 110.519 376.989 108.697 376.236C106.875 375.474 105.072 374.701 103.285 373.918C101.499 373.126 99.7305 372.323 97.9797 371.5C96.2288 370.687 94.4957 369.844 92.7802 369.002C91.0647 368.149 89.3757 367.286 87.6956 366.403C86.0155 365.53 84.3619 364.627 82.7261 363.724C81.0813 362.81 79.4631 361.887 77.8626 360.954C76.2621 360.021 74.6881 359.068 73.1317 358.104C71.5666 357.131 70.028 356.158 68.5159 355.164C66.9949 354.171 65.5005 353.168 64.0238 352.144C62.5471 351.131 61.088 350.097 59.6555 349.043C58.223 348 56.817 346.946 55.4287 345.873C54.0404 344.799 52.6698 343.715 51.3257 342.622C49.5572 341.177 47.8505 339.732 46.1793 338.257C46.6302 337.203 47.205 336.17 47.8947 335.166C48.5756 334.163 49.3715 333.189 50.2646 332.266C51.1577 331.333 52.1392 330.44 53.218 329.607C54.2968 328.774 55.4552 327.992 56.6932 327.279C57.9223 326.567 59.2399 325.925 60.6105 325.363C61.99 324.791 63.4313 324.309 64.9169 323.908C66.4113 323.516 67.9588 323.205 69.5416 323.005C71.1333 322.804 72.7603 322.714 74.4228 322.734ZM420.048 295.932L420.543 295.942C423.01 296.043 425.353 296.715 427.29 298.31C429.156 299.836 429.978 301.762 429.943 303.719C429.925 304.692 429.695 305.686 429.271 306.639C428.855 307.592 428.245 308.505 427.476 309.348C426.697 310.191 425.795 310.964 424.787 311.676C423.779 312.388 422.665 313.041 421.48 313.643C420.304 314.255 419.049 314.807 417.749 315.308C416.449 315.82 415.114 316.292 413.769 316.723C412.417 317.145 411.046 317.546 409.675 317.937C408.296 318.329 406.908 318.71 405.528 319.101C404.149 319.493 402.778 319.884 401.425 320.305C400.072 320.727 398.728 321.168 397.428 321.65C396.128 322.132 394.846 322.674 393.635 323.266C392.414 323.848 391.265 324.49 390.204 325.192C389.151 325.885 388.188 326.637 387.365 327.45C386.543 328.253 385.862 329.116 385.349 330.039C384.447 331.634 383.917 333.5 382.997 335.126C382.077 336.742 380.769 338.116 378.328 338.718C376.436 339.19 374.402 338.949 372.651 338.297C370.9 337.635 369.432 336.551 368.672 335.327C367.911 334.103 367.681 332.798 367.743 331.474C367.814 330.149 368.185 328.804 368.619 327.51C369.061 326.216 369.565 324.921 369.892 323.607C370.219 322.302 370.37 320.998 370.113 319.683C369.848 318.359 369.176 317.074 368.336 315.82C367.496 314.556 366.496 313.322 365.568 312.097C364.648 310.863 363.808 309.639 363.295 308.385C362.774 307.141 362.588 305.866 362.986 304.552C363.552 302.645 365.303 301.05 367.646 299.856C368.822 299.264 370.14 298.762 371.537 298.381C372.925 297.989 374.393 297.718 375.861 297.558C378.797 297.247 381.75 297.317 384.712 297.538C386.189 297.648 387.666 297.799 389.143 297.969C390.61 298.13 392.087 298.31 393.546 298.471C395.394 298.682 397.128 298.822 398.79 298.892C400.452 298.953 402.044 298.943 403.609 298.852C405.174 298.752 406.713 298.561 408.269 298.27C409.834 297.989 411.408 297.598 413.053 297.096C415.153 296.444 417.386 295.988 419.55 295.937L420.048 295.932ZM365.32 118.868C366.753 119.491 368.177 120.133 369.591 120.785C371.006 121.427 372.412 122.089 373.801 122.752C375.198 123.424 376.577 124.096 377.948 124.789C379.318 125.471 380.671 126.163 382.015 126.876C383.695 127.759 385.349 128.652 386.985 129.555C388.63 130.468 390.248 131.381 391.84 132.324C393.44 133.258 395.023 134.211 396.579 135.174C398.136 136.137 399.674 137.111 401.195 138.104C402.716 139.097 404.21 140.101 405.687 141.124C407.164 142.138 408.623 143.171 410.055 144.215C411.488 145.258 412.894 146.322 414.291 147.386C415.679 148.459 417.041 149.543 418.394 150.637C419.738 151.731 421.056 152.834 422.356 153.958C423.656 155.072 424.938 156.206 426.185 157.35C427.44 158.494 428.669 159.648 429.881 160.811C431.083 161.985 432.268 163.159 433.427 164.344C434.585 165.538 435.717 166.742 436.822 167.946C437.936 169.16 439.015 170.384 440.076 171.608C441.138 172.843 442.172 174.087 443.18 175.341C444.188 176.595 445.17 177.86 446.125 179.134C447.08 180.398 448.008 181.683 448.91 182.977C449.812 184.271 450.688 185.576 451.536 186.89C452.385 188.195 453.208 189.519 454.004 190.844C454.799 192.178 455.569 193.513 456.303 194.868C457.045 196.212 457.753 197.567 458.434 198.932C459.124 200.296 459.778 201.671 460.397 203.056C461.025 204.44 461.617 205.825 462.183 207.22C462.758 208.625 463.288 210.029 463.801 211.434C464.305 212.849 464.783 214.274 465.234 215.699C465.676 217.124 466.092 218.558 466.481 220.003C466.87 221.448 467.223 222.893 467.542 224.348C467.869 225.803 468.161 227.268 468.426 228.733C468.682 230.208 468.912 231.683 469.107 233.158C469.31 234.643 469.469 236.128 469.602 237.623C469.735 239.109 469.841 240.614 469.903 242.119C469.973 243.614 470 245.129 470 246.644C470 248.22 469.965 249.795 469.894 251.36C469.823 252.926 469.717 254.481 469.567 256.036C469.425 257.592 469.248 259.137 469.036 260.682C468.824 262.217 468.576 263.753 468.293 265.278C467.073 265.86 465.844 266.432 464.606 266.994C463.359 267.556 462.112 268.117 460.857 268.669C459.601 269.221 458.337 269.763 457.063 270.305C455.79 270.847 454.517 271.379 453.234 271.91C451.961 272.442 450.679 272.964 449.388 273.486C448.106 274.008 446.815 274.519 445.532 275.041C444.241 275.553 442.95 276.065 441.668 276.576C440.377 277.078 439.095 277.59 437.813 278.091C436.106 278.764 434.302 279.426 432.445 280.048C430.588 280.68 428.669 281.282 426.715 281.834C424.761 282.376 422.771 282.868 420.782 283.279C418.792 283.691 416.802 284.032 414.831 284.263C412.859 284.493 410.904 284.624 409.012 284.624C407.12 284.634 405.272 284.503 403.512 284.232C401.752 283.962 400.063 283.54 398.498 282.948C396.924 282.346 395.456 281.573 394.13 280.61C392.892 279.717 391.928 278.754 391.203 277.74C390.469 276.737 389.974 275.673 389.673 274.58C389.381 273.486 389.275 272.352 389.337 271.188C389.399 270.034 389.629 268.85 389.974 267.656C390.327 266.462 390.805 265.258 391.371 264.054C391.937 262.839 392.6 261.635 393.307 260.441C394.024 259.247 394.784 258.063 395.571 256.909C396.358 255.755 397.163 254.621 397.95 253.528C398.551 252.695 399.17 251.752 399.745 250.748C400.329 249.745 400.868 248.681 401.337 247.577C401.805 246.484 402.194 245.35 402.468 244.216C402.743 243.082 402.902 241.948 402.893 240.844C402.893 239.741 402.734 238.667 402.38 237.654C402.017 236.64 401.46 235.687 400.665 234.824C399.869 233.971 398.834 233.198 397.517 232.556C396.199 231.924 394.607 231.402 392.688 231.041C389.965 230.529 387.374 230.499 384.933 230.84C382.484 231.182 380.176 231.904 378.001 232.917C375.834 233.941 373.809 235.245 371.926 236.75C370.98 237.493 370.069 238.296 369.202 239.139C368.327 239.982 367.496 240.854 366.691 241.758C365.895 242.671 365.135 243.594 364.41 244.547C363.676 245.49 362.986 246.454 362.34 247.417C361.686 248.38 361.067 249.353 360.483 250.317C359.909 251.28 359.36 252.233 358.856 253.166C357.848 255.043 356.982 256.839 356.274 258.465C355.558 260.09 355.001 261.555 354.594 262.759C353.975 264.585 353.409 266.442 352.879 268.298C352.348 270.154 351.853 272.021 351.367 273.887C350.88 275.754 350.394 277.62 349.881 279.486C349.377 281.343 348.846 283.199 348.263 285.045C347.688 286.892 347.051 288.718 346.344 290.534C345.628 292.34 344.841 294.136 343.948 295.892C343.046 297.658 342.038 299.394 340.906 301.1C339.765 302.796 338.483 304.461 337.05 306.087C335.609 307.713 333.92 309.268 332.028 310.743C330.135 312.208 328.048 313.583 325.802 314.847C323.556 316.111 321.151 317.255 318.649 318.258C316.146 319.252 313.538 320.115 310.867 320.807C308.197 321.49 305.473 322.011 302.741 322.342C300.008 322.664 297.258 322.804 294.552 322.714C291.855 322.623 289.185 322.312 286.612 321.76C284.03 321.209 281.536 320.406 279.184 319.342C277.486 318.57 275.956 317.697 274.55 316.763C273.135 315.82 271.862 314.807 270.668 313.733C269.483 312.659 268.387 311.536 267.352 310.372C266.327 309.208 265.345 308.014 264.399 306.789C263.453 305.575 262.533 304.341 261.605 303.107C260.676 301.873 259.739 300.628 258.757 299.414C257.785 298.2 256.768 297.006 255.671 295.852C254.584 294.698 253.416 293.574 252.143 292.511C250.454 291.106 248.562 289.822 246.501 288.668C244.45 287.514 242.221 286.49 239.878 285.597C237.535 284.704 235.059 283.951 232.512 283.329C229.957 282.707 227.322 282.226 224.642 281.894C221.963 281.553 219.239 281.363 216.516 281.312C213.783 281.272 211.06 281.383 208.372 281.634C205.684 281.894 203.04 282.306 200.466 282.878C197.902 283.45 195.408 284.182 193.038 285.075C190.899 285.888 188.865 286.821 186.875 287.785C184.886 288.758 182.949 289.771 180.986 290.775C179.023 291.778 177.051 292.762 175.008 293.665C172.957 294.558 170.835 295.38 168.58 296.053C166.325 296.725 163.831 297.177 161.284 297.387C158.747 297.598 156.165 297.558 153.733 297.257C151.301 296.946 149.037 296.374 147.127 295.511C145.217 294.638 143.67 293.474 142.688 291.989C141.937 290.865 141.6 289.681 141.6 288.497C141.592 287.303 141.919 286.099 142.485 284.915C143.051 283.741 143.864 282.587 144.837 281.483C145.81 280.389 146.942 279.346 148.144 278.393C149.55 277.289 151.045 276.245 152.619 275.252C154.193 274.268 155.846 273.335 157.553 272.462C159.268 271.579 161.046 270.746 162.876 269.954C164.707 269.171 166.59 268.419 168.518 267.706C170.437 266.984 172.408 266.301 174.398 265.639C176.397 264.977 178.422 264.335 180.464 263.712C182.507 263.09 184.567 262.478 186.636 261.876C188.706 261.274 190.775 260.672 192.844 260.07C194.913 259.478 196.982 258.876 199.025 258.254C201.076 257.642 203.101 257.02 205.109 256.377C207.107 255.735 209.079 255.073 211.016 254.381C212.943 253.688 214.836 252.966 216.675 252.203C218.523 251.451 220.309 250.648 222.034 249.815C223.767 248.972 225.429 248.089 227.012 247.146C228.604 246.203 230.116 245.209 231.539 244.156C232.972 243.092 234.307 241.978 235.554 240.784C236.916 239.48 238.127 238.105 239.241 236.71C240.356 235.306 241.381 233.881 242.381 232.436C243.38 230.991 244.353 229.536 245.369 228.091C246.378 226.646 247.421 225.211 248.57 223.816C249.738 222.412 251.126 221.057 252.709 219.793C254.292 218.528 256.06 217.354 257.97 216.301C259.871 215.247 261.923 214.314 264.054 213.531C266.194 212.749 268.422 212.116 270.686 211.675C272.959 211.233 275.267 210.973 277.574 210.922C279.882 210.872 282.182 211.043 284.428 211.464C286.682 211.876 288.875 212.548 290.962 213.491C293.058 214.424 295.048 215.649 296.887 217.184C298.417 218.448 299.646 219.973 300.221 221.549C300.787 223.114 300.707 224.729 299.602 226.174C298.682 227.368 297.205 228.282 295.64 229.155C294.066 230.028 292.404 230.86 291.113 231.904C289.68 233.048 288.76 234.453 288.407 235.908C288.044 237.373 288.248 238.888 289.061 240.273C290.105 242.059 291.581 243.223 293.314 243.935C295.056 244.647 297.064 244.898 299.186 244.838C301.308 244.788 303.554 244.427 305.747 243.905C307.949 243.393 310.116 242.731 312.087 242.059C314.466 241.256 316.721 240.283 318.817 239.159C320.904 238.045 322.831 236.781 324.564 235.416C326.298 234.041 327.827 232.566 329.118 231.021C330.418 229.466 331.479 227.84 332.266 226.174C332.947 224.75 333.469 223.305 333.858 221.86C334.247 220.405 334.495 218.94 334.636 217.475C334.769 216 334.787 214.525 334.707 213.04C334.619 211.565 334.433 210.08 334.168 208.594C333.902 207.109 333.549 205.624 333.133 204.139C332.709 202.664 332.231 201.179 331.692 199.714C331.161 198.239 330.577 196.774 329.958 195.329C329.34 193.874 328.685 192.429 328.022 191.004C327.359 189.58 326.678 188.145 326.006 186.71C325.325 185.275 324.644 183.84 323.981 182.405C323.327 180.96 322.681 179.515 322.071 178.07C321.461 176.625 320.886 175.17 320.364 173.715C319.851 172.261 319.383 170.806 318.976 169.341C318.578 167.876 318.251 166.411 318.012 164.946C317.764 163.471 317.614 161.996 317.561 160.52C317.508 159.035 317.561 157.56 317.738 156.065C317.871 154.911 318.083 153.777 318.357 152.664C318.631 151.55 318.967 150.466 319.374 149.403C319.781 148.329 320.249 147.285 320.789 146.272C321.319 145.248 321.912 144.255 322.557 143.282C323.212 142.308 323.919 141.365 324.679 140.442C325.449 139.519 326.262 138.616 327.129 137.743C328.004 136.86 328.924 136.007 329.888 135.184C330.86 134.351 331.877 133.548 332.938 132.776C334 131.993 335.105 131.241 336.254 130.508C337.395 129.776 338.589 129.073 339.818 128.391C341.038 127.709 342.303 127.056 343.612 126.424C344.911 125.792 346.247 125.19 347.608 124.608C348.979 124.026 350.376 123.474 351.8 122.942C353.224 122.411 354.683 121.909 356.159 121.427C357.645 120.946 359.148 120.494 360.678 120.073C362.199 119.641 363.746 119.24 365.32 118.868ZM73.2025 269.412C74.9003 269.432 76.6777 269.613 78.5346 269.974C80.931 270.435 83.0267 271.118 84.8925 271.971C86.7672 272.834 88.4119 273.857 89.9063 274.981C91.4007 276.115 92.7448 277.359 94.0093 278.643C95.265 279.938 96.4587 281.272 97.6348 282.597C98.5191 283.59 99.4387 284.594 100.411 285.567C101.384 286.54 102.419 287.494 103.533 288.387C104.656 289.27 105.858 290.102 107.176 290.845C108.485 291.588 109.917 292.24 111.482 292.762C112.844 293.223 114.286 293.564 115.727 293.915C117.159 294.267 118.601 294.618 119.963 295.069C121.324 295.521 122.651 296.123 123.694 296.855C124.746 297.588 125.516 298.451 125.79 299.434C126.152 300.779 125.463 302.093 124.189 303.177C122.907 304.261 121.041 305.104 119.034 305.485C117.027 305.866 114.949 305.906 112.871 305.736C110.793 305.565 108.715 305.204 106.725 304.773C104.744 304.351 102.764 303.859 100.765 303.458C98.7578 303.067 96.7328 302.756 94.646 302.675C92.5503 302.585 90.4722 302.736 88.4119 303.006C86.3515 303.277 84.3089 303.669 82.2574 304.05C80.2147 304.431 78.1632 304.823 76.1029 305.084C74.0425 305.344 71.9645 305.495 69.8688 305.395C67.8969 305.314 66.093 305.074 64.4482 304.702C62.8035 304.341 61.3179 303.839 59.9827 303.237C58.6474 302.635 57.4625 301.923 56.4279 301.12C55.3933 300.317 54.5091 299.424 53.7574 298.461C53.0147 297.508 52.4134 296.484 51.9447 295.411C51.476 294.337 51.1488 293.213 50.9455 292.069C50.7421 290.915 50.6713 289.741 50.7244 288.557C50.7863 287.373 50.9632 286.189 51.2638 285.015C51.5645 283.841 51.9801 282.677 52.5106 281.553C53.05 280.429 53.6955 279.336 54.4472 278.302C55.2076 277.259 56.0654 276.285 57.0292 275.372C58.0019 274.469 59.0719 273.636 60.2303 272.904C61.3975 272.161 62.662 271.529 64.0149 270.997C65.3767 270.476 66.8181 270.064 68.3567 269.793C69.8865 269.522 71.5047 269.392 73.2025 269.412ZM231.336 93.1708C230.408 94.5956 229.391 95.9904 228.303 97.355C227.215 98.7297 226.057 100.084 224.828 101.399C223.599 102.723 222.299 104.008 220.937 105.272C219.566 106.536 218.134 107.761 216.631 108.955C215.136 110.149 213.571 111.303 211.944 112.426C210.326 113.55 208.637 114.634 206.895 115.668C205.153 116.711 203.349 117.714 201.492 118.668C199.626 119.621 197.716 120.524 195.744 121.387C194.206 122.049 192.596 122.732 191.022 123.434C189.457 124.146 187.919 124.889 186.521 125.692C185.124 126.494 183.869 127.367 182.852 128.331C181.835 129.284 181.057 130.338 180.615 131.512C180.208 132.625 180.04 133.789 180.013 134.993C179.978 136.187 180.084 137.422 180.217 138.656C180.358 139.9 180.535 141.144 180.632 142.369C180.738 143.593 180.774 144.797 180.641 145.951C180.5 147.245 180.296 148.54 180.031 149.814C179.766 151.088 179.438 152.363 179.041 153.617C178.643 154.881 178.183 156.126 177.643 157.37C177.113 158.614 176.503 159.848 175.813 161.062C175.132 162.276 174.38 163.471 173.567 164.655C172.753 165.829 171.878 166.983 170.932 168.126C169.994 169.26 168.986 170.374 167.925 171.468C166.855 172.552 165.732 173.615 164.556 174.659C163.371 175.692 162.133 176.696 160.833 177.679C159.542 178.652 158.189 179.596 156.792 180.509C155.386 181.422 153.936 182.295 152.424 183.128C150.921 183.97 149.364 184.773 147.764 185.526C145.597 186.549 143.316 187.513 140.911 188.285C138.515 189.048 135.994 189.62 133.35 189.871C130.706 190.111 127.912 189.971 125.374 189.429C122.845 188.877 120.564 187.934 118.946 186.549C117.725 185.506 116.965 184.352 116.567 183.138C116.169 181.913 116.134 180.629 116.337 179.325C116.54 178.01 116.991 176.676 117.575 175.371C118.15 174.067 118.875 172.772 119.609 171.558C120.352 170.344 121.103 169.07 121.74 167.775C122.377 166.481 122.907 165.166 123.217 163.862C123.517 162.567 123.597 161.273 123.34 160.039C123.075 158.795 122.483 157.601 121.422 156.487C120.52 155.533 119.326 154.741 117.946 154.109C116.567 153.486 115.002 153.025 113.348 152.734C111.686 152.433 109.944 152.312 108.211 152.353C106.477 152.403 104.753 152.614 103.135 153.005C101.526 153.396 100.022 153.928 98.634 154.57C97.2369 155.202 95.9635 155.955 94.7963 156.788C93.6379 157.621 92.6033 158.534 91.6837 159.497C90.764 160.46 89.9682 161.474 89.305 162.507C88.518 163.741 87.7664 165.116 87.0855 166.561C86.4046 168.006 85.7945 169.531 85.2993 171.066C84.7952 172.602 84.4062 174.147 84.1674 175.652C83.9287 177.147 83.8314 178.592 83.9198 179.927C84.0436 181.683 84.4238 183.419 84.9986 185.124C85.5822 186.83 86.3604 188.516 87.28 190.172C88.2085 191.827 89.2785 193.453 90.428 195.058C91.5864 196.654 92.8332 198.239 94.1066 199.784C95.0174 200.908 95.9459 202.072 96.8478 203.256C97.7498 204.45 98.634 205.675 99.4476 206.919C100.27 208.153 101.022 209.407 101.685 210.672C102.339 211.926 102.896 213.19 103.312 214.444C103.736 215.689 104.01 216.933 104.116 218.157C104.223 219.371 104.152 220.565 103.869 221.719C103.586 222.883 103.091 223.997 102.348 225.071C101.596 226.134 100.597 227.158 99.3061 228.111C98.1035 229.014 96.7594 229.757 95.3092 230.349C93.8678 230.951 92.3115 231.402 90.6756 231.733C89.0486 232.054 87.3419 232.255 85.5822 232.335C83.8314 232.426 82.0275 232.396 80.197 232.265C78.3755 232.135 76.5362 231.914 74.6969 231.603C72.8665 231.292 71.036 230.901 69.2498 230.439C67.4636 229.987 65.7127 229.456 64.0326 228.874C62.3437 228.302 60.7343 227.67 59.2134 226.997C56.7374 225.904 54.3587 224.84 52.0508 223.806C49.7517 222.783 47.5145 221.799 45.3215 220.886C43.1374 219.973 40.9886 219.13 38.8575 218.378C36.7264 217.625 34.613 216.963 32.4908 216.421C30.3597 215.869 28.2198 215.448 26.0356 215.157C23.8515 214.866 21.6231 214.715 19.3329 214.725C17.0338 214.745 14.6728 214.916 12.2057 215.277C9.74743 215.649 7.18305 216.2 4.49487 216.963C4.90164 215.608 5.33493 214.264 5.80359 212.919C6.26341 211.575 6.7586 210.24 7.27147 208.916C7.79319 207.581 8.3326 206.267 8.89853 204.952C9.4733 203.638 10.0658 202.333 10.6847 201.029C11.3126 199.734 11.9581 198.44 12.6301 197.155C13.3022 195.871 14.0008 194.597 14.7259 193.322C15.4421 192.058 16.1937 190.794 16.9631 189.539C17.7412 188.285 18.537 187.041 19.3594 185.807C20.1729 184.573 21.0218 183.348 21.8884 182.124C22.7638 180.91 23.6481 179.696 24.5678 178.492C25.4874 177.298 26.4247 176.104 27.3886 174.92C28.3524 173.736 29.334 172.562 30.342 171.398C31.3501 170.234 32.3758 169.08 33.437 167.926C34.4892 166.782 35.5592 165.648 36.6557 164.524C37.7522 163.4 38.8752 162.276 40.0159 161.173C41.1478 160.069 42.315 158.975 43.4999 157.892C44.676 156.808 45.8786 155.724 47.1077 154.661C48.328 153.597 49.5748 152.543 50.8394 151.51C52.1039 150.466 53.386 149.433 54.6948 148.409C55.9946 147.396 57.321 146.382 58.6651 145.389C60.0092 144.385 61.371 143.402 62.7593 142.429C64.1387 141.455 65.5359 140.492 66.9596 139.539C68.3832 138.586 69.8157 137.652 71.2748 136.729C72.7338 135.796 74.2105 134.883 75.705 133.98C77.1994 133.087 78.7026 132.194 80.2324 131.321C81.7622 130.438 83.3097 129.575 84.8748 128.722C86.44 127.879 88.014 127.036 89.6145 126.213C91.2062 125.391 92.8244 124.578 94.4514 123.785C96.0873 122.982 97.7321 122.2 99.3945 121.427C101.057 120.655 102.728 119.902 104.426 119.159C106.124 118.417 107.83 117.684 109.555 116.972C111.279 116.26 113.021 115.557 114.772 114.875C116.85 114.052 118.954 113.259 121.077 112.487C123.208 111.704 125.348 110.951 127.514 110.219C129.672 109.486 131.856 108.774 134.058 108.092C136.268 107.399 138.488 106.737 140.725 106.085C142.971 105.443 145.226 104.821 147.508 104.218C149.78 103.626 152.079 103.044 154.396 102.493C156.704 101.941 159.038 101.409 161.382 100.897C163.734 100.395 166.095 99.9138 168.474 99.4522C170.976 98.9706 173.487 98.509 176.016 98.0775C178.545 97.646 181.101 97.2447 183.656 96.8734C186.221 96.4921 188.803 96.1409 191.394 95.8198C193.993 95.4987 196.602 95.2077 199.228 94.9468C201.846 94.6859 204.49 94.4451 207.134 94.2444C209.786 94.0337 212.457 93.8531 215.127 93.7026C217.807 93.5621 220.495 93.4417 223.201 93.3514C225.898 93.2611 228.613 93.2009 231.336 93.1708ZM224.722 135.174C227.322 135.515 229.806 136.107 232.247 136.79C234.687 137.482 237.084 138.255 239.507 138.957C241.417 139.499 243.371 140.011 245.272 140.572C247.173 141.134 249.03 141.756 250.746 142.529C252.461 143.302 254.053 144.275 255.264 145.379C256.485 146.493 257.325 147.747 257.564 149.102C257.891 151.008 256.962 152.834 255.3 154.41C253.637 155.985 251.241 157.289 248.624 158.142C246.006 158.995 243.203 159.497 240.32 159.848C237.446 160.199 234.502 160.39 231.593 160.631C228.692 160.862 225.739 161.163 222.927 161.705C220.115 162.246 217.462 163.019 215.163 164.203C213.615 164.996 212.289 165.949 210.971 166.902C209.654 167.856 208.345 168.819 206.833 169.632C205.321 170.444 203.437 171.097 201.519 171.378C199.609 171.658 197.654 171.568 195.983 170.886C193.463 169.862 192.384 167.775 192.384 165.839C192.384 164.865 192.605 163.912 192.906 162.959C193.198 162.006 193.56 161.062 193.843 160.109C194.17 158.995 194.391 157.871 194.559 156.748C194.736 155.624 194.86 154.49 195.01 153.366C195.161 152.232 195.338 151.108 195.603 149.995C195.859 148.881 196.213 147.787 196.726 146.703C197.522 145.018 198.99 143.362 200.926 141.857C201.89 141.104 202.969 140.382 204.136 139.72C205.303 139.047 206.559 138.435 207.876 137.883C209.185 137.331 210.565 136.84 211.971 136.428C213.368 136.017 214.809 135.686 216.251 135.435C219.133 134.953 222.034 134.833 224.722 135.174ZM251.904 93.542C253.575 93.6123 255.229 93.7026 256.883 93.8029C258.536 93.9033 260.19 94.0137 261.835 94.1341C263.479 94.2545 265.115 94.3849 266.751 94.5354C268.387 94.6759 270.014 94.8264 271.641 94.997C273.259 95.1576 274.877 95.3382 276.496 95.5288C278.105 95.7094 279.714 95.9101 281.315 96.1208C282.915 96.3316 284.507 96.5523 286.099 96.7831C287.691 97.0139 289.273 97.2547 290.847 97.5056H290.874C293.394 97.8969 295.897 98.3284 298.381 98.7699C300.866 99.2214 303.333 99.7031 305.783 100.205C305.429 101.329 304.845 102.412 304.067 103.436C303.289 104.459 302.307 105.423 301.176 106.306C300.044 107.189 298.762 107.991 297.356 108.704C295.95 109.406 294.429 110.008 292.828 110.49C291.281 110.951 289.671 111.313 288.018 111.614C286.364 111.905 284.666 112.125 282.942 112.316C281.218 112.497 279.476 112.647 277.734 112.778C275.992 112.918 274.241 113.039 272.516 113.189C270.792 113.34 269.094 113.5 267.432 113.721C265.778 113.932 264.16 114.203 262.613 114.554C261.065 114.895 259.58 115.326 258.191 115.868C256.794 116.4 255.485 117.052 254.292 117.845C252.753 118.848 251.436 120.073 249.968 121.146C248.509 122.21 246.908 123.123 244.821 123.524C242.195 124.026 239.533 123.454 237.446 122.32C235.351 121.186 233.839 119.481 233.511 117.704C233.211 115.938 233.768 114.192 234.847 112.547C235.917 110.901 237.499 109.356 239.241 107.981C240.237 107.196 241.29 106.44 242.355 105.689L243.955 104.563C244.221 104.375 244.486 104.187 244.75 103.998C246.599 102.683 248.376 101.339 249.826 99.8335C250.613 99.0308 251.082 98.0574 251.374 96.9737C251.674 95.9001 251.798 94.7261 251.904 93.542Z" fill="url(#paint1_linear_131_136)"/>
<path opacity="0.116412" d="M360.245 244.561C360.245 245.901 360.2 247.233 360.093 248.548C359.987 249.871 359.828 251.186 359.616 252.492C359.403 253.799 359.138 255.089 358.819 256.378C358.509 257.659 358.145 258.932 357.728 260.197C357.31 261.461 356.848 262.717 356.332 263.956C355.824 265.195 355.263 266.426 354.649 267.639C354.042 268.862 353.39 270.067 352.685 271.256C351.987 272.444 351.244 273.624 350.448 274.787C349.659 275.951 348.825 277.097 347.945 278.235C347.066 279.364 346.148 280.485 345.185 281.59C344.222 282.694 343.221 283.781 342.174 284.852C341.128 285.922 340.043 286.976 338.921 288.013C337.791 289.058 336.631 290.078 335.425 291.072C334.227 292.075 332.991 293.062 331.709 294.031C330.435 294.992 329.124 295.936 327.774 296.863C326.432 297.79 325.044 298.701 323.626 299.586C322.215 300.471 320.759 301.339 319.281 302.182C317.794 303.033 316.278 303.851 314.731 304.652C313.184 305.452 311.606 306.236 309.999 306.995C308.391 307.745 306.753 308.478 305.085 309.195C303.416 309.903 301.725 310.586 300.004 311.252C298.275 311.909 296.531 312.541 294.749 313.157C292.974 313.763 291.177 314.353 289.35 314.91C287.522 315.466 285.672 315.997 283.791 316.503C281.918 317.009 280.022 317.489 278.104 317.936C276.185 318.391 274.236 318.812 272.28 319.2C270.316 319.596 268.329 319.959 266.327 320.288C264.325 320.625 262.3 320.928 260.26 321.198C258.22 321.476 256.165 321.72 254.088 321.931C252.017 322.142 249.924 322.319 247.816 322.471C245.708 322.614 243.585 322.732 241.446 322.808C239.308 322.892 237.162 322.943 234.993 322.951C232.832 322.968 230.678 322.951 228.547 322.901C226.409 322.842 224.286 322.757 222.177 322.639C220.069 322.521 217.976 322.369 215.906 322.184C213.828 321.999 211.766 321.788 209.726 321.543C207.686 321.291 205.669 321.021 203.667 320.709C201.657 320.406 199.678 320.068 197.714 319.697C195.75 319.327 193.809 318.93 191.89 318.509C189.971 318.088 188.068 317.632 186.195 317.152C184.322 316.671 182.472 316.157 180.644 315.618C178.817 315.087 177.012 314.522 175.237 313.932C173.463 313.342 171.711 312.727 169.99 312.086C168.268 311.445 166.57 310.78 164.901 310.088C163.241 309.397 161.603 308.681 159.987 307.939C158.38 307.197 156.802 306.43 155.255 305.646C153.708 304.854 152.192 304.045 150.713 303.21C149.227 302.376 147.778 301.524 146.36 300.648C144.942 299.771 143.562 298.869 142.212 297.95C140.87 297.032 139.558 296.088 138.277 295.135C137.003 294.174 135.767 293.188 134.561 292.193C133.363 291.19 132.195 290.17 131.073 289.134C129.95 288.097 128.866 287.043 127.819 285.973C126.773 284.902 125.772 283.815 124.809 282.702C123.846 281.598 122.921 280.477 122.049 279.339C121.169 278.201 120.335 277.046 119.546 275.875C118.75 274.711 118.007 273.523 117.301 272.326C116.604 271.129 115.952 269.915 115.345 268.693C114.731 267.471 114.17 266.232 113.661 264.976C113.146 263.728 112.683 262.464 112.266 261.191C111.849 259.918 111.485 258.629 111.174 257.339C110.856 256.041 110.59 254.735 110.378 253.42C110.166 252.096 110.006 250.773 109.9 249.433C109.802 248.101 109.756 246.752 109.756 245.404C109.756 244.046 109.817 242.706 109.915 241.366C110.029 240.034 110.188 238.702 110.408 237.387C110.621 236.073 110.894 234.758 111.212 233.46C111.531 232.161 111.895 230.872 112.319 229.599C112.736 228.318 113.206 227.053 113.722 225.806C114.238 224.55 114.807 223.302 115.413 222.08C116.027 220.85 116.687 219.636 117.392 218.43C118.09 217.225 118.841 216.037 119.637 214.865C120.433 213.693 121.267 212.53 122.147 211.384C123.034 210.246 123.952 209.116 124.923 208.004C125.886 206.891 126.894 205.795 127.941 204.716C128.987 203.637 130.072 202.575 131.201 201.53C132.324 200.485 133.492 199.457 134.697 198.454C135.895 197.442 137.139 196.456 138.413 195.486C139.695 194.517 141.007 193.573 142.356 192.646C143.699 191.71 145.086 190.808 146.504 189.915C147.915 189.03 149.371 188.17 150.85 187.327C152.336 186.484 153.845 185.658 155.392 184.866C156.939 184.065 158.516 183.29 160.124 182.539C161.732 181.789 163.369 181.056 165.03 180.356C166.699 179.657 168.39 178.974 170.111 178.325C171.832 177.667 173.577 177.044 175.351 176.437C177.125 175.838 178.923 175.265 180.75 174.717C182.57 174.169 184.421 173.647 186.294 173.149C188.159 172.661 190.055 172.189 191.973 171.75C193.892 171.312 195.826 170.907 197.79 170.528C199.746 170.149 201.725 169.795 203.727 169.474C205.722 169.154 207.747 168.859 209.779 168.606C211.819 168.345 213.874 168.117 215.944 167.915C218.014 167.721 220.1 167.553 222.2 167.418C224.308 167.283 226.424 167.19 228.555 167.123C230.693 167.055 232.839 167.021 235.001 167.021C237.154 167.021 239.3 167.055 241.439 167.123C243.57 167.19 245.685 167.283 247.786 167.418C249.894 167.553 251.979 167.721 254.05 167.915C256.12 168.109 258.175 168.345 260.215 168.598C262.247 168.859 264.264 169.154 266.266 169.474C268.268 169.786 270.247 170.14 272.204 170.52C274.16 170.899 276.102 171.303 278.02 171.742C279.931 172.18 281.827 172.644 283.7 173.141C285.573 173.63 287.423 174.152 289.243 174.692C291.063 175.24 292.868 175.813 294.643 176.411C296.41 177.01 298.161 177.634 299.883 178.283C301.604 178.932 303.295 179.606 304.956 180.306C306.624 181.005 308.262 181.73 309.87 182.472C311.477 183.222 313.055 183.989 314.594 184.782C316.141 185.574 317.658 186.383 319.144 187.218C320.623 188.052 322.071 188.912 323.489 189.788C324.907 190.665 326.287 191.559 327.637 192.477C328.987 193.396 330.299 194.332 331.573 195.293C332.855 196.245 334.091 197.223 335.296 198.218C336.502 199.212 337.662 200.224 338.792 201.252C339.915 202.28 341.007 203.334 342.053 204.396C343.099 205.458 344.108 206.537 345.071 207.633C346.034 208.737 346.959 209.85 347.839 210.971C348.726 212.1 349.56 213.247 350.357 214.401C351.153 215.565 351.896 216.736 352.601 217.916C353.306 219.105 353.966 220.302 354.58 221.516C355.187 222.729 355.756 223.952 356.272 225.191C356.787 226.43 357.257 227.677 357.674 228.942C358.099 230.197 358.463 231.47 358.782 232.76C359.1 234.041 359.373 235.331 359.585 236.637C359.805 237.935 359.965 239.25 360.078 240.574C360.184 241.889 360.245 243.22 360.245 244.561Z" fill="black"/>
<path d="M360.245 228.371C360.245 229.711 360.2 231.043 360.093 232.358C359.987 233.681 359.828 234.996 359.616 236.303C359.403 237.609 359.138 238.899 358.819 240.189C358.509 241.47 358.145 242.743 357.728 244.007C357.31 245.271 356.848 246.527 356.332 247.766C355.824 249.005 355.263 250.236 354.649 251.45C354.042 252.672 353.39 253.877 352.685 255.066C351.987 256.254 351.244 257.434 350.448 258.598C349.659 259.761 348.825 260.907 347.945 262.045C347.066 263.175 346.148 264.296 345.185 265.4C344.222 266.504 343.221 267.591 342.174 268.662C341.128 269.732 340.043 270.786 338.921 271.823C337.791 272.868 336.631 273.888 335.425 274.883C334.227 275.886 332.991 276.872 331.709 277.841C330.435 278.802 329.124 279.746 327.774 280.673C326.432 281.601 325.044 282.511 323.626 283.396C322.215 284.281 320.759 285.149 319.281 285.992C317.794 286.843 316.278 287.661 314.731 288.462C313.184 289.263 311.606 290.047 309.999 290.805C308.391 291.555 306.753 292.289 305.085 293.005C303.416 293.713 301.725 294.396 300.004 295.062C298.275 295.719 296.531 296.352 294.749 296.967C292.974 297.574 291.177 298.164 289.35 298.72C287.522 299.276 285.672 299.807 283.791 300.313C281.918 300.819 280.022 301.299 278.104 301.746C276.185 302.201 274.236 302.623 272.28 303.01C270.316 303.407 268.329 303.769 266.327 304.098C264.325 304.435 262.3 304.738 260.26 305.008C258.22 305.286 256.165 305.531 254.088 305.741C252.017 305.952 249.924 306.129 247.816 306.281C245.708 306.424 243.585 306.542 241.446 306.618C239.308 306.702 237.162 306.753 234.993 306.761C232.832 306.778 230.678 306.761 228.547 306.711C226.409 306.652 224.286 306.568 222.177 306.45C220.069 306.332 217.976 306.18 215.906 305.994C213.828 305.809 211.766 305.598 209.726 305.354C207.686 305.101 205.669 304.831 203.667 304.519C201.657 304.216 199.678 303.879 197.714 303.508C195.75 303.137 193.809 302.741 191.89 302.319C189.971 301.898 188.068 301.443 186.195 300.962C184.322 300.482 182.472 299.968 180.644 299.428C178.817 298.897 177.012 298.332 175.237 297.742C173.463 297.152 171.711 296.537 169.99 295.896C168.268 295.256 166.57 294.59 164.901 293.899C163.241 293.207 161.603 292.491 159.987 291.749C158.38 291.007 156.802 290.24 155.255 289.456C153.708 288.664 152.192 287.855 150.713 287.021C149.227 286.186 147.778 285.335 146.36 284.458C144.942 283.581 143.562 282.68 142.212 281.761C140.87 280.842 139.558 279.898 138.277 278.945C137.003 277.985 135.767 276.998 134.561 276.004C133.363 275.001 132.195 273.981 131.073 272.944C129.95 271.907 128.866 270.854 127.819 269.783C126.773 268.713 125.772 267.625 124.809 266.513C123.846 265.408 122.921 264.287 122.049 263.149C121.169 262.011 120.335 260.857 119.546 259.685C118.75 258.522 118.007 257.333 117.301 256.136C116.604 254.939 115.952 253.726 115.345 252.503C114.731 251.281 114.17 250.042 113.661 248.786C113.146 247.539 112.683 246.274 112.266 245.002C111.849 243.729 111.485 242.439 111.174 241.149C110.856 239.851 110.59 238.545 110.378 237.23C110.166 235.907 110.006 234.583 109.9 233.243C109.802 231.911 109.756 230.562 109.756 229.214C109.756 227.857 109.817 226.517 109.915 225.176C110.029 223.845 110.188 222.513 110.408 221.198C110.621 219.883 110.894 218.568 111.212 217.27C111.531 215.972 111.895 214.682 112.319 213.409C112.736 212.128 113.206 210.864 113.722 209.616C114.238 208.36 114.807 207.113 115.413 205.891C116.027 204.66 116.687 203.446 117.392 202.241C118.09 201.035 118.841 199.847 119.637 198.675C120.433 197.504 121.267 196.34 122.147 195.194C123.034 194.056 123.952 192.927 124.923 191.814C125.886 190.701 126.894 189.606 127.941 188.527C128.987 187.448 130.072 186.386 131.201 185.34C132.324 184.295 133.492 183.267 134.697 182.264C135.895 181.252 137.139 180.266 138.413 179.297C139.695 178.327 141.007 177.383 142.356 176.456C143.699 175.521 145.086 174.619 146.504 173.725C147.915 172.84 149.371 171.98 150.85 171.137C152.336 170.295 153.845 169.468 155.392 168.676C156.939 167.875 158.516 167.1 160.124 166.35C161.732 165.6 163.369 164.866 165.03 164.167C166.699 163.467 168.39 162.784 170.111 162.135C171.832 161.478 173.577 160.854 175.351 160.247C177.125 159.649 178.923 159.075 180.75 158.528C182.57 157.98 184.421 157.457 186.294 156.96C188.159 156.471 190.055 155.999 191.973 155.561C193.892 155.122 195.826 154.718 197.79 154.338C199.746 153.959 201.725 153.605 203.727 153.285C205.722 152.964 207.747 152.669 209.779 152.416C211.819 152.155 213.874 151.928 215.944 151.725C218.014 151.531 220.1 151.363 222.2 151.228C224.308 151.093 226.424 151 228.555 150.933C230.693 150.866 232.839 150.832 235.001 150.832C237.154 150.832 239.3 150.866 241.439 150.933C243.57 151 245.685 151.093 247.786 151.228C249.894 151.363 251.979 151.531 254.05 151.725C256.12 151.919 258.175 152.155 260.215 152.408C262.247 152.669 264.264 152.964 266.266 153.285C268.268 153.597 270.247 153.951 272.204 154.33C274.16 154.709 276.102 155.114 278.02 155.552C279.931 155.99 281.827 156.454 283.7 156.951C285.573 157.44 287.423 157.963 289.243 158.502C291.063 159.05 292.868 159.623 294.643 160.222C296.41 160.82 298.161 161.444 299.883 162.093C301.604 162.742 303.295 163.416 304.956 164.116C306.624 164.816 308.262 165.541 309.87 166.282C311.477 167.032 313.055 167.8 314.594 168.592C316.141 169.384 317.658 170.193 319.144 171.028C320.623 171.862 322.071 172.722 323.489 173.599C324.907 174.475 326.287 175.369 327.637 176.288C328.987 177.206 330.299 178.142 331.573 179.103C332.855 180.055 334.091 181.033 335.296 182.028C336.502 183.022 337.662 184.034 338.792 185.062C339.915 186.091 341.007 187.144 342.053 188.206C343.099 189.268 344.108 190.347 345.071 191.443C346.034 192.547 346.959 193.66 347.839 194.781C348.726 195.911 349.56 197.057 350.357 198.212C351.153 199.375 351.896 200.547 352.601 201.727C353.306 202.915 353.966 204.112 354.58 205.326C355.187 206.54 355.756 207.762 356.272 209.001C356.787 210.24 357.257 211.487 357.674 212.752C358.099 214.008 358.463 215.281 358.782 216.57C359.1 217.851 359.373 219.141 359.585 220.448C359.805 221.746 359.965 223.061 360.078 224.384C360.184 225.699 360.245 227.031 360.245 228.371Z" fill="white"/>
<path d="M156.19 186.273C156.886 187.366 157.574 188.442 158.254 189.492C158.935 190.543 159.6 191.568 160.265 192.585C160.93 193.593 161.581 194.584 162.231 195.55C162.881 196.524 163.523 197.473 164.166 198.405C164.801 199.337 165.436 200.243 166.064 201.133C166.691 202.031 167.311 202.895 167.931 203.75C168.551 204.606 169.171 205.436 169.783 206.25C170.396 207.063 171.008 207.851 171.62 208.63C172.233 209.401 172.837 210.155 173.45 210.892C174.055 211.629 174.667 212.349 175.272 213.044C176.489 214.442 177.706 215.764 178.938 217.009C180.163 218.254 181.403 219.423 182.658 220.525C183.913 221.626 185.19 222.651 186.483 223.608C187.731 224.523 189.454 225.032 191.223 225.099C192.985 225.167 194.799 224.811 196.22 223.99C197.516 223.25 198.814 222.51 200.114 221.77C201.409 221.025 202.704 220.282 204 219.542C205.3 218.802 206.598 218.059 207.893 217.314C209.188 216.574 210.486 215.834 211.787 215.094C213.082 214.354 214.377 213.614 215.672 212.875C216.973 212.135 218.27 211.395 219.566 210.655C220.861 209.909 222.159 209.167 223.459 208.427C224.754 207.687 226.05 206.947 227.345 206.207C227.814 205.835 228.252 205.436 228.547 204.987C229.159 204.064 229.333 203.039 229.129 201.912C228.925 200.785 228.343 199.565 227.443 198.269C226.536 196.964 225.319 195.584 223.837 194.135C223.104 193.415 222.295 192.678 221.433 191.924C220.571 191.17 219.649 190.399 218.674 189.619C217.706 188.84 216.685 188.044 215.619 187.239C214.553 186.434 213.442 185.612 212.293 184.79C211.151 183.96 209.965 183.13 208.755 182.283C207.545 181.444 206.306 180.597 205.043 179.741C203.78 178.886 202.503 178.021 201.203 177.157C199.902 176.293 198.594 175.429 197.271 174.556C195.956 173.684 194.625 172.811 193.302 171.947C191.972 171.075 190.649 170.202 189.326 169.329C190.853 169.149 192.377 168.971 193.9 168.796C195.427 168.615 196.951 168.434 198.473 168.253C199.915 168.875 201.356 169.496 202.798 170.117C204.239 170.738 205.681 171.36 207.122 171.981C208.563 172.602 210.002 173.224 211.439 173.845C212.88 174.466 214.322 175.087 215.763 175.709C217.205 176.33 218.646 176.951 220.087 177.572C221.529 178.194 222.968 178.815 224.404 179.436C225.846 180.058 227.287 180.679 228.728 181.3C230.17 181.921 231.611 182.543 233.053 183.164C234.494 183.785 235.936 184.406 237.377 185.028C238.819 185.649 240.257 186.27 241.694 186.891C243.135 187.507 244.577 188.126 246.018 188.747C247.46 189.368 248.901 189.989 250.343 190.611C251.784 191.232 253.225 191.853 254.667 192.474C256.108 193.09 257.55 193.708 258.991 194.33C260.433 194.951 261.874 195.572 263.315 196.194C264.752 196.809 266.191 197.428 267.632 198.049C266.266 199.133 264.898 200.22 263.527 201.311C262.161 202.395 260.793 203.479 259.422 204.564C258.051 205.654 256.683 206.741 255.317 207.825C253.946 208.915 252.575 210.003 251.204 211.087C249.839 212.177 248.47 213.267 247.099 214.357C245.728 215.442 244.36 216.529 242.994 217.619C241.623 218.709 240.252 219.799 238.882 220.889C237.511 221.979 236.14 223.069 234.769 224.159C233.403 225.249 232.035 226.339 230.664 227.429C229.293 228.519 227.922 229.609 226.551 230.699C225.18 231.789 223.809 232.879 222.439 233.969C221.073 235.06 219.704 236.152 218.333 237.248C216.963 238.338 215.592 239.428 214.221 240.518C212.85 241.614 211.479 242.707 210.108 243.797C208.737 244.893 207.366 245.985 205.996 247.075C204.625 248.171 203.254 249.264 201.883 250.354C200.802 249.829 199.743 249.295 198.7 248.761C197.664 248.228 196.636 247.685 195.638 247.135C194.633 246.593 193.65 246.042 192.69 245.491C191.722 244.932 190.777 244.373 189.855 243.814C188.925 243.246 188.018 242.679 187.133 242.111C186.241 241.535 185.379 240.959 184.525 240.383C182.824 239.214 181.206 238.036 179.657 236.841C178.107 235.638 176.64 234.427 175.241 233.199C173.85 231.962 172.527 230.708 171.28 229.446C170.033 228.175 168.868 226.887 167.772 225.591C166.676 224.286 165.655 222.965 164.71 221.626C163.765 220.296 162.896 218.94 162.095 217.568C161.301 216.196 160.583 214.806 159.932 213.4C159.282 211.994 158.708 210.57 158.209 209.13C157.71 207.69 157.279 206.233 156.931 204.767C156.576 203.293 156.296 201.802 156.084 200.294C155.88 198.786 155.744 197.261 155.684 195.719C155.623 194.177 155.638 192.618 155.722 191.051C155.767 190.263 155.827 189.467 155.903 188.671C155.986 187.874 156.077 187.078 156.19 186.273Z" fill="url(#paint2_linear_131_136)"/>
<path d="M325.511 230.132C324.219 228.81 322.896 227.506 321.558 226.218C320.212 224.939 318.851 223.676 317.468 222.439C316.092 221.202 314.693 219.991 313.272 218.796C311.858 217.602 310.422 216.433 308.978 215.289C307.526 214.137 306.067 213.01 304.593 211.909C303.119 210.799 301.629 209.715 300.133 208.656C298.636 207.597 297.131 206.555 295.619 205.538C294.107 204.521 292.58 203.522 291.053 202.547C289.526 201.573 287.999 200.624 286.464 199.692C284.922 198.761 283.387 197.846 281.845 196.956C280.31 196.067 278.768 195.202 277.226 194.355C275.691 193.508 274.149 192.678 272.622 191.873C271.087 191.068 269.552 190.289 268.033 189.526C266.506 188.755 264.986 188.018 263.474 187.298C261.962 186.57 260.465 185.875 258.968 185.189C257.479 184.511 255.997 183.85 254.531 183.215C253.056 182.571 251.605 181.952 250.161 181.351C248.717 180.758 247.296 180.173 245.882 179.614C244.476 179.064 243.077 178.521 241.709 178.005C240.333 177.488 238.98 176.988 237.649 176.505C236.311 176.031 235.003 175.573 233.718 175.133C232.433 174.692 231.17 174.277 229.93 173.87C228.691 173.472 227.481 173.091 226.302 172.735C225.115 172.371 223.966 172.032 222.839 171.71C220.594 171.066 218.469 170.499 216.481 170.007C214.5 169.516 212.656 169.101 210.97 168.762C209.284 168.423 207.757 168.16 206.411 167.965C205.058 167.771 203.886 167.652 202.903 167.61C200.635 167.652 198.345 167.669 196.16 168.067C193.882 168.485 191.604 168.906 189.326 169.329C190.581 169.558 191.813 169.804 193.038 170.066C194.255 170.338 195.457 170.617 196.644 170.922C197.831 171.227 199.002 171.549 200.152 171.888C201.301 172.227 202.435 172.583 203.554 172.947C205.784 173.684 207.946 174.472 210.025 175.302C212.104 176.132 214.107 176.996 216.02 177.886C217.94 178.776 219.77 179.69 221.509 180.605C223.255 181.52 224.903 182.444 226.46 183.35C228.01 184.265 229.469 185.163 230.83 186.027C232.183 186.9 233.438 187.739 234.587 188.544C236.077 189.577 237.218 190.738 238.02 191.975C238.813 193.203 239.267 194.508 239.358 195.812C239.456 197.126 239.199 198.456 238.594 199.726C237.982 201.006 237.014 202.234 235.691 203.361C234.512 204.36 233.242 205.369 231.904 206.377C230.558 207.385 229.144 208.393 227.678 209.393C226.203 210.392 224.684 211.392 223.119 212.375C221.562 213.358 219.974 214.323 218.364 215.281C216.753 216.23 215.128 217.17 213.51 218.085C211.892 218.991 210.282 219.881 208.687 220.737C207.099 221.601 205.527 222.422 204.007 223.219C202.48 224.007 200.998 224.769 199.577 225.481C198.473 226.031 197.309 226.497 196.099 226.879C194.89 227.251 193.635 227.539 192.357 227.743C191.08 227.946 189.787 228.065 188.487 228.107C187.186 228.141 185.886 228.09 184.616 227.963C183.338 227.836 182.083 227.633 180.866 227.345C179.656 227.057 178.485 226.692 177.381 226.252C176.277 225.803 175.234 225.286 174.281 224.693C173.321 224.1 172.459 223.439 171.696 222.702C170.758 221.796 169.881 220.855 169.05 219.898C168.226 218.941 167.455 217.966 166.729 216.967C166.003 215.975 165.33 214.967 164.703 213.951C164.075 212.934 163.493 211.909 162.956 210.884C162.42 209.867 161.921 208.842 161.467 207.825C161.006 206.809 160.59 205.792 160.212 204.801C159.827 203.801 159.486 202.819 159.169 201.861C158.859 200.895 158.579 199.955 158.33 199.049C158.08 198.134 157.853 197.253 157.664 196.405C157.468 195.558 157.294 194.745 157.15 193.974C156.855 192.432 156.651 191.068 156.508 189.924C156.228 187.646 156.19 186.273 156.19 186.273C154.734 186.928 153.277 187.586 151.821 188.247C150.359 188.902 148.9 189.557 147.443 190.212C145.591 191.043 144.578 192.381 144.276 193.788C144.707 195.143 145.137 196.473 145.576 197.795C146.014 199.108 146.453 200.404 146.891 201.683C147.33 202.963 147.776 204.225 148.222 205.47C148.668 206.716 149.114 207.936 149.568 209.139C150.014 210.35 150.467 211.536 150.921 212.705C151.374 213.874 151.828 215.027 152.282 216.17C152.743 217.305 153.196 218.415 153.658 219.517C154.119 220.618 154.58 221.702 155.041 222.77C155.502 223.837 155.971 224.888 156.432 225.921C156.893 226.955 157.362 227.971 157.831 228.971C158.292 229.971 158.761 230.954 159.229 231.919C159.698 232.885 160.167 233.834 160.635 234.766C161.104 235.706 161.573 236.621 162.042 237.528C162.51 238.434 162.979 239.315 163.448 240.188C163.917 241.06 164.393 241.925 164.862 242.763C165.33 243.602 165.799 244.432 166.268 245.246C166.736 246.059 167.205 246.855 167.674 247.635C168.143 248.414 168.611 249.185 169.08 249.939C170.01 251.447 170.94 252.896 171.87 254.294C172.8 255.683 173.722 257.03 174.637 258.318C175.551 259.597 176.466 260.834 177.366 262.02C178.273 263.197 179.173 264.333 180.057 265.417C180.942 266.501 181.826 267.535 182.688 268.526C183.557 269.509 184.419 270.449 185.266 271.347C186.105 272.245 186.944 273.101 187.761 273.906C188.585 274.719 189.394 275.49 190.18 276.219C190.974 276.947 191.752 277.633 192.508 278.277C194.036 279.582 195.487 280.726 196.863 281.734C198.239 282.75 199.539 283.623 200.749 284.377C201.958 285.139 203.07 285.775 204.09 286.317C206.116 287.393 207.742 288.062 208.853 288.469C209.964 288.867 210.569 289.003 210.569 289.003C210.569 289.003 211.794 289.02 214.417 288.698C215.733 288.537 217.396 288.291 219.437 287.91C220.45 287.723 221.562 287.503 222.771 287.249C223.981 286.986 225.289 286.69 226.687 286.351C228.093 286.012 229.598 285.622 231.201 285.19C232.803 284.758 234.512 284.275 236.326 283.742C238.133 283.199 240.046 282.606 242.072 281.954C244.098 281.302 246.222 280.59 248.468 279.811C249.586 279.421 250.736 279.014 251.907 278.599C253.087 278.176 254.289 277.735 255.521 277.278C256.753 276.82 258.008 276.337 259.301 275.846C260.586 275.354 261.902 274.838 263.247 274.312C264.593 273.779 265.969 273.228 267.375 272.652C268.781 272.084 270.21 271.491 271.677 270.881C273.143 270.271 274.633 269.636 276.152 268.984C277.679 268.331 279.229 267.662 280.817 266.967C282.397 266.264 283.924 265.578 285.398 264.9C286.872 264.223 288.294 263.545 289.662 262.884C291.03 262.215 292.353 261.562 293.616 260.91C294.886 260.266 296.103 259.622 297.275 258.995C298.447 258.36 299.573 257.733 300.647 257.123C301.728 256.505 302.756 255.903 303.746 255.302C304.737 254.709 305.682 254.116 306.581 253.54C307.481 252.955 308.343 252.387 309.167 251.828C310.807 250.701 312.289 249.617 313.627 248.567C314.958 247.516 316.152 246.508 317.211 245.542C318.277 244.568 319.206 243.644 320.023 242.755C320.847 241.865 321.55 241.018 322.155 240.213C323.364 238.612 324.181 237.172 324.725 235.927C325.262 234.681 325.534 233.622 325.648 232.767C325.882 231.047 325.511 230.132 325.511 230.132Z" fill="url(#paint3_linear_131_136)"/>
<path d="M294.743 214.92C294.743 214.92 295.283 215.583 296.115 216.61C296.947 217.647 298.079 219.047 299.257 220.513C299.405 220.696 299.554 220.881 299.703 221.065L300.601 222.175C301.346 223.096 302.077 224.001 302.735 224.818C303.788 226.125 304.647 227.199 305.081 227.749C305.851 228.842 305.691 230.429 305.612 232.343C305.355 233.305 304.93 234.342 304.328 235.443C303.727 236.536 302.956 237.703 302.018 238.898C301.31 239.794 300.354 240.99 299.257 242.343C298.15 243.707 296.902 245.229 295.61 246.788C294.327 248.347 292.999 249.944 291.733 251.447C290.476 252.96 289.281 254.37 288.272 255.565L288.225 255.505C286.863 257.108 285.818 258.312 285.369 258.805C284.449 259.785 283.201 261.214 281.129 262.409C280.094 263.007 278.855 263.539 277.35 263.931C275.845 264.323 274.075 264.556 271.977 264.566C270.464 264.575 268.897 264.575 267.33 264.584C265.773 264.594 264.215 264.594 262.745 264.603C262.763 266.054 262.781 267.507 262.799 268.964C262.834 271.625 260.648 270.962 257.984 270.934C256.727 270.199 255.47 269.462 254.213 268.721C252.956 267.986 251.699 267.249 250.442 266.508C249.106 265.714 247.344 264.678 245.583 263.641C243.822 262.605 242.051 261.559 240.715 260.775C239.464 260.034 238.21 259.297 236.953 258.562C235.696 257.821 234.442 257.081 233.191 256.34C231.855 255.555 231.182 254.51 231.173 253.464C231.156 252.409 231.811 251.363 233.138 250.56C234.371 249.807 235.608 249.054 236.847 248.301C238.086 247.547 239.325 246.794 240.564 246.041C241.874 245.238 243.618 244.183 245.353 243.118C247.088 242.063 248.831 241.008 250.15 240.196C251.383 239.449 252.62 238.699 253.859 237.946C255.092 237.192 256.325 236.439 257.559 235.686C260.196 234.08 262.374 234.939 262.409 237.6C262.427 239.131 262.445 240.66 262.462 242.185C262.68 242.185 262.898 242.185 263.117 242.185L264.432 242.183C266.404 242.18 268.353 242.173 270.012 242.166C271.936 242.158 273.472 242.15 274.219 242.148L274.5 242.147C276.164 242.138 276.845 241.559 276.606 240.7L276.63 240.729L276.602 240.644C276.512 240.397 276.355 240.131 276.12 239.85C275.854 239.542 275.075 238.637 274.031 237.441C273.199 236.48 272.207 235.331 271.181 234.145C270.145 232.96 269.092 231.746 268.136 230.644C266.224 228.45 264.737 226.732 264.737 226.732C263.914 225.779 263.755 224.687 264.162 223.688C264.569 222.679 265.551 221.774 266.994 221.204C268.634 220.563 270.272 219.919 271.906 219.271C273.547 218.63 275.184 217.986 276.819 217.339C278.453 216.691 280.091 216.047 281.731 215.406C283.366 214.765 285 214.12 286.635 213.473C289.538 212.334 293.176 212.987 294.743 214.92ZM203.398 208.73C204.832 209.234 205.938 210.121 206.372 211.241L206.99 212.826L207.602 214.407L208.842 217.581C209.236 218.6 209.755 219.919 210.278 221.266L210.592 222.076C211.114 223.423 211.626 224.742 212.028 225.761C212.441 226.819 212.854 227.877 213.267 228.935C213.68 229.994 214.09 231.049 214.498 232.101C215.374 234.351 213.117 235.135 209.479 233.837C207.083 232.991 204.69 232.141 202.301 231.288C201.008 232.679 199.592 234.201 198.282 235.611C196.981 237.021 195.786 238.31 194.945 239.206C194.424 239.745 193.903 240.284 193.381 240.824C192.966 241.625 193.487 242.361 195.521 242.353C196.477 242.343 198.619 242.334 201.292 242.325C202.628 242.325 204.097 242.315 205.62 242.315C207.133 242.306 208.709 242.297 210.258 242.297C213.154 242.288 215.941 242.271 218.087 242.261L218.507 242.259L219.185 242.259L219.293 242.259L219.806 242.258C220.723 242.257 221.413 242.254 221.794 242.252L221.937 242.251L221.967 242.251L222.106 242.25C222.12 242.25 222.127 242.25 222.127 242.25C225.458 242.241 228.205 243.926 228.336 246.033L228.341 246.181L228.359 249.86C228.364 251.08 228.37 252.303 228.376 253.529C228.382 254.749 228.388 255.973 228.394 257.199C228.4 258.419 228.406 259.642 228.412 260.868C228.42 262.994 225.749 264.746 222.455 264.842L222.225 264.846L221.571 264.846C221.535 264.846 221.497 264.846 221.457 264.847L220.907 264.847L220.828 264.847L220.396 264.848C219.657 264.85 218.691 264.852 217.489 264.855C215.896 264.865 213.869 264.874 211.417 264.883C208.957 264.893 206.062 264.902 202.708 264.911C199.344 264.93 196.698 264.715 194.591 264.36C192.485 264.015 190.918 263.52 189.723 262.969C187.342 261.877 186.448 260.542 185.713 259.645C185.448 259.318 184.811 258.581 183.934 257.563C183.058 256.536 181.943 255.229 180.695 253.781L180.762 253.86C179.793 252.745 178.752 251.542 177.693 250.31L177.163 249.692C175.924 248.254 174.667 246.788 173.49 245.397C172.304 244.005 171.197 242.698 170.242 241.559C169.286 240.42 168.498 239.458 167.94 238.767C167.082 237.694 166.391 236.666 165.851 235.695C165.311 234.734 164.922 233.819 164.692 232.988C164.24 231.307 164.391 229.916 165.117 228.898C165.533 228.328 166.542 227.059 167.79 225.518C168.418 224.743 169.1 223.903 169.799 223.044C170.271 222.471 170.743 221.89 171.21 221.32L171.906 220.476L166.63 218.59C164.65 217.336 164.747 215.755 166.213 215.017L166.338 214.958L173.667 213.473L176.11 212.978C177.845 212.623 180.128 212.156 182.412 211.699C184.696 211.232 186.988 210.765 188.714 210.41C190.343 210.081 191.971 209.751 193.6 209.421C195.223 209.091 196.848 208.761 198.477 208.431C200.212 208.076 201.973 208.216 203.398 208.73ZM255.222 181.885C258.957 181.895 261.781 182.25 263.914 182.894C266.047 183.529 267.49 184.435 268.481 185.443C268.906 185.9 269.685 186.731 270.641 187.768C271.597 188.804 272.721 190.037 273.845 191.269C275.898 190.491 277.949 189.716 279.996 188.944C283.59 187.581 285.874 188.328 285.068 190.597C284.691 191.668 284.313 192.735 283.935 193.8C283.558 194.864 283.18 195.929 282.802 196.993C282.404 198.132 281.882 199.626 281.351 201.12C280.828 202.614 280.297 204.117 279.899 205.247C279.521 206.318 279.144 207.385 278.766 208.45C278.394 209.514 278.02 210.578 277.642 211.643C277.235 212.782 276.155 213.678 274.739 214.211C273.411 214.71 271.796 214.889 270.162 214.64L269.835 214.584L264.914 213.669C263.28 213.364 261.645 213.059 260.01 212.754C258.258 212.427 255.957 212.007 253.655 211.578C251.354 211.148 249.062 210.719 247.318 210.392C245.677 210.087 244.04 209.782 242.405 209.477C240.771 209.172 239.133 208.867 237.493 208.562C234.014 207.908 234.094 206.274 237.705 204.911C239.712 204.151 241.721 203.395 243.733 202.642C242.618 201.335 241.503 200.028 240.591 198.944C240.021 198.267 239.534 197.682 239.176 197.244L238.977 197C238.854 196.849 238.754 196.725 238.679 196.629C238.449 196.33 238.192 196.106 237.918 195.929C237.916 195.926 237.913 195.923 237.911 195.921C236.903 195.3 235.64 195.474 234.607 196.582C234.342 196.853 233.448 197.796 232.253 199.047C231.275 200.078 230.096 201.316 228.9 202.571L228.102 203.408C226.633 204.948 225.199 206.451 224.137 207.572C223.114 208.641 222.431 209.354 222.371 209.416L222.21 209.578C220.376 211.322 216.653 211.873 213.807 210.803C212.167 210.186 210.523 209.567 208.877 208.945C207.237 208.328 205.593 207.709 203.947 207.086C202.307 206.464 200.663 205.845 199.017 205.228C197.376 204.606 195.733 203.983 194.087 203.361C192.626 202.81 191.67 201.932 191.307 200.961C190.945 199.99 191.175 198.926 192.086 198.001C192.086 198.001 194.008 196.045 196.348 193.684L196.538 193.492L198.034 191.991C198.791 191.232 199.551 190.466 200.274 189.738C201.486 188.534 202.593 187.441 203.389 186.666C204.425 185.658 205.567 184.873 206.779 184.248C208.001 183.632 209.284 183.183 210.594 182.857C213.035 182.25 215.583 182.077 217.99 182.049L218.543 182.044L219.073 182.043C220.498 182.04 222.833 182.024 225.668 182.016L225.622 182.016L225.597 181.988C227.721 181.98 230.124 181.971 232.631 181.963L233.386 181.96C236.165 181.951 239.06 181.942 241.83 181.923C244.601 181.914 247.256 181.904 249.566 181.904C251.587 181.896 253.345 181.888 254.677 181.886L255.222 181.885Z" fill="black" fill-opacity="0.08"/>
<path d="M237.493 199.689C239.133 199.994 240.771 200.299 242.405 200.604C244.04 200.909 245.677 201.214 247.318 201.519C249.061 201.846 251.354 202.276 253.655 202.705C255.957 203.135 258.258 203.555 260.01 203.881C261.645 204.187 263.279 204.492 264.914 204.797C266.554 205.102 268.195 205.407 269.835 205.712C271.579 206.038 273.323 205.87 274.739 205.338C276.155 204.806 277.235 203.91 277.642 202.77C278.02 201.706 278.394 200.642 278.766 199.577C279.144 198.513 279.521 197.445 279.899 196.374C280.297 195.245 280.828 193.741 281.351 192.247C281.882 190.753 282.404 189.26 282.802 188.12C283.18 187.056 283.558 185.992 283.935 184.927C284.313 183.863 284.691 182.795 285.068 181.724C285.874 179.456 283.59 178.709 279.996 180.072C277.949 180.844 275.898 181.619 273.845 182.397C272.721 181.164 271.597 179.932 270.641 178.895C269.685 177.859 268.906 177.028 268.481 176.57C267.49 175.562 266.047 174.656 263.914 174.021C261.781 173.377 258.957 173.022 255.222 173.013C253.841 173.013 251.876 173.022 249.566 173.032C247.256 173.032 244.6 173.041 241.83 173.05C239.06 173.069 236.165 173.078 233.386 173.088C230.607 173.097 227.934 173.106 225.597 173.116C226.624 174.273 227.65 175.434 228.677 176.598C229.704 177.762 230.731 178.923 231.757 180.081C232.784 181.245 233.811 182.409 234.838 183.573C235.864 184.731 236.891 185.892 237.918 187.056C238.192 187.233 238.449 187.457 238.679 187.756C238.98 188.139 239.679 188.989 240.591 190.072C241.503 191.155 242.618 192.462 243.733 193.769C241.721 194.523 239.712 195.279 237.705 196.038C234.094 197.402 234.014 199.036 237.493 199.689Z" fill="#2EEAB8"/>
<path d="M203.389 177.793C202.593 178.568 201.486 179.661 200.274 180.865C199.07 182.079 197.76 183.396 196.538 184.619C194.113 187.065 192.086 189.129 192.086 189.129C191.175 190.053 190.945 191.118 191.307 192.089C191.67 193.06 192.626 193.937 194.087 194.488C195.733 195.111 197.376 195.733 199.017 196.356C200.663 196.972 202.307 197.591 203.947 198.214C205.593 198.836 207.237 199.456 208.877 200.072C210.523 200.694 212.167 201.314 213.807 201.93C216.737 203.032 220.596 202.415 222.366 200.548C222.366 200.548 223.066 199.82 224.137 198.699C225.199 197.579 226.633 196.076 228.102 194.535C229.562 193.004 231.058 191.435 232.253 190.174C233.448 188.923 234.342 187.98 234.607 187.709C235.661 186.58 236.953 186.421 237.971 187.084C236.95 185.926 235.926 184.765 234.9 183.601C233.873 182.437 232.846 181.276 231.819 180.118C230.793 178.954 229.769 177.793 228.748 176.636C227.721 175.472 226.695 174.308 225.668 173.144C222.446 173.153 219.87 173.172 218.543 173.172C215.976 173.181 213.223 173.33 210.594 173.984C209.284 174.311 208.001 174.759 206.779 175.375C205.567 176.001 204.425 176.785 203.389 177.793Z" fill="#23B991"/>
<path d="M167.94 229.895C168.498 230.586 169.286 231.548 170.242 232.687C171.197 233.826 172.304 235.133 173.49 236.524C174.667 237.916 175.924 239.381 177.163 240.819C178.402 242.267 179.633 243.686 180.757 244.993C181.937 243.773 183.12 242.55 184.306 241.324C185.486 240.104 186.669 238.883 187.855 237.663C189.036 236.443 190.216 235.223 191.396 234.003C192.582 232.777 193.765 231.554 194.945 230.334C195.786 229.437 196.981 228.149 198.282 226.739C199.592 225.329 201.008 223.807 202.301 222.416C204.69 223.269 207.083 224.118 209.479 224.965C213.117 226.263 215.374 225.478 214.498 223.228C214.09 222.176 213.68 221.121 213.267 220.063C212.854 219.005 212.441 217.947 212.028 216.888C211.586 215.768 211.01 214.283 210.435 212.799C209.86 211.314 209.275 209.829 208.842 208.709C208.429 207.651 208.016 206.593 207.602 205.534C207.195 204.482 206.785 203.427 206.372 202.369C205.938 201.249 204.832 200.362 203.398 199.857C201.973 199.344 200.212 199.204 198.477 199.559C196.848 199.889 195.223 200.218 193.6 200.548C191.971 200.878 190.343 201.208 188.714 201.538C186.988 201.893 184.696 202.36 182.412 202.827C180.128 203.284 177.845 203.751 176.11 204.106C174.481 204.436 172.853 204.766 171.224 205.096C169.595 205.425 167.967 205.755 166.338 206.085C164.754 206.795 164.594 208.429 166.63 209.717C168.389 210.346 170.147 210.975 171.906 211.604C171.215 212.435 170.507 213.312 169.799 214.171C169.1 215.03 168.418 215.871 167.79 216.646C166.542 218.186 165.533 219.456 165.117 220.026C164.391 221.043 164.24 222.435 164.692 224.115C164.922 224.946 165.311 225.861 165.851 226.823C166.391 227.794 167.082 228.821 167.94 229.895Z" fill="#2EEAB8"/>
<path d="M194.857 230.25C193.677 231.476 192.496 232.699 191.316 233.919C190.136 235.139 188.956 236.359 187.776 237.579C186.596 238.799 185.415 240.022 184.235 241.249C183.055 242.469 181.875 243.689 180.695 244.909C181.943 246.356 183.058 247.663 183.934 248.69C184.811 249.708 185.448 250.446 185.713 250.773C186.448 251.669 187.342 253.004 189.723 254.097C190.918 254.647 192.485 255.142 194.591 255.488C196.698 255.843 199.344 256.057 202.708 256.039C206.062 256.029 208.957 256.02 211.417 256.011C213.869 256.001 215.896 255.992 217.489 255.983C220.693 255.973 222.225 255.973 222.225 255.973C225.624 255.955 228.421 254.171 228.412 251.996C228.406 250.769 228.4 249.546 228.394 248.326C228.388 247.1 228.382 245.877 228.376 244.657C228.37 243.43 228.364 242.207 228.359 240.987C228.353 239.761 228.347 238.535 228.341 237.308C228.332 235.133 225.535 233.368 222.127 233.377C222.127 233.377 220.702 233.387 218.507 233.387C216.312 233.396 213.347 233.415 210.258 233.424C208.709 233.424 207.133 233.433 205.62 233.443C204.097 233.443 202.628 233.452 201.292 233.452C198.619 233.461 196.477 233.471 195.521 233.48C193.131 233.489 192.83 232.472 193.68 231.529C193.795 231.398 194.228 230.931 194.857 230.25Z" fill="#23B991"/>
<path d="M276.642 231.893C277.61 233.125 278.577 234.358 279.545 235.59C280.519 236.823 281.489 238.055 282.457 239.288C283.425 240.527 284.393 241.762 285.36 242.995C286.334 244.227 287.305 245.46 288.272 246.692C289.281 245.497 290.476 244.087 291.733 242.574C292.999 241.071 294.327 239.475 295.61 237.915C296.902 236.356 298.15 234.834 299.257 233.471C300.354 232.117 301.31 230.922 302.018 230.025C302.957 228.83 303.727 227.663 304.328 226.571C304.93 225.469 305.355 224.432 305.612 223.471C305.692 221.557 305.851 219.969 305.081 218.877C304.647 218.326 303.789 217.252 302.735 215.945C301.682 214.638 300.443 213.106 299.257 211.641C298.08 210.175 296.947 208.774 296.115 207.738C295.283 206.711 294.743 206.048 294.743 206.048C293.176 204.115 289.538 203.461 286.635 204.6C285 205.248 283.366 205.892 281.731 206.533C280.091 207.174 278.453 207.819 276.819 208.466C275.184 209.113 273.547 209.758 271.906 210.399C270.272 211.046 268.634 211.69 266.994 212.332C265.551 212.901 264.569 213.807 264.162 214.815C263.755 215.814 263.914 216.907 264.737 217.859C264.737 217.859 266.224 219.577 268.136 221.771C269.092 222.873 270.145 224.087 271.181 225.273C272.207 226.459 273.199 227.607 274.031 228.569C275.075 229.764 275.854 230.67 276.12 230.978C276.394 231.305 276.562 231.613 276.642 231.893Z" fill="#2EEAB8"/>
<path d="M285.369 249.932C285.821 249.437 286.874 248.224 288.246 246.608C287.272 245.376 286.302 244.143 285.334 242.911C284.36 241.684 283.389 240.455 282.422 239.223C281.454 237.99 280.483 236.758 279.51 235.525C278.542 234.293 277.574 233.06 276.607 231.828C276.846 232.687 276.164 233.265 274.5 233.275C273.925 233.275 272.225 233.284 270.012 233.293C267.8 233.303 265.073 233.312 262.462 233.312C262.445 231.787 262.427 230.259 262.409 228.728C262.374 226.066 260.196 225.207 257.559 226.813C256.325 227.567 255.092 228.32 253.859 229.073C252.62 229.826 251.384 230.576 250.15 231.323C248.831 232.136 247.088 233.191 245.353 234.246C243.618 235.31 241.874 236.365 240.564 237.168C239.325 237.922 238.086 238.675 236.847 239.428C235.608 240.181 234.372 240.934 233.138 241.688C231.811 242.491 231.156 243.536 231.173 244.591C231.182 245.637 231.855 246.683 233.191 247.467C234.442 248.208 235.696 248.949 236.953 249.689C238.21 250.424 239.464 251.162 240.715 251.902C242.051 252.687 243.822 253.732 245.583 254.769C247.344 255.805 249.106 256.842 250.442 257.635C251.699 258.376 252.956 259.114 254.213 259.848C255.47 260.589 256.727 261.327 257.984 262.061C260.648 262.089 262.834 262.752 262.799 260.091C262.781 258.634 262.763 257.181 262.746 255.731C264.215 255.721 265.773 255.721 267.33 255.712C268.897 255.703 270.464 255.703 271.977 255.693C274.075 255.684 275.845 255.45 277.35 255.058C278.855 254.666 280.094 254.134 281.129 253.536C283.201 252.341 284.449 250.913 285.369 249.932Z" fill="#23B991"/>
<path fill-rule="evenodd" clip-rule="evenodd" d="M440.385 197.714L434.425 201.187L428.426 197.714L434.386 194.242L440.385 197.714Z" fill="#573C27"/>
<path fill-rule="evenodd" clip-rule="evenodd" d="M440.385 197.714L440.334 221.901L434.374 225.373L434.425 201.186L440.385 197.714Z" fill="#4C3624"/>
<path fill-rule="evenodd" clip-rule="evenodd" d="M434.425 201.186L434.374 225.373L428.375 221.901L428.426 197.714L434.425 201.186Z" fill="#32251A"/>
<path fill-rule="evenodd" clip-rule="evenodd" d="M469.684 139.421L434.529 159.94L399.076 139.422L434.299 118.903L469.684 139.421Z" fill="#018FAA"/>
<path fill-rule="evenodd" clip-rule="evenodd" d="M469.684 139.421V191.588L434.529 212.106V159.94L469.684 139.421Z" fill="#00839B"/>
<path fill-rule="evenodd" clip-rule="evenodd" d="M434.529 159.94V212.106L399.076 191.588V139.422L434.529 159.94Z" fill="#01768C"/>
<path fill-rule="evenodd" clip-rule="evenodd" d="M77.4861 258.934L71.526 262.406L65.5266 258.934L71.4867 255.462L77.4861 258.934Z" fill="#573C27"/>
<path fill-rule="evenodd" clip-rule="evenodd" d="M77.4861 258.934L77.4352 283.121L71.4751 286.593L71.526 262.406L77.4861 258.934Z" fill="#4C3624"/>
<path fill-rule="evenodd" clip-rule="evenodd" d="M71.5261 262.406L71.4752 286.593L65.4758 283.121L65.5267 258.934L71.5261 262.406Z" fill="#32251A"/>
<path fill-rule="evenodd" clip-rule="evenodd" d="M106.785 200.641L71.63 221.16L36.177 200.642L71.4003 180.123L106.785 200.641Z" fill="#087EB1"/>
<path fill-rule="evenodd" clip-rule="evenodd" d="M106.785 200.641V252.808L71.6301 273.326V221.16L106.785 200.641Z" fill="#0772A1"/>
<path fill-rule="evenodd" clip-rule="evenodd" d="M71.63 221.16V273.326L36.177 252.808V200.642L71.63 221.16Z" fill="#076892"/>
<path fill-rule="evenodd" clip-rule="evenodd" d="M140.33 120.524L134.369 123.996L128.37 120.524L134.33 117.052L140.33 120.524Z" fill="#573C27"/>
<path fill-rule="evenodd" clip-rule="evenodd" d="M140.33 120.524L140.279 144.711L134.319 148.182L134.37 123.996L140.33 120.524Z" fill="#4C3624"/>
<path fill-rule="evenodd" clip-rule="evenodd" d="M134.37 123.996L134.319 148.182L128.319 144.711L128.37 120.524L134.37 123.996Z" fill="#32251A"/>
<path fill-rule="evenodd" clip-rule="evenodd" d="M169.628 62.2309L134.474 82.7495L99.0205 62.2316L134.244 41.7129L169.628 62.2309Z" fill="#09BFAD"/>
<path fill-rule="evenodd" clip-rule="evenodd" d="M169.629 62.231V114.398L134.474 134.916V82.7496L169.629 62.231Z" fill="#07AE9E"/>
<path fill-rule="evenodd" clip-rule="evenodd" d="M134.474 82.7495V134.916L99.0205 114.398V62.2316L134.474 82.7495Z" fill="#069E8F"/>
<path fill-rule="evenodd" clip-rule="evenodd" d="M394.948 288.645L389.435 291.857L383.886 288.645L389.399 285.433L394.948 288.645Z" fill="#573C27"/>
<path fill-rule="evenodd" clip-rule="evenodd" d="M394.948 288.645L394.901 311.017L389.388 314.228L389.435 291.857L394.948 288.645Z" fill="#4C3624"/>
<path fill-rule="evenodd" clip-rule="evenodd" d="M389.435 291.857L389.388 314.228L383.839 311.017L383.886 288.645L389.435 291.857Z" fill="#32251A"/>
<path fill-rule="evenodd" clip-rule="evenodd" d="M422.048 262.046L389.531 281.024L356.739 262.046L389.318 243.068L422.048 262.046Z" fill="#E3ED5E"/>
<path fill-rule="evenodd" clip-rule="evenodd" d="M422.048 262.046V282.979L389.531 301.957V281.024L422.048 262.046Z" fill="#D0DA52"/>
<path fill-rule="evenodd" clip-rule="evenodd" d="M389.531 281.024V301.957L356.739 282.979V262.046L389.531 281.024Z" fill="#BEC747"/>
<path fill-rule="evenodd" clip-rule="evenodd" d="M422.048 235.042L389.531 254.021L356.739 235.043L389.318 216.064L422.048 235.042Z" fill="#E3ED5E"/>
<path fill-rule="evenodd" clip-rule="evenodd" d="M422.048 235.042V255.974L389.531 274.953V254.021L422.048 235.042Z" fill="#D0DA52"/>
<path fill-rule="evenodd" clip-rule="evenodd" d="M389.531 254.021V274.953L356.739 255.975V235.042L389.531 254.021Z" fill="#BEC747"/>
<path fill-rule="evenodd" clip-rule="evenodd" d="M411.679 220.71L389.488 233.663L367.108 220.71L389.342 207.758L411.679 220.71Z" fill="#E3ED5E"/>
<path fill-rule="evenodd" clip-rule="evenodd" d="M411.679 220.71V234.996L389.488 247.948V233.662L411.679 220.71Z" fill="#D0DA52"/>
<path fill-rule="evenodd" clip-rule="evenodd" d="M389.488 233.662V247.948L367.108 234.997V220.71L389.488 233.662Z" fill="#BEC747"/>
<path fill-rule="evenodd" clip-rule="evenodd" d="M208.188 348.091L202.675 351.302L197.126 348.091L202.639 344.879L208.188 348.091Z" fill="#573C27"/>
<path fill-rule="evenodd" clip-rule="evenodd" d="M208.188 348.091L208.14 370.463L202.628 373.674L202.675 351.302L208.188 348.091Z" fill="#4C3624"/>
<path fill-rule="evenodd" clip-rule="evenodd" d="M202.675 351.302L202.628 373.674L197.079 370.463L197.126 348.091L202.675 351.302Z" fill="#32251A"/>
<path fill-rule="evenodd" clip-rule="evenodd" d="M235.287 321.491L202.771 340.47L169.979 321.492L202.558 302.514L235.287 321.491Z" fill="#D38AE2"/>
<path fill-rule="evenodd" clip-rule="evenodd" d="M235.287 321.491V342.425L202.771 361.403V340.47L235.287 321.491Z" fill="#C47AD3"/>
<path fill-rule="evenodd" clip-rule="evenodd" d="M202.771 340.47V361.402L169.979 342.424V321.492L202.771 340.47Z" fill="#B36BC1"/>
<path fill-rule="evenodd" clip-rule="evenodd" d="M235.287 294.487L202.771 313.466L169.979 294.488L202.558 275.509L235.287 294.487Z" fill="#D38AE2"/>
<path fill-rule="evenodd" clip-rule="evenodd" d="M235.287 294.488V315.42L202.771 334.399V313.466L235.287 294.488Z" fill="#C47AD3"/>
<path fill-rule="evenodd" clip-rule="evenodd" d="M202.771 313.466V334.399L169.979 315.421V294.488L202.771 313.466Z" fill="#B36BC1"/>
<path fill-rule="evenodd" clip-rule="evenodd" d="M224.919 280.156L202.727 293.108L180.347 280.156L202.581 267.204L224.919 280.156Z" fill="#D38AE2"/>
<path fill-rule="evenodd" clip-rule="evenodd" d="M224.919 280.156V294.441L202.727 307.394V293.108L224.919 280.156Z" fill="#C47AD3"/>
<path fill-rule="evenodd" clip-rule="evenodd" d="M202.727 293.108V307.394L180.347 294.442V280.156L202.727 293.108Z" fill="#B36BC1"/>
<path fill-rule="evenodd" clip-rule="evenodd" d="M275.584 81.9372L270.297 85.017L264.976 81.9372L270.263 78.8574L275.584 81.9372Z" fill="#573C27"/>
<path fill-rule="evenodd" clip-rule="evenodd" d="M275.584 81.9373L275.539 103.39L270.252 106.47L270.298 85.0171L275.584 81.9373Z" fill="#4C3624"/>
<path fill-rule="evenodd" clip-rule="evenodd" d="M270.298 85.0171L270.252 106.47L264.931 103.39L264.976 81.9373L270.298 85.0171Z" fill="#32251A"/>
<path fill-rule="evenodd" clip-rule="evenodd" d="M301.571 76.5035L270.39 94.7024V15.4248L301.571 76.5035Z" fill="#07AE9E"/>
<path fill-rule="evenodd" clip-rule="evenodd" d="M270.39 15.4248V94.7024L238.944 76.5035L270.39 15.4248Z" fill="#069E8F"/>
<path fill-rule="evenodd" clip-rule="evenodd" d="M301.571 61.0781L270.39 79.2776V0L301.571 61.0781Z" fill="#09BFAD"/>
<path fill-rule="evenodd" clip-rule="evenodd" d="M270.39 0V79.2776L238.944 61.0787L270.39 0Z" fill="#07AE9E"/>
<path fill-rule="evenodd" clip-rule="evenodd" d="M99.445 328.946L94.1586 332.025L88.8367 328.946L94.1238 325.866L99.445 328.946Z" fill="#573C27"/>
<path fill-rule="evenodd" clip-rule="evenodd" d="M99.4451 328.946L99.4 350.399L94.1135 353.478L94.1587 332.025L99.4451 328.946Z" fill="#4C3624"/>
<path fill-rule="evenodd" clip-rule="evenodd" d="M94.1586 332.025L94.1135 353.478L88.7922 350.399L88.8367 328.946L94.1586 332.025Z" fill="#32251A"/>
<path fill-rule="evenodd" clip-rule="evenodd" d="M125.432 323.512L94.2507 341.711V262.433L125.432 323.512Z" fill="#07AE9E"/>
<path fill-rule="evenodd" clip-rule="evenodd" d="M94.2508 262.433V341.711L62.8049 323.512L94.2508 262.433Z" fill="#069E8F"/>
<path fill-rule="evenodd" clip-rule="evenodd" d="M125.432 308.086L94.2507 326.286V247.008L125.432 308.086Z" fill="#09BFAD"/>
<path fill-rule="evenodd" clip-rule="evenodd" d="M94.2508 247.008V326.286L62.8049 308.087L94.2508 247.008Z" fill="#07AE9E"/>
<path fill-rule="evenodd" clip-rule="evenodd" d="M296.827 361.774L291.54 364.853L286.219 361.774L291.506 358.694L296.827 361.774Z" fill="#573C27"/>
<path fill-rule="evenodd" clip-rule="evenodd" d="M296.827 361.773L296.782 383.227L291.495 386.306L291.54 364.853L296.827 361.773Z" fill="#4C3624"/>
<path fill-rule="evenodd" clip-rule="evenodd" d="M291.54 364.853L291.495 386.306L286.174 383.227L286.218 361.773L291.54 364.853Z" fill="#32251A"/>
<path fill-rule="evenodd" clip-rule="evenodd" d="M322.814 356.34L291.633 374.539V295.261L322.814 356.34Z" fill="#007388"/>
<path fill-rule="evenodd" clip-rule="evenodd" d="M291.633 295.261V374.539L260.187 356.34L291.633 295.261Z" fill="#006375"/>
<path fill-rule="evenodd" clip-rule="evenodd" d="M322.814 340.915L291.633 359.114V279.836L322.814 340.915Z" fill="#007E95"/>
<path fill-rule="evenodd" clip-rule="evenodd" d="M291.633 279.836V359.114L260.187 340.915L291.633 279.836Z" fill="#007388"/>
<path fill-rule="evenodd" clip-rule="evenodd" d="M55.7 156.251L50.5132 159.272L45.2922 156.251L50.479 153.229L55.7 156.251Z" fill="#573C27"/>
<path fill-rule="evenodd" clip-rule="evenodd" d="M55.7001 156.25L55.6558 177.299L50.469 180.32L50.5133 159.272L55.7001 156.25Z" fill="#4C3624"/>
<path fill-rule="evenodd" clip-rule="evenodd" d="M50.5133 159.272L50.469 180.32L45.248 177.299L45.2923 156.25L50.5133 159.272Z" fill="#32251A"/>
<path fill-rule="evenodd" clip-rule="evenodd" d="M86.8754 129.72L86.8298 145.833C86.8146 151.202 83.2939 156.565 76.2601 160.663C62.0987 168.912 39.0647 168.912 24.8103 160.663C17.6391 156.513 14.0577 151.065 14.0728 145.625L14.1184 129.512C14.1032 134.952 17.6847 140.401 24.8565 144.551C39.1102 152.8 62.1443 152.8 76.3056 144.551C83.3388 140.453 86.8602 135.091 86.8754 129.72Z" fill="#B36FC1"/>
<path fill-rule="evenodd" clip-rule="evenodd" d="M76.1356 114.679C90.3893 122.928 90.4646 136.302 76.3058 144.551C62.1445 152.799 39.1104 152.799 24.8567 144.551C10.6048 136.303 10.5295 122.928 24.6909 114.679C38.8497 106.431 61.8844 106.431 76.1356 114.679Z" fill="#D38AE2"/>
<path fill-rule="evenodd" clip-rule="evenodd" d="M81.0273 106.373L80.9887 119.897C80.976 124.405 78.021 128.906 72.1173 132.345C60.2313 139.269 40.8977 139.269 28.9334 132.345C22.9145 128.861 19.9082 124.289 19.9214 119.723L19.9594 106.199C19.9468 110.765 22.9531 115.338 28.972 118.821C40.9357 125.745 60.2693 125.745 72.1552 118.821C78.059 115.382 81.0146 110.881 81.0273 106.373Z" fill="#B36FC1"/>
<path fill-rule="evenodd" clip-rule="evenodd" d="M72.0123 93.7485C83.9767 100.672 84.0394 111.899 72.1553 118.821C60.2694 125.745 40.9358 125.745 28.9721 118.821C17.0102 111.899 16.9469 100.673 28.8335 93.7492C40.7175 86.8265 60.0511 86.8259 72.0123 93.7485Z" fill="#D38AE2"/>
<path fill-rule="evenodd" clip-rule="evenodd" d="M74.854 88.0678L74.823 98.8589C74.8129 102.456 72.4552 106.047 67.7442 108.792C58.2597 114.317 42.8328 114.317 33.2862 108.792C28.4829 106.012 26.084 102.363 26.0948 98.7194L26.1252 87.9282C26.115 91.5722 28.5139 95.2213 33.3166 98.0007C42.8632 103.525 58.29 103.525 67.7746 98.0007C72.4856 95.2562 74.8439 91.6648 74.854 88.0678Z" fill="#B36FC1"/>
<path fill-rule="evenodd" clip-rule="evenodd" d="M67.6608 77.9941C77.2074 83.5194 77.258 92.4768 67.7747 98.0008C58.2902 103.525 42.8633 103.525 33.3167 98.0008C23.772 92.4768 23.7214 83.5194 33.206 77.9941C42.6886 72.4701 58.1162 72.4701 67.6608 77.9941Z" fill="#D38AE2"/>
<path fill-rule="evenodd" clip-rule="evenodd" d="M364.607 126.972L359.42 129.993L354.199 126.972L359.386 123.95L364.607 126.972Z" fill="#573C27"/>
<path fill-rule="evenodd" clip-rule="evenodd" d="M364.607 126.971L364.563 148.02L359.376 151.041L359.42 129.993L364.607 126.971Z" fill="#4C3624"/>
<path fill-rule="evenodd" clip-rule="evenodd" d="M359.42 129.993L359.376 151.041L354.155 148.02L354.199 126.971L359.42 129.993Z" fill="#32251A"/>
<path fill-rule="evenodd" clip-rule="evenodd" d="M395.782 100.441L395.737 116.553C395.721 121.923 392.201 127.286 385.167 131.384C371.005 139.633 347.971 139.633 333.717 131.384C326.546 127.234 322.964 121.786 322.98 116.345L323.025 100.233C323.01 105.673 326.591 111.121 333.763 115.272C348.017 123.52 371.051 123.52 385.212 115.272C392.246 111.174 395.767 105.812 395.782 100.441Z" fill="#C679D0"/>
<path fill-rule="evenodd" clip-rule="evenodd" d="M385.042 85.3996C399.296 93.6485 399.371 107.023 385.212 115.271C371.051 123.52 348.017 123.52 333.763 115.271C319.511 107.024 319.436 93.6491 333.597 85.3996C347.756 77.152 370.791 77.152 385.042 85.3996Z" fill="#DA98E3"/>
<path fill-rule="evenodd" clip-rule="evenodd" d="M389.934 77.0943L389.895 90.618C389.883 95.1259 386.928 99.6268 381.024 103.066C369.138 109.99 349.804 109.99 337.84 103.066C331.821 99.5824 328.815 95.0098 328.828 90.4436L328.866 76.9199C328.854 81.4862 331.86 86.0587 337.879 89.5422C349.842 96.4661 369.176 96.4661 381.062 89.5422C386.966 86.1031 389.921 81.6022 389.934 77.0943Z" fill="#C679D0"/>
<path fill-rule="evenodd" clip-rule="evenodd" d="M380.919 64.4695C392.883 71.3934 392.946 82.6196 381.062 89.5422C369.176 96.4661 349.843 96.4661 337.879 89.5422C325.917 82.6196 325.854 71.394 337.74 64.4701C349.624 57.5475 368.958 57.5469 380.919 64.4695Z" fill="#DA98E3"/>
<path fill-rule="evenodd" clip-rule="evenodd" d="M383.761 58.7887L383.73 69.5799C383.72 73.1769 381.362 76.7682 376.651 79.5128C367.166 85.0375 351.74 85.0375 342.193 79.5128C337.39 76.7327 334.991 73.0843 335.002 69.4403L335.032 58.6492C335.022 62.2932 337.421 65.9422 342.223 68.7217C351.77 74.2463 367.197 74.2463 376.681 68.7217C381.392 65.9771 383.751 62.3858 383.761 58.7887Z" fill="#C679D0"/>
<path fill-rule="evenodd" clip-rule="evenodd" d="M376.567 48.715C386.114 54.2403 386.165 63.1977 376.681 68.7217C367.197 74.2464 351.77 74.2464 342.223 68.7217C332.679 63.1977 332.628 54.2403 342.112 48.715C351.595 43.191 367.023 43.191 376.567 48.715Z" fill="#DA98E3"/>
<path fill-rule="evenodd" clip-rule="evenodd" d="M227.66 122.73L222.147 125.942L216.598 122.73L222.111 119.519L227.66 122.73Z" fill="#573C27"/>
<path fill-rule="evenodd" clip-rule="evenodd" d="M227.66 122.73L227.613 145.102L222.1 148.313L222.147 125.942L227.66 122.73Z" fill="#4C3624"/>
<path fill-rule="evenodd" clip-rule="evenodd" d="M222.147 125.942L222.1 148.313L216.551 145.102L216.598 122.73L222.147 125.942Z" fill="#32251A"/>
<path fill-rule="evenodd" clip-rule="evenodd" d="M254.76 96.1307L222.244 115.109L189.451 96.1314L222.03 77.1533L254.76 96.1307Z" fill="#A9D75E"/>
<path fill-rule="evenodd" clip-rule="evenodd" d="M254.76 96.1309V117.064L222.244 136.042V115.11L254.76 96.1309Z" fill="#9CC755"/>
<path fill-rule="evenodd" clip-rule="evenodd" d="M222.244 115.11V136.042L189.451 117.064V96.1315L222.244 115.11Z" fill="#8EB64B"/>
<path fill-rule="evenodd" clip-rule="evenodd" d="M254.76 69.127L222.244 88.1057L189.451 69.1277L222.03 50.1489L254.76 69.127Z" fill="#A9D75E"/>
<path fill-rule="evenodd" clip-rule="evenodd" d="M254.76 69.127V90.0594L222.244 109.038V88.1057L254.76 69.127Z" fill="#9CC755"/>
<path fill-rule="evenodd" clip-rule="evenodd" d="M222.244 88.1057V109.038L189.451 90.0601V69.1277L222.244 88.1057Z" fill="#8EB64B"/>
<path fill-rule="evenodd" clip-rule="evenodd" d="M244.392 54.7951L222.2 67.7476L199.82 54.7951L222.054 41.8433L244.392 54.7951Z" fill="#A9D75E"/>
<path fill-rule="evenodd" clip-rule="evenodd" d="M244.392 54.7949V69.0809L222.2 82.0334V67.7474L244.392 54.7949Z" fill="#9CC755"/>
<path fill-rule="evenodd" clip-rule="evenodd" d="M222.2 67.7474V82.0334L199.82 69.0816V54.7949L222.2 67.7474Z" fill="#8EB64B"/>
<defs>
<linearGradient id="paint0_linear_131_136" x1="-2.81576e-07" y1="181.483" x2="389.952" y2="434.968" gradientUnits="userSpaceOnUse">
<stop stop-color="#7CE2FC"/>
<stop offset="1" stop-color="#76E2DF"/>
</linearGradient>
<linearGradient id="paint1_linear_131_136" x1="4.49487" y1="180.231" x2="390.803" y2="433.762" gradientUnits="userSpaceOnUse">
<stop offset="0.00407015" stop-color="#45C865"/>
<stop offset="1" stop-color="#30B176"/>
</linearGradient>
<linearGradient id="paint2_linear_131_136" x1="200.533" y1="146.542" x2="230.19" y2="386.608" gradientUnits="userSpaceOnUse">
<stop stop-color="#99C0F7"/>
<stop offset="0.00963824" stop-color="#6F8FBD"/>
<stop offset="1" stop-color="#5A7EF7"/>
</linearGradient>
<linearGradient id="paint3_linear_131_136" x1="217.004" y1="151.03" x2="257.387" y2="449.323" gradientUnits="userSpaceOnUse">
<stop stop-color="#99C0F7"/>
<stop offset="1" stop-color="#5A7EF7"/>
</linearGradient>
</defs>
</svg>
