<svg width="174" height="50" viewBox="0 0 174 50" fill="none" xmlns="http://www.w3.org/2000/svg">
<path fill-rule="evenodd" clip-rule="evenodd" d="M0 0.0277285L24.6897 0.0161748L49.9325 0L49.9625 49.9723L25.2728 49.9838L0.0288643 50L0 0.0277285ZM47.0356 2.92419V2.90455L34.2566 2.91032L34.2693 23.5391H42.094V23.5483H47.0506V2.92419H47.0356ZM2.91995 10.7702H2.90725L2.91187 15.7104L21.1394 15.6989H23.4485V2.92419H18.9456L2.9061 2.93227V7.86908H2.91995V10.7702ZM2.92919 47.0781V47.0897L15.7105 47.0931L15.6978 26.4632H5.34459H2.91995V31.4047V47.0781H2.92919ZM23.5444 47.0816L23.5351 31.3931L31.5641 31.3885H41.84V31.3966H46.777V31.3862H47.0483V26.4436L31.3736 26.4505L31.3598 2.91494H26.4216L26.4343 24.8042L26.4505 26.4494H23.5282V24.8862L23.4659 18.6034L2.91418 18.6138V23.5552L18.5923 23.546L18.6062 47.0816H23.5444ZM47.0599 47.0654V43.3302L47.0529 38.368V34.2873L26.5255 34.3L26.5729 39.2368H26.6237V42.1367H26.6017L26.6514 47.077L47.0599 47.0654ZM42.0939 18.5963V7.85156H39.1982L39.2051 18.5963H42.0939ZM18.9422 7.86572H7.32245V10.7668H18.9422V7.86572ZM7.83837 31.4004V34.3061H7.858V39.2475H7.83606V42.1474H10.7606L10.7537 31.4027L7.83837 31.4004ZM31.5663 39.2324H42.6446V42.1347H31.5663V39.2324ZM70.0628 7.51523C69.7256 7.78741 69.4562 8.13428 69.2759 8.52846C69.0955 8.92264 69.0092 9.35336 69.0237 9.78664C69.0177 10.2403 69.1321 10.6874 69.3553 11.0824C69.5784 11.4774 69.9022 11.8061 70.2937 12.035C72.1595 12.9527 74.14 13.6156 76.1821 14.006C78.8086 14.5459 81.265 15.7155 83.3406 17.4143C84.2223 18.2668 84.9072 19.3018 85.3474 20.4469C85.7876 21.592 85.9723 22.8196 85.8887 24.0436C85.9265 25.3949 85.6509 26.7365 85.0836 27.9632C84.5163 29.19 83.6727 30.2686 82.6189 31.1144C80.168 33.0134 77.1205 33.9753 74.0242 33.8271C68.8396 33.8056 63.8683 31.7594 60.1691 28.1243L64.478 22.8386C67.968 25.8987 71.1958 27.4288 74.1616 27.4288C75.2699 27.4923 76.3685 27.1908 77.2894 26.5704C77.6536 26.3062 77.9475 25.9566 78.1453 25.5524C78.3432 25.1481 78.439 24.7015 78.4243 24.2516C78.4356 23.7949 78.3311 23.3429 78.1205 22.9376C77.9099 22.5323 77.6001 22.187 77.2201 21.934C75.734 21.0998 74.1224 20.5126 72.4482 20.1952C69.469 19.6466 66.6461 18.4517 64.1779 16.6945C62.4329 15.258 61.5604 13.0016 61.5604 9.92529C61.4907 8.55864 61.7561 7.19567 62.3334 5.95518C62.9108 4.7147 63.7826 3.63436 64.8729 2.80834C67.2754 1.07799 70.1851 0.197135 73.1432 0.3047C75.3522 0.312318 77.5444 0.688338 79.6297 1.4173C81.6962 2.10404 83.6153 3.17318 85.2872 4.56909L81.6271 9.85481C79.161 7.84614 76.0949 6.71972 72.9158 6.65449C71.8933 6.59729 70.8833 6.902 70.0628 7.51523ZM173.85 33.9337V27.7272H159.708L167.276 20.5825C171.88 16.3042 172.773 13.3893 172.773 10.1924C172.773 4.22159 167.886 0.460938 160.557 0.460938C154.636 0.460938 150.035 2.85828 147.495 6.57273L153.037 10.1451C153.816 9.0796 154.845 8.22217 156.033 7.64835C157.22 7.07454 158.531 6.80195 159.849 6.85463C163.327 6.85463 165.112 8.3589 165.112 10.9446C165.112 12.5424 164.595 14.2362 161.682 17.009L148.996 28.998V33.9337H173.85ZM105.429 0.344238H113.172V27.5111H129.948V33.8239H105.429V0.344238ZM61.675 42.2726C61.0845 43.0586 60.7379 44.001 60.6782 44.9825C60.7365 45.9649 61.0828 46.9083 61.6737 47.695C62.2646 48.4816 63.074 49.0766 64.0009 49.4057C64.9277 49.7348 65.9309 49.7833 66.8852 49.5453C67.8394 49.3073 68.7025 48.7932 69.3665 48.0673L68.0133 46.8184C67.738 47.1598 67.389 47.4343 66.9924 47.6214C66.5959 47.8085 66.1622 47.9033 65.7238 47.8986C64.951 47.8986 64.21 47.5915 63.6635 47.0447C63.1171 46.4979 62.8102 45.7563 62.8102 44.9831C62.8102 44.2099 63.1171 43.4683 63.6635 42.9215C64.21 42.3748 64.951 42.0676 65.7238 42.0676C66.1608 42.0632 66.5933 42.1569 66.9895 42.3416C67.3857 42.5263 67.7355 42.7975 68.0133 43.1351L69.3665 41.885C68.7001 41.1623 67.836 40.6516 66.8819 40.4163C65.9277 40.1809 64.9254 40.2314 63.9997 40.5615C63.074 40.8915 62.2656 41.4865 61.675 42.2726ZM85.8588 47.5848H81.6318L80.8236 49.5373H78.6646L82.7229 40.4263H84.8012L88.8723 49.5373H86.6612L85.8588 47.5848ZM85.1949 45.9846L83.7517 42.4967L82.3084 45.9846H85.1949ZM103.026 47.0245C105.458 47.0245 106.98 45.7617 106.98 43.7317C106.98 41.6891 105.458 40.4263 103.026 40.4263H99.0845V49.5373H101.192V47.0245H103.026ZM102.908 42.1443C104.197 42.1443 104.847 42.7289 104.847 43.7317C104.847 44.7219 104.196 45.3076 102.908 45.3076H101.192V42.1443H102.908ZM117.736 40.4263H119.842V49.5373H117.735L117.736 40.4263ZM130.233 42.1443H133.147V49.5385H135.254V42.1443H138.167V40.4263H130.233V42.1443ZM154.1 47.5848H149.873L149.064 49.5373H146.905L150.964 40.4263H153.042L157.113 49.5373H154.902L154.1 47.5848ZM153.436 45.9846L151.993 42.4967L150.544 45.9846H153.436ZM169.435 40.4263H167.328V49.5373H174V47.8205H169.435V40.4263Z" fill="white"/>
</svg>
