<svg width="135" height="80" viewBox="0 0 135 80" fill="none" xmlns="http://www.w3.org/2000/svg">
<path d="M68.8778 5.32823L69.3365 8.45023H75.6897L73.8516 0.0765933H65.3571L60.154 8.45023H67.1183L68.8778 5.32823ZM75.7651 21.9223L73.3929 10.733H67.0396L67.5 13.8534H62.9849L64.8214 10.733H57.8571L50.9682 21.9223H58.4682L60.0753 19.0301H68.3421L68.8008 21.9223H75.7651ZM95.5112 20.552C97.7294 19.6395 99.4135 18.2692 100.562 16.5941C101.71 14.919 102.321 13.0175 102.321 10.733H95.0525C95.0525 10.9612 95.1278 11.1143 95.1278 11.3425C95.1278 12.9409 94.5921 14.1581 93.4453 15.0722C92.2969 15.9847 90.8421 16.4426 89.0056 16.4426H86.25L87.3984 10.733H80.3571L78.062 21.9223H87.7048C90.6897 21.9223 93.2913 21.4661 95.5112 20.552ZM90.3064 5.55634H93.1356C94.5921 5.55634 95.6635 5.86105 96.3516 6.39387C96.8873 6.85177 97.269 7.53611 97.346 8.45023H104.617V8.37364C104.617 5.63293 103.699 3.57824 101.938 2.13129C100.179 0.760937 97.5753 0 94.0547 0H84.4118L82.654 8.45023H89.6183L90.3047 5.55634H90.3064ZM115.179 14.919L118.696 10.733H106.451L108.136 14.616L106.604 21.9223H113.722L115.175 14.919H115.179ZM120.994 8.45023L128.186 0.0765933H120.532L114.946 7.00329L112.267 0.0765933H104.921L108.748 8.45023H120.993H120.994ZM19.8968 4.94859H22.9587C23.9531 4.94859 24.7182 5.10011 25.1016 5.32823C25.5603 5.55634 25.7126 6.01424 25.7126 6.62199C25.7126 7.53611 25.2539 8.14553 24.3348 8.45023H32.0658C32.2952 7.76423 32.4475 7.00329 32.4475 6.16576C32.4475 4.26258 31.7595 2.74071 30.3047 1.67506C28.8499 0.609416 26.9381 0.0765933 24.4888 0.0765933H14.0792L13.0831 4.94859H19.8951H19.8968ZM55.1786 0.0765933H37.4263L36.3549 5.02352H54.1858L55.1802 0.0765933H55.1786ZM45.2294 9.21117L45.4587 8.14553H35.8929L35.6635 9.21117L34.8984 13.0159H44.4643L45.2294 9.21117ZM50.1261 16.9754H32.0625L31.0698 21.9223H49.13L50.1261 16.9754ZM40.4849 44.6056H30.5357L31.6842 39.0492H24.5658L22.2706 50.2385H39.3365L40.4849 44.6056ZM26.861 36.7648H33.9777L35.6618 28.3928H28.6205L26.861 36.7648ZM50.7422 47.3463H58.9286L59.4643 50.2385H66.4286L63.981 39.0492H57.7048L58.1635 42.1696H53.6484L55.4096 39.0492H48.5206L41.6334 50.2385H49.1334L50.7405 47.3463H50.7422ZM56.019 28.3928L50.8142 36.7648H57.7031L59.4626 33.6444L59.9983 36.7648H66.2746L64.5134 28.3928H56.019ZM71.8627 42.9305L70.3326 50.2385H77.4509L78.904 43.2352L82.4247 39.0492H70.1032L71.8627 42.9305ZM84.2612 28.3928L78.673 35.3195L75.9944 28.3928H68.6484L72.3984 36.7648H84.7199L91.9135 28.3928H84.2612ZM14.7706 32.9601C15.7667 32.9601 16.5318 33.1116 16.9135 33.3397C17.3722 33.5678 17.5262 33.9491 17.5262 34.5585C17.5262 36.0038 16.4548 36.6898 14.2349 36.7648H23.8778C24.2612 35.9289 24.4135 34.9382 24.4135 33.8725C24.4135 31.8944 23.7254 30.3709 22.4247 29.3818C21.0469 28.3928 19.0564 27.86 16.3778 27.86H6.50558L5.43415 32.9601H14.7706ZM21.6579 39.0492H2.37221L0 50.2385H6.81194L8.11272 44.2243H11.0977C14.5413 44.2243 17.2199 43.5399 19.2087 42.093C20.2897 41.3204 21.1368 40.2676 21.6579 39.0492ZM15.611 15.5285H18.9777L21.5792 21.9989H29.0792L25.5586 14.4628C27.0134 13.8534 28.1618 13.0159 28.9269 11.9502C29.2333 11.5706 29.4626 11.1143 29.615 10.6565H9.94755L7.65067 21.9223H14.2333L15.611 15.5285ZM112.194 28.4694H94.3627L93.3683 33.4146H111.122L112.194 28.4694ZM91.8365 41.7134H101.404L102.321 36.8414H92.7556L91.8365 41.7134ZM88.0865 50.3134H106.148L107.143 45.3665H89.0826L88.0865 50.3134ZM132.857 29.9913C131.402 28.9256 129.491 28.3928 127.041 28.3928H116.632L115.637 33.2648H125.509C126.506 33.2648 127.271 33.4163 127.652 33.6444C128.113 33.8725 128.265 34.3304 128.265 34.9382C128.265 35.8523 127.806 36.4617 126.887 36.7648H134.617C134.868 36.0295 134.997 35.2585 135 34.482C135 32.5788 134.235 31.0569 132.857 29.9913ZM131.479 40.1915C131.783 39.8033 132.015 39.3655 132.167 38.8977H112.5L110.203 50.2369H116.786L118.162 43.7681H121.53L124.132 50.2385H131.632L128.111 42.7024C129.566 42.093 130.714 41.2571 131.479 40.1915ZM48.5943 63.1778H66.3499L67.4213 58.1543H49.5904L48.5943 63.1778ZM57.5508 66.5279H47.9849L46.9888 71.3982H56.5564L57.5508 66.5279ZM43.3175 80H61.3025L62.3739 75.0531H44.3119L43.3175 80ZM18.9023 66.5279H30.3047L28.3158 58.1543H20.6618L18.9023 66.5279ZM46.6842 58.1543H38.5731L33.139 66.5279H45.0017L46.6842 58.1543ZM28.7762 72.0843L28.0112 68.8107H16.6071L14.3136 80H20.6652L22.6557 70.5607L24.7199 80H29.8477L35.8929 70.3326L33.904 80H40.4079L42.7048 68.8107H30.8421L28.7762 72.0843Z" fill="#1F1F22"/>
</svg>
