<svg width="32" height="32" viewBox="0 0 32 32" fill="none" xmlns="http://www.w3.org/2000/svg">
<path d="M24.348 8.52023C27.0585 12.4429 28.3971 16.8676 27.8967 21.9614C27.8946 21.983 27.8832 22.0027 27.8652 22.0157C25.8126 23.4993 23.8239 24.3996 21.8631 24.9967C21.8478 25.0013 21.8315 25.001 21.8164 24.996C21.8012 24.991 21.7881 24.9814 21.7788 24.9687C21.3258 24.3483 20.9142 23.6942 20.5536 23.0073C20.5329 22.9669 20.5518 22.9181 20.5944 22.9022C21.2481 22.6598 21.8697 22.3692 22.4676 22.0252C22.5147 21.998 22.5177 21.9316 22.4742 21.8997C22.3473 21.807 22.2216 21.7095 22.1013 21.6121C22.0788 21.594 22.0485 21.5905 22.023 21.6026C18.1413 23.367 13.8891 23.367 9.9615 21.6026C9.936 21.5914 9.9057 21.5952 9.8838 21.6129C9.7638 21.7104 9.6378 21.807 9.5121 21.8997C9.4686 21.9316 9.4722 21.998 9.5196 22.0252C10.1175 22.3627 10.7391 22.6598 11.3919 22.9034C11.4342 22.9193 11.4543 22.9669 11.4333 23.0073C11.0805 23.6951 10.6689 24.3491 10.2075 24.9695C10.1874 24.9946 10.1544 25.0062 10.1232 24.9967C8.1717 24.3996 6.18301 23.4993 4.13041 22.0157C4.11331 22.0027 4.10101 21.9821 4.09921 21.9605C3.68101 17.5544 4.53331 13.0931 7.6446 8.51935C7.6521 8.50724 7.6635 8.49779 7.6767 8.49218C9.2076 7.8006 10.8477 7.29181 12.5619 7.00124C12.5931 6.99652 12.6243 7.01069 12.6405 7.03786C12.8523 7.40698 13.0944 7.88033 13.2582 8.26717C15.0651 7.9955 16.9002 7.9955 18.7449 8.26717C18.9087 7.8886 19.1424 7.40698 19.3533 7.03786C19.3608 7.02438 19.3724 7.01359 19.3866 7.00701C19.4007 7.00044 19.4165 6.99842 19.4319 7.00124C21.147 7.2927 22.7871 7.80149 24.3168 8.49218C24.3303 8.49779 24.3414 8.50724 24.348 8.52023ZM14.1768 16.8977C14.1957 15.5952 13.2309 14.5173 12.0198 14.5173C10.8186 14.5173 9.8631 15.5857 9.8631 16.8977C9.8631 18.2094 10.8375 19.2778 12.0198 19.2778C13.2213 19.2778 14.1768 18.2094 14.1768 16.8977ZM22.1514 16.8977C22.1703 15.5952 21.2055 14.5173 19.9947 14.5173C18.7932 14.5173 17.8377 15.5857 17.8377 16.8977C17.8377 18.2094 18.8121 19.2778 19.9947 19.2778C21.2055 19.2778 22.1514 18.2094 22.1514 16.8977Z" fill="#1F1F22"/>
</svg>
