<svg width="213" height="44" viewBox="0 0 213 44" fill="none" xmlns="http://www.w3.org/2000/svg">
<path fill-rule="evenodd" clip-rule="evenodd" d="M25.4457 18.2714C32.6267 18.2714 38.4497 24.031 38.4497 31.1348C38.4497 38.2404 32.6267 44 25.4457 44C18.2629 44 12.4399 38.2404 12.4399 31.1348C12.4399 24.031 18.2629 18.2714 25.4457 18.2714ZM25.5495 0.00173219C32.8256 0.107397 38.9531 2.73517 44.1032 7.88331C51.7894 15.5657 52.6267 27.6687 48.7741 35.772C48.7222 35.8828 48.5855 36.0318 48.3987 35.985C48.2084 35.9383 48.2205 35.6836 48.2482 35.5347C49.0232 31.3808 49.2982 22.8237 43.2901 16.4682C36.872 9.67962 31.2324 8.29731 25.5495 8.29731C19.8666 8.29731 12.7773 10.6271 7.76558 16.4682C1.97025 23.2255 2.02388 31.4293 2.76949 35.5399C2.79371 35.6715 2.86982 35.8967 2.65531 35.985C2.44253 36.0751 2.29202 35.8811 2.2332 35.7529C-1.60902 27.6531 -0.768261 15.5622 6.91272 7.88158C12.0628 2.7369 18.275 0.107397 25.5512 0L25.5495 0.00173219Z" fill="url(#paint0_linear_11_373)"/>
<path d="M117.948 17.7669C122.157 17.7669 124.214 19.7729 124.214 23.2875V33.1889H121.051V31.3077H120.896C120.007 32.7558 118.287 33.5596 116.107 33.5596C112.82 33.5596 111.04 31.862 111.04 29.3329C111.04 26.8039 112.514 25.3229 116.045 24.7374L118.963 24.2437C120.437 23.9977 120.897 23.8124 120.897 23.2269C120.897 21.4081 120.007 20.2648 117.95 20.2648C115.953 20.2648 114.91 21.3457 114.787 22.9186H111.623C111.808 19.8023 114.203 17.7669 117.95 17.7669H117.948ZM83.662 17.9748V26.6792C83.662 29.6742 84.956 30.6927 86.8659 30.6927C88.9903 30.6927 90.5299 28.8704 90.5299 25.7525V17.9748H93.8549V33.0382H90.6839V30.8469H90.5593C89.6978 32.5445 88.1582 33.4106 86.0027 33.4106C82.9856 33.4106 80.3371 31.8031 80.3371 27.1105V17.9731H83.662V17.9748ZM146.824 11.427C151.905 11.427 155.17 14.299 156 18.6521H152.46C151.722 15.9672 149.843 14.5156 146.826 14.5156C142.7 14.5156 140.02 17.7566 140.02 22.4179C140.02 26.9875 142.731 30.322 146.733 30.322C149.997 30.322 151.722 28.8704 152.46 26.1855H156.002C155.171 30.5386 151.815 33.4088 146.703 33.4088C140.482 33.4088 136.419 28.8098 136.419 22.4179C136.419 16.1213 140.576 11.4288 146.826 11.4288L146.824 11.427ZM172.306 17.9748V26.6792C172.306 29.6742 173.6 30.6927 175.509 30.6927C177.633 30.6927 179.173 28.8704 179.173 25.7525V17.9748H182.499V33.0382H179.327V30.8469H179.204C178.342 32.5445 176.803 33.4106 174.647 33.4106C171.628 33.4106 168.981 31.8031 168.981 27.1105V17.9731H172.306V17.9748ZM190.96 17.6024C194.439 17.6024 197.18 19.0228 197.18 22.172H194.069C194.069 20.6892 192.746 19.9495 190.96 19.9495C189.205 19.9495 187.881 20.6892 187.881 22.0178C187.881 23.0363 188.589 23.5595 190.374 23.8713L193.145 24.332C195.517 24.7339 197.581 25.6607 197.581 28.4703C197.581 31.7736 194.81 33.4088 190.807 33.4088C187.049 33.4088 184.309 31.8654 184.309 28.7163H187.48C187.48 30.3844 189.173 31.0634 190.807 31.0634C193.116 31.0634 194.254 30.2597 194.254 28.8704C194.254 27.7601 193.485 27.2959 191.976 27.0499L189.205 26.5562C186.895 26.1855 184.677 25.2588 184.677 22.4179C184.677 19.3311 187.419 17.6024 190.96 17.6024ZM68.2724 11.7995V30.0432H78.5275V33.0399H64.7935V11.7977H68.2724V11.7995ZM103.64 17.6024C106.627 17.6024 109.276 19.2081 109.276 23.9007V33.0382H105.949V24.332C105.949 21.3388 104.686 20.3202 102.749 20.3202C100.621 20.3202 98.9911 22.1408 98.9911 25.167V33.0382H95.6644V17.9731H98.8666V20.1643H98.9911C99.8526 18.4668 101.453 17.6024 103.64 17.6024ZM133.372 17.6024C133.988 17.6024 134.696 17.6959 135.465 18.2208L134.604 21.1829C133.926 20.8451 133.341 20.6892 132.756 20.6892C130.507 20.6892 129.43 22.8822 129.43 25.5048V33.0399H126.105V17.9731H129.307V20.1643H129.4C130.139 18.5603 131.462 17.6024 133.372 17.6024ZM165.077 17.6024C165.693 17.6024 166.402 17.6959 167.17 18.2208L166.309 21.1829C165.632 20.8451 165.046 20.6892 164.461 20.6892C162.212 20.6892 161.136 22.8822 161.136 25.5048V33.0399H157.809V17.9731H161.013V20.1643H161.105C161.844 18.5603 163.169 17.6024 165.077 17.6024ZM202.716 10.4414V15.5428C202.72 17.0842 202.679 18.6253 202.593 20.1643H202.716C203.577 18.4668 205.179 17.6024 207.366 17.6024C210.352 17.6024 213 19.2081 213 23.9007V33.0382H209.675V24.332C209.675 21.3388 208.412 20.3202 206.473 20.3202C204.317 20.3202 202.716 22.2326 202.716 25.1964V33.0382H199.391V10.4414H202.716ZM121.062 25.5186C120.754 25.891 120.228 26.1076 119.517 26.2323L116.92 26.6653C115.156 26.946 114.478 27.7203 114.478 28.8982C114.478 30.1384 115.343 30.9751 117.043 30.9751C119.178 30.9751 121.064 29.6413 121.064 26.9148V25.5186H121.062Z" fill="#1F1F22"/>
<defs>
<linearGradient id="paint0_linear_11_373" x1="25.508" y1="0.00173222" x2="25.508" y2="44" gradientUnits="userSpaceOnUse">
<stop stop-color="#06ECFF"/>
<stop offset="1" stop-color="#21FA8E"/>
</linearGradient>
</defs>
</svg>
