<svg width="178" height="68" viewBox="0 0 178 68" fill="none" xmlns="http://www.w3.org/2000/svg">
<path fill-rule="evenodd" clip-rule="evenodd" d="M15.5688 51.2642C14.6955 51.0276 14.3654 50.7909 13.9459 50.0947C13.8152 49.8777 13.6757 49.6162 13.5358 49.3191C13.227 48.6631 12.9162 47.8346 12.693 46.9326C12.5498 46.3536 12.4424 45.7445 12.3551 45.1185C12.245 44.3278 12.1668 43.51 12.089 42.6923C11.9358 42.6483 12.0277 42.5499 12.293 42.3119C12.7126 41.9363 13.5654 41.2119 13.9299 40.4952C14.2945 39.7781 14.1707 39.0677 13.4211 37.4528C12.6716 35.8378 11.2961 33.3179 10.5876 31.612C9.87929 29.9068 9.83803 29.0157 10.0787 28.1105C10.3194 27.2055 10.8422 26.287 12.2176 24.9292C13.5932 23.572 15.8212 21.7752 18.5721 19.896L18.6838 19.8201L18.7557 20.0112C19.5639 22.1656 19.6875 22.4093 20.1139 22.5275C20.2894 22.5759 20.5162 22.6038 20.7706 22.6033C20.5632 22.4108 20.3742 22.0087 19.9722 21.07C19.3693 19.6621 18.2868 17.0477 17.6303 14.6237C17.0559 12.5028 16.8077 10.5275 16.8116 8.80566C7.26494 14.079 0.788086 24.3329 0.788086 36.1171C0.788086 50.272 10.1323 62.2179 22.9173 65.9787C22.9579 64.1304 22.9987 62.2821 23.2357 60.5189C23.3931 59.3487 23.6369 58.2159 23.9153 57.1412C24.0561 56.5967 24.206 56.0669 24.358 55.5544C24.7676 54.1724 25.1926 52.9175 25.6186 51.6747C23.8573 51.9192 21.5706 51.9459 19.7226 51.842C17.859 51.7377 16.4423 51.5009 15.5688 51.2642Z" fill="#FF3369"/>
<path fill-rule="evenodd" clip-rule="evenodd" d="M22.7681 6.46478C24.2402 5.9392 27.0552 5.14155 30.6051 5.05223C34.1543 4.96342 38.4387 5.58297 42.4807 7.17054C46.5228 8.75812 50.3225 11.3137 52.4362 12.9138C54.5502 14.5142 54.9776 15.1595 55.1302 15.5375C55.2831 15.9149 55.1612 16.0248 54.1698 16.8896C53.1777 17.7544 51.3166 19.3739 49.9349 20.0767C48.5532 20.7788 47.6505 20.5635 47.0538 20.2589C46.4569 19.9543 46.1657 19.5598 45.2828 18.3502C44.4005 17.1411 42.9255 15.1167 42.094 13.369C41.2628 11.6219 41.075 10.1511 40.69 9.49899C40.3049 8.84641 39.7225 9.01317 37.081 10.2099C34.44 11.4071 29.7397 13.6354 27.2166 14.8834C24.6933 16.1311 24.3471 16.3992 23.8614 15.776C23.3756 15.1528 22.7502 13.6386 22.2565 12.1104C21.7623 10.5821 21.4002 9.04001 21.2835 8.14219C21.1669 7.24438 21.2962 6.99088 22.7681 6.46478Z" fill="#FF3369"/>
<path fill-rule="evenodd" clip-rule="evenodd" d="M55.9253 24.7129C56.0626 25.4662 56.2782 26.9087 55.5983 28.4503C54.9185 29.992 53.343 31.6322 52.4948 32.5001C51.6456 33.3679 51.5237 33.4634 51.6997 34.0886C51.8751 34.7138 52.3489 35.8693 52.0796 36.8471C51.8109 37.8254 50.7994 38.6258 50.3338 39.0842C49.8687 39.5421 49.9482 39.6583 50.1991 39.9939C50.4495 40.329 50.8708 40.8839 50.3338 41.513C49.7967 42.1423 48.3022 42.8455 46.8645 43.4263C45.4267 44.007 44.0465 44.4651 43.1866 44.8774C42.3266 45.2899 41.987 45.656 41.3203 46.9726C40.6542 48.2893 39.6612 50.5563 39.2869 52.685C38.912 54.8134 39.1563 56.8039 39.3777 57.8482C39.5995 58.8925 39.799 58.9906 40.8093 58.7066C41.8191 58.4226 43.6406 57.7567 44.7922 57.5332C45.9439 57.3096 46.4258 57.5284 46.7339 57.6409C47.0409 57.7533 47.1741 57.7593 47.7173 57.5213C48.2605 57.2833 49.2132 56.8013 49.8839 56.5474C50.5546 56.2935 50.9432 56.2675 51.2839 56.3934C51.6251 56.5192 51.919 56.7967 51.9914 57.2172C52.0639 57.6381 51.9143 58.2017 52.4198 57.9977C52.9253 57.7934 54.0845 56.8215 55.3698 55.4052C56.6556 53.9888 58.067 52.1282 59.2227 49.1057C60.3795 46.0834 61.2802 41.8992 61.7137 38.4399C62.1473 34.9813 62.1131 32.247 61.5148 29.5356C60.917 26.8239 59.7552 24.1347 59.1192 22.6885C58.4831 21.2424 58.3724 21.0395 58.0195 21.3415C57.6661 21.6436 57.0709 22.4516 56.6393 22.9508C56.2073 23.4496 55.9395 23.64 55.8351 23.7675C55.7299 23.895 55.7886 23.9592 55.9253 24.7129Z" fill="#FF3369"/>
<path d="M47.503 15.1077H48.671M17.4955 56.5214V58.8549V56.5214ZM16.6392 57.6881H18.3516H16.6392ZM7.40537 44.9506V48.6652V44.9506ZM6.04262 46.8081H8.76836H6.04262ZM46.1161 49.5571V51.4151V49.5571ZM45.4342 50.4859H46.7975H45.4342ZM54.2813 46.8415V49.175V46.8415ZM53.4256 48.0084H55.1377H53.4256ZM57.3441 35.0662V36.6579V35.0662ZM56.7602 35.8624H57.9281H56.7602ZM5.48553 30.8349V32.6929V30.8349ZM4.80396 31.7636H6.16734H4.80396ZM12.456 16.8229V19.3698V16.8229ZM11.5219 18.0961H13.3905H11.5219ZM26.3747 8.76367V11.88V8.76367ZM25.231 10.3218H27.518H25.231ZM8.86549 37.8821V39.7402V37.8821ZM8.18374 38.8109H9.54727H8.18374ZM48.0869 14.3117V15.9039V14.3117Z" stroke="white" stroke-width="0.936886" stroke-linecap="round"/>
<path d="M47.1057 25.3334C46.1637 25.6747 44.6091 25.73 42.264 26.0851C39.9193 26.4398 36.7831 27.0944 33.6882 28.299C30.5938 29.5035 27.54 31.2578 25.4907 32.8309C23.4411 34.404 22.3958 35.7964 21.5774 37.1471C20.7591 38.4977 20.1675 39.8059 19.4318 40.7323C18.6958 41.6581 17.8156 42.2009 17.2585 42.4726C16.7017 42.7439 16.4678 42.7439 15.6286 42.7439C14.7897 42.7439 13.3454 42.7439 12.6166 42.7303C12.3488 42.725 12.1777 42.7179 12.0889 42.6928C12.1671 43.5105 12.2451 44.3283 12.3552 45.1191C12.4424 45.745 12.5498 46.3543 12.6932 46.9331C12.9165 47.8351 13.227 48.6635 13.5358 49.3195C13.6757 49.6166 13.815 49.8782 13.9459 50.0952C14.3654 50.7913 14.6957 51.0281 15.5688 51.2646C16.4423 51.5015 17.859 51.7382 19.7226 51.8425C21.1624 51.9233 22.8687 51.9252 24.3852 51.8062C24.832 51.7711 25.2625 51.7254 25.6647 51.6685C27.4322 51.418 28.6563 50.9447 30.3826 50.1023C32.1086 49.26 34.337 48.0486 36.7025 47.0531C38.4657 46.3112 40.3049 45.6892 42.1017 45.1062C42.7154 44.9071 43.3243 44.7125 43.9237 44.5191C46.276 43.7604 48.4767 43.0224 49.5835 42.3124C50.5852 41.6701 50.6923 41.0507 50.3164 40.2737C50.2767 40.1916 50.2318 40.1074 50.1818 40.0217C49.6595 39.1239 48.6001 38.0103 47.8096 36.7221C47.6265 36.4248 47.4587 36.1186 47.3046 35.8042C46.7931 34.7587 46.4447 33.6317 46.276 32.4969C46.0917 31.2656 46.1194 30.0238 46.334 28.888C46.3769 28.6629 46.4264 28.4414 46.484 28.2257C46.8298 26.9204 47.4382 25.7991 48.0473 24.6777C47.8535 24.9518 47.5464 25.1739 47.1057 25.3334ZM38.2969 35.6829C37.9741 36.685 37.2718 37.7548 36.2445 38.5735C35.7677 38.9531 35.2209 39.2788 34.6517 39.5452C33.9952 39.8529 33.3098 40.0817 32.6691 40.2246C31.4736 40.4915 30.4352 40.459 29.5393 40.301C28.6433 40.143 27.8909 39.8596 27.4569 39.6438C27.0236 39.429 26.9096 39.2818 26.9966 38.8301C27.0124 38.7485 27.0347 38.6572 27.065 38.556C27.2027 38.097 27.5051 37.4397 28.1079 36.6121C28.8436 35.6023 30.0263 34.3395 31.3379 33.5047C31.3649 33.4877 31.3926 33.4701 31.4201 33.4531C32.3886 32.8521 33.423 32.4809 34.3721 32.2775C34.6863 32.2103 34.9914 32.1613 35.2816 32.1283C36.472 31.9941 37.413 32.1324 37.9087 32.2914C38.405 32.4515 38.456 32.6327 38.5096 33.1902C38.5631 33.7474 38.6198 34.6813 38.2969 35.6829Z" fill="#FFD27F"/>
<path d="M37.1682 46.8878C34.975 47.8107 32.9094 48.9336 31.309 49.7145C29.7088 50.4954 28.5738 50.9342 26.9354 51.1663C26.5626 51.2191 26.1635 51.2615 25.7493 51.2939C25.2795 52.6624 24.8097 54.0313 24.3581 55.5545C23.9064 57.078 23.4728 58.7558 23.2358 60.5191C22.9987 62.2822 22.9581 64.1305 22.9175 65.9789C25.6428 66.7805 28.5243 67.2102 31.5048 67.2102C35.326 67.2102 38.984 66.504 42.3588 65.2135C41.7336 64.4851 41.1082 63.7567 40.5855 62.7729C40.0627 61.7893 39.6419 60.5502 39.4313 59.0336C39.4206 58.9547 39.4098 58.8749 39.4001 58.7946C39.2211 57.3304 39.2283 55.6317 39.3614 53.9739C39.5017 52.2248 39.7822 50.5211 40.2738 49.047C40.766 47.5727 41.4699 46.3278 42.1732 45.083C40.508 45.6234 38.8024 46.1999 37.1682 46.8878Z" fill="#FFE3BA"/>
<path d="M26.6499 14.9801C28.992 13.6656 33.4885 11.1528 36.1577 9.92249C38.8267 8.69219 39.6677 8.74382 40.1344 8.92813C40.601 9.11192 40.6929 9.42841 40.9427 10.3113C41.1932 11.1941 41.6013 12.6438 42.6458 14.3961C43.6909 16.1483 45.372 18.2037 46.4063 19.6307C47.4407 21.0577 47.8282 21.8564 48.0364 22.4739C48.245 23.0914 48.274 23.5271 48.0797 24.0563C47.8859 24.5866 47.4682 25.2096 45.6785 25.6697C43.8887 26.1297 40.7261 26.4266 37.3088 27.3559C33.8916 28.2858 30.2195 29.8469 27.2613 31.9963C24.3032 34.1451 22.0588 36.8818 20.7135 38.7596C19.3685 40.6373 18.9222 41.6573 17.9277 42.2444C16.9331 42.8318 15.3901 42.9868 14.3378 42.9917C13.2853 42.9967 12.7234 42.8517 12.4319 42.7438C12.1404 42.6361 12.12 42.5655 12.592 42.1603C13.0645 41.7552 14.0296 41.0157 13.8876 39.2005C13.7454 37.3847 12.4956 34.494 11.6553 32.6669C10.8151 30.8398 10.3846 30.0777 10.0848 29.2192C9.78532 28.3611 9.61675 27.4065 10.8203 25.9227C12.024 24.4388 14.5999 22.4253 16.1871 21.225C17.7746 20.0247 18.3738 19.6374 18.7883 19.7148C19.2027 19.7923 19.4322 20.3344 19.751 21.0572C20.0697 21.78 20.478 22.6835 21.3023 22.8508C22.1266 23.0181 23.3671 22.4487 24.2915 21.8487C25.2159 21.2482 25.8242 20.6173 25.9312 20.1428C26.038 19.6684 25.6433 19.3498 25.2265 18.7737C24.8095 18.1975 24.3704 17.3627 24.2448 16.8867C24.1194 16.4112 24.3077 16.2945 26.6499 14.9801Z" fill="#FFE3BA"/>
<path d="M37.1679 46.8877C34.9748 47.8107 32.9092 48.9336 31.3087 49.7144C29.7086 50.4953 28.5735 50.9341 26.9351 51.1663C26.5623 51.2191 26.1632 51.2615 25.749 51.2939C25.2792 52.6624 24.8094 54.0312 24.3578 55.5545C24.2058 56.067 24.056 56.5967 23.915 57.1413C25.458 57.1329 27.6144 56.94 29.5453 56.2815C31.9299 55.4684 33.97 53.9453 36.4309 52.7579C37.4826 52.2501 38.6118 51.8039 39.6967 51.345C39.8446 50.5387 40.0339 49.7654 40.2735 49.0468C40.7658 47.5725 41.4696 46.3276 42.1729 45.083C40.5077 45.6233 38.8021 46.1999 37.1679 46.8877Z" fill="#F0C87F"/>
<path d="M34.4637 67.0677C37.2175 66.8013 39.8655 66.1668 42.3586 65.2135C41.7333 64.4851 41.108 63.7569 40.5852 62.7731C40.0624 61.7893 39.6417 60.5502 39.4309 59.0336C39.4202 58.9547 39.4096 58.8749 39.3999 58.7946C39.2208 57.3305 39.228 55.6317 39.3612 53.9739C39.5013 52.225 39.7818 50.5211 40.2736 49.047C40.7657 47.5727 41.4695 46.3278 42.1729 45.083C41.0958 45.4324 40.0022 45.7974 38.9214 46.1974C37.8361 48.6144 36.7487 51.2845 35.9719 53.4806C34.5565 57.4819 34.1741 59.9083 34.1741 62.9287C34.1741 64.2602 34.2485 65.7068 34.4637 67.0677Z" fill="#F0C87F"/>
<path d="M47.4035 37.2304C48.0813 38.3341 48.9892 39.2882 49.437 40.058C49.4798 40.1319 49.5187 40.2031 49.5522 40.2738C50.2443 39.5536 50.9366 38.8335 51.4297 38.0435C51.9234 37.2541 52.2182 36.3951 52.1805 35.636C52.1422 34.8771 51.7725 34.2184 51.4022 33.5591C51.1354 33.764 50.8722 33.9587 50.6167 34.1419C49.2514 35.1229 48.1114 35.7832 46.9714 36.4435C47.103 36.7125 47.2474 36.9753 47.4035 37.2304Z" fill="#70CC81"/>
<path d="M46.9717 36.4428C48.1116 35.7825 49.2515 35.1222 50.6169 34.1413C50.8725 33.958 51.1357 33.7634 51.4024 33.5584C52.5591 32.6699 53.77 31.5934 54.6227 30.4349C55.6719 29.0088 56.1789 27.4574 56.3339 26.3258C56.489 25.194 56.2926 24.481 56.0958 23.7686C55.3904 24.5054 54.5972 25.206 53.7505 25.8765C52.2062 27.0997 50.4853 28.2215 49.1873 28.9774C47.8898 29.7338 47.0146 30.1246 46.1393 30.516C45.9552 31.4891 45.9322 32.5526 46.0893 33.6085C46.2346 34.5812 46.5331 35.5467 46.9717 36.4428Z" fill="#91F7A4"/>
<path d="M46.9715 36.4426C48.1114 35.7823 49.2514 35.122 50.6168 34.1411C50.8723 33.9577 51.1355 33.7632 51.4023 33.5581C52.559 32.6697 53.7698 31.5932 54.6227 30.4347C55.4749 29.2761 55.9692 28.0354 56.2078 27.0039C55.8456 27.5678 55.1311 28.5064 54.1549 29.3886C53.0583 30.3789 51.6323 31.2979 50.2169 31.6825C48.802 32.0672 47.3985 31.9174 46.0489 31.4647L46.0142 31.4527C45.9587 32.1539 45.9811 32.8828 46.0892 33.6083C46.2346 34.5809 46.5329 35.5464 46.9715 36.4426Z" fill="#83DE93"/>
<path d="M49.1871 28.9773C50.4851 28.2215 52.206 27.0996 53.7505 25.8765C54.5971 25.2059 55.3902 24.5053 56.0955 23.7686C56.5995 23.2425 57.0586 22.6983 57.46 22.1339C57.5212 22.0477 57.5813 21.9604 57.6405 21.8732C58.6187 20.4178 59.2078 18.8308 59.4909 17.2556C59.774 15.6804 59.75 14.1176 59.603 13.2404C59.4556 12.3638 59.1844 12.1728 58.5657 12.6678C57.9465 13.163 56.98 14.3443 55.5595 15.6629C55.0602 16.1265 54.5048 16.6072 53.9141 17.0765C52.8257 17.9417 51.9418 18.603 50.4249 19.3806C48.9086 20.1586 48.5007 20.2144 46.6951 20.646C47.2449 21.3456 47.5733 21.7452 48.2155 22.6554C48.8576 23.5657 47.7769 25.418 47.8258 25.9478C47.8758 26.478 47.7967 26.6407 47.6075 26.9076C47.0858 27.8684 46.564 28.8292 46.2676 29.9479C46.2187 30.1333 46.1759 30.3228 46.1392 30.5158C47.0144 30.1244 47.8896 29.7337 49.1871 28.9773Z" fill="#C7FFD1"/>
<path d="M49.1875 28.9776C50.4855 28.2219 52.2064 27.0999 53.7507 25.8769C54.5974 25.2062 55.3904 24.5056 56.0959 23.7689C56.5998 23.2428 57.0588 22.6986 57.4602 22.1343C57.5214 22.048 57.5816 21.9608 57.6408 21.8736C58.6191 20.4182 59.2081 18.8311 59.4912 17.256C59.6544 16.3473 59.7156 15.4433 59.71 14.6719C59.6656 14.7178 59.6197 14.7752 59.5722 14.8465C59.1596 15.467 58.6435 17.0763 57.4307 18.6448C56.2178 20.2137 54.3082 21.7409 52.3425 22.4555C50.3774 23.1705 49.3078 23.0739 48.5346 23.0703C47.7609 23.0667 48.0908 23.0708 47.9 23.078L47.9874 23.2015C48.8416 24.4127 47.7771 25.4183 47.8261 25.9481C47.8761 26.4783 47.7971 26.641 47.6078 26.9079C47.086 27.8687 46.5643 28.8295 46.268 29.9483C46.2358 30.0691 46.2068 30.192 46.1802 30.3163C46.2553 30.3437 46.3322 30.3696 46.4118 30.3938C47.2004 30.0402 48.0241 29.6555 49.1875 28.9776Z" fill="#91F7A4"/>
<path d="M40.6503 58.6334C41.5744 58.1852 43.5181 57.6382 44.6249 57.4532C45.7323 57.2685 46.0015 57.4457 46.1668 57.6224C46.332 57.7993 46.3927 57.9751 46.9084 57.7475C47.424 57.5197 48.3946 56.8883 49.2076 56.57C50.0207 56.2519 50.6761 56.2468 51.1509 56.3832C51.6252 56.5195 51.919 56.797 51.865 57.4468C51.8108 58.0965 51.4089 59.1188 50.5592 60.0899C49.7095 61.0611 48.4125 61.9814 46.9711 62.8267C45.5297 63.6721 43.944 64.4428 43.1265 64.7992C42.3088 65.1555 42.2588 65.0973 41.858 64.4436C41.4571 63.79 40.7048 62.5408 40.3228 61.6644C39.9408 60.788 39.929 60.2845 39.8755 59.8577C39.8219 59.4313 39.726 59.0819 40.6503 58.6334Z" fill="#FFD27F"/>
<path d="M36.2445 38.5733C37.2717 37.7544 37.9741 36.6846 38.2968 35.6825C38.6197 34.6809 38.5631 33.747 38.5096 33.19C38.456 32.6324 38.405 32.4511 37.9087 32.2911C37.4129 32.1321 36.472 31.9937 35.2815 32.1279C34.9912 32.161 34.6863 32.2101 34.3721 32.2771C34.901 33.0088 35.2871 33.8637 35.4789 34.8096C35.8237 36.5039 35.484 38.1804 34.6516 39.5448C35.2208 39.2784 35.7676 38.9527 36.2445 38.5733Z" fill="white"/>
<path d="M31.6756 36.5651C31.6756 38.2834 30.5377 39.733 28.9834 40.1838C29.1609 40.2276 29.3468 40.2669 29.5392 40.3009C30.4351 40.4589 31.4736 40.4915 32.669 40.2246C33.3097 40.0815 33.9952 39.8529 34.6516 39.5452C35.484 38.1806 35.8237 36.5042 35.4789 34.8098C35.2872 33.8639 34.9011 33.009 34.3721 32.2773C33.3965 32.4869 32.33 32.8731 31.338 33.5046C31.1074 33.6513 30.8809 33.8112 30.6606 33.9805C31.2895 34.6549 31.6756 35.5641 31.6756 36.5651Z" fill="#91F7A4"/>
<path d="M32.2798 34.875C32.8576 34.875 33.3264 35.349 33.3264 35.9339C33.3264 36.5189 32.8576 36.9933 32.2798 36.9933C31.7019 36.9933 31.2336 36.5189 31.2336 35.9339C31.2336 35.349 31.7019 34.875 32.2798 34.875Z" fill="white"/>
<path d="M28.9832 40.1832C30.5375 39.7325 31.6754 38.2828 31.6754 36.5646C31.6754 35.5635 31.2893 34.6543 30.6604 33.98C29.6243 34.7751 28.7141 35.7793 28.1077 36.6115C27.3723 37.6213 27.0836 38.3777 26.9964 38.8295C26.9094 39.2812 27.0233 39.4283 27.4566 39.6431C27.7973 39.8125 28.3345 40.0236 28.9832 40.1832Z" fill="#111726"/>
<path d="M22.966 22.6787C23.6553 22.4892 24.3073 22.1165 24.8081 21.7318C25.3087 21.3477 25.6587 20.9523 25.8299 20.7173C26.0016 20.482 25.9946 20.4071 25.4434 19.39C25.1757 18.8953 24.7794 18.1788 24.3497 17.3507C23.8953 16.475 23.4033 15.4745 22.9865 14.4821C22.3096 12.8693 21.8312 11.2776 21.4713 9.69826C21.4005 9.38693 21.3343 9.07614 21.272 8.76585C20.8935 6.88089 20.6625 5.01194 20.527 3.69748C20.3911 2.38301 20.3512 1.62305 20.2489 1.18575C20.1464 0.748457 19.9821 0.633841 19.55 1.01228C19.1178 1.39072 18.4179 2.26273 17.8668 3.46463C17.3162 4.66706 16.9143 6.20042 16.8286 8.08331C16.777 9.22121 16.8406 10.4866 17.044 11.8445C17.1772 12.734 17.3702 13.6638 17.6301 14.6237C18.2866 17.0475 19.3693 19.662 19.9723 21.0699C20.3624 21.9806 20.5518 22.3864 20.7521 22.5858C20.8612 22.6942 20.9738 22.7417 21.1241 22.7758C21.5493 22.8734 22.2766 22.8677 22.966 22.6787Z" fill="white"/>
<path d="M23.7336 22.3908C24.1315 22.2029 24.4987 21.9696 24.8083 21.7321C25.3087 21.3479 25.6588 20.9524 25.8301 20.7175C26.0019 20.4821 25.9947 20.4073 25.4436 19.3901C25.1759 18.8956 24.7797 18.179 24.3499 17.3508C23.8954 16.4753 23.4035 15.4747 22.9866 14.4824C22.3097 12.8695 21.8313 11.2778 21.4716 9.69847C21.4008 9.38715 21.3344 9.07636 21.2721 8.76607C20.8938 6.88111 20.6626 5.01216 20.5272 3.6977C20.3912 2.38324 20.3514 1.62327 20.249 1.18598C20.1866 0.919564 20.1012 0.772954 19.9464 0.784305C19.6602 1.88502 19.3909 3.19226 19.2836 4.5857C19.0947 7.04219 19.4099 9.76456 20.0191 12.2685C20.6284 14.7731 21.5317 17.0592 22.4458 19.3029C22.8847 20.3804 23.3261 21.4481 23.7336 22.3908Z" fill="#DEDEDE"/>
<path d="M27.4706 36.1484C27.727 35.7965 28.22 35.719 28.5717 35.9755C28.9235 36.232 29.0009 36.7253 28.7445 37.0773C28.2325 37.7804 27.9297 38.3812 27.8077 38.8226L27.7819 38.9294L27.8076 38.9384C28.2093 39.1382 28.7715 39.3342 29.3726 39.4653L29.6759 39.5251C30.5885 39.6861 31.5083 39.6764 32.4972 39.4557C32.922 39.3608 33.3432 39.6285 33.438 40.0536C33.5328 40.4787 33.2653 40.9001 32.8404 40.995C31.6422 41.2625 30.5134 41.2744 29.4023 41.0783C28.5398 40.9263 27.7088 40.6506 27.1069 40.3512C26.3573 39.9797 26.066 39.4922 26.2227 38.6815C26.3568 37.9858 26.7661 37.1158 27.4706 36.1484Z" fill="#111726"/>
<path d="M30.915 32.8391C31.2822 32.6054 31.7693 32.7138 32.003 33.0812C32.2366 33.4487 32.1283 33.9361 31.761 34.1699C30.6686 34.8653 29.5456 35.9775 28.7449 37.0766C28.4885 37.4285 27.9955 37.5059 27.6438 37.2493C27.292 36.9928 27.2147 36.4995 27.4711 36.1475C28.381 34.8986 29.6426 33.6491 30.915 32.8391Z" fill="#111726"/>
<path d="M31.2365 33.4429L30.7484 32.9194L30.1807 33.3551C29.1681 34.1322 28.1956 35.1534 27.4709 36.1478C26.7663 37.1154 26.3568 37.9854 26.2226 38.6809C26.0662 39.492 26.3573 39.9791 27.1066 40.3507C27.5576 40.5748 28.1568 40.7929 28.7949 40.9499L28.9999 41.0003L29.2025 40.9415C31.1198 40.3855 32.4633 38.6076 32.4633 36.5655C32.4633 35.3897 32.0193 34.2821 31.2365 33.4429ZM30.5201 35.1223L30.6299 35.3441C30.7975 35.7218 30.8871 36.1361 30.8871 36.5655L30.879 36.7868C30.7937 37.9571 30.0371 38.9608 28.9567 39.362L28.9114 39.3497C28.4849 39.2294 28.0963 39.0815 27.8071 38.9378L27.7819 38.929L27.7702 38.9797C27.8571 38.5296 28.1686 37.868 28.7447 37.0768C29.1441 36.5287 29.6332 35.9669 30.1606 35.4563L30.5201 35.1223Z" fill="#111726"/>
<path d="M34.709 31.3999L35.0103 31.8164C35.6159 32.6533 36.04 33.6156 36.2517 34.6541C36.6033 36.3852 36.324 38.1486 35.4974 39.6587L35.3248 39.9572L35.2011 40.1602L34.9859 40.2609C34.2944 40.5845 33.5556 40.836 32.8407 40.9956C32.4158 41.0905 31.9946 40.8228 31.8998 40.3977C31.805 39.9726 32.0725 39.5512 32.4973 39.4563C32.9801 39.3485 33.4798 39.1897 33.9611 38.9898L34.0975 38.9288L34.1332 38.8673C34.7197 37.7789 34.9459 36.5271 34.7617 35.2803L34.7071 34.9688C34.5881 34.385 34.3844 33.8332 34.1049 33.3267L34.0167 33.1791L33.7049 33.2708C33.1569 33.4448 32.6259 33.6721 32.1278 33.9518L31.7608 34.1713C31.3935 34.4051 30.9064 34.2967 30.6728 33.9292C30.4392 33.5617 30.5475 33.0743 30.9148 32.8406C31.7947 32.2805 32.7689 31.8705 33.774 31.6102L34.2065 31.5078L34.709 31.3999Z" fill="#111726"/>
<path d="M37.7265 33.0415L37.6981 33.0491L37.6672 33.0427C37.1582 32.8789 36.3047 32.8067 35.3699 32.912C34.1318 33.0521 32.8513 33.4761 31.7607 34.1702C31.3935 34.4039 30.9064 34.2954 30.6728 33.928C30.4392 33.5605 30.5475 33.0731 30.9148 32.8393C32.2173 32.0105 33.7264 31.5107 35.1932 31.3448C36.3427 31.2152 37.4201 31.3064 38.1497 31.5413C38.9562 31.8006 39.2076 32.217 39.294 33.1149C39.3905 34.1199 39.3513 34.9806 39.0468 35.925C38.6579 37.1321 37.8361 38.3137 36.7351 39.1908C35.6701 40.0386 34.2404 40.6819 32.8406 40.9944C32.4158 41.0893 31.9946 40.8216 31.8998 40.3965C31.805 39.9714 32.0725 39.5499 32.4974 39.4551C33.6749 39.1922 34.8863 38.6471 35.7535 37.9567C36.6127 37.2723 37.2534 36.351 37.5467 35.4409C37.7402 34.8407 37.7901 34.2663 37.7514 33.6046L37.7175 33.1303L37.7219 33.063L37.7265 33.0415Z" fill="#111726"/>
<path d="M41.5111 9.44034C41.5918 9.63228 41.6412 9.81142 41.678 10.0506L41.7171 10.3711L41.7817 11.1641L41.8104 11.4603L41.8423 11.699L41.8819 11.913L41.9305 12.118C42.0468 12.5564 42.2539 13.0059 42.6179 13.5825L42.8845 13.987L43.2019 14.4367L43.5745 14.9393L43.9181 15.3884L46.1069 18.1761L46.7269 18.986L47.0786 19.4596L47.3918 19.8953C48.4652 21.4165 48.9956 22.5102 49.0868 23.4859C49.2 24.6987 48.6087 25.629 47.3738 26.0763C47.1585 26.1543 46.9274 26.2187 46.653 26.2769L46.2055 26.3605C46.1243 26.374 46.0396 26.3873 45.9508 26.4006L45.2704 26.4927L44.0081 26.6457C43.7093 26.6824 43.4337 26.7178 43.1672 26.7538L42.3815 26.8663C39.4848 27.3044 36.6157 28.0071 33.9737 29.0353C31.09 30.1578 28.0749 31.8424 25.9701 33.458C24.2479 34.78 23.2098 35.975 22.251 37.5574L21.8245 38.296L20.9284 39.8949C20.6118 40.4408 20.338 40.86 20.0483 41.2246C19.3458 42.1085 18.4812 42.7549 17.6035 43.1829C17.361 43.3011 17.1607 43.3796 16.9531 43.4335C16.8502 43.4602 16.7587 43.4799 16.6605 43.4945L16.4494 43.5171L16.1876 43.5291L15.8424 43.5336L13.1661 43.5274L12.4721 43.5173L12.2699 43.5097L12.115 43.4975C11.798 43.4633 11.5979 43.4018 11.3957 43.1346C11.0746 42.7104 11.1986 42.3437 11.4578 42.0317L11.5162 41.9652L11.6645 41.8194L12.1187 41.4119L12.3935 41.1554C12.4362 41.1142 12.4776 41.0735 12.5182 41.0329C12.7772 40.7733 12.981 40.5342 13.1199 40.3227L13.2272 40.1396C13.3969 39.8058 13.388 39.4374 13.0795 38.6472L12.9153 38.2512L12.706 37.7867L12.3243 36.9919L10.8483 34.0487L10.4072 33.1386L10.1635 32.6138L9.95367 32.1392C9.92119 32.0636 9.88988 31.9895 9.85962 31.9166C9.14005 30.1841 9.00302 29.09 9.31692 27.9097C9.62329 26.7577 10.2982 25.718 11.664 24.3695C13.0467 23.0054 15.1604 21.3069 17.6317 19.5883L18.2403 19.17C18.6002 18.925 19.0904 19.0183 19.3353 19.3784C19.5801 19.7385 19.4868 20.229 19.1269 20.474L19.0162 20.5491C16.4065 22.3321 14.1711 24.111 12.7709 25.4924C11.5905 26.6579 11.0661 27.4656 10.8402 28.3153C10.6249 29.1248 10.7189 29.8756 11.3152 31.3114L11.4998 31.7411L11.7164 32.2175L11.9701 32.7529L12.4316 33.6928L13.7401 36.2986L14.0478 36.9349L14.1356 37.1224C14.9319 38.8376 15.1158 39.7516 14.7143 40.6802L14.6007 40.915C14.4258 41.2411 14.1825 41.5627 13.8757 41.8954L13.8188 41.954L15.9761 41.9553L16.2167 41.9498L16.3818 41.9385C16.4047 41.936 16.4259 41.9332 16.4459 41.9301L16.5573 41.9068C16.6517 41.8823 16.758 41.8407 16.9131 41.765C17.5931 41.4335 18.2715 40.9263 18.8145 40.243C19.0017 40.0074 19.1896 39.7299 19.4014 39.3799L19.5881 39.0626L20.6635 37.1491L20.9032 36.7397C21.9596 34.9963 23.1263 33.6531 25.0107 32.2067C27.2353 30.499 30.3812 28.7413 33.4022 27.5654C36.1643 26.4905 39.1426 25.761 42.1458 25.3069L42.5486 25.2475L43.3731 25.1359L45.1678 24.9161L45.6808 24.8461L46.1 24.7779C46.4144 24.7209 46.6469 24.6623 46.8372 24.5934C47.3979 24.3902 47.5637 24.1294 47.5174 23.6327C47.4581 22.9989 47.0316 22.1193 46.1042 20.8049L45.6382 20.1628L45.0731 19.4167L42.6708 16.3527L42.3022 15.8707L41.8876 15.3099L41.5314 14.8015C40.9836 13.9924 40.6594 13.3623 40.4624 12.717L40.372 12.383L40.3122 12.1038L40.2672 11.8275L40.2309 11.5152L40.1522 10.5682L40.1247 10.3319C40.1152 10.266 40.1052 10.2118 40.0943 10.1662L40.0583 10.0522C40.0034 9.92176 39.8128 9.86227 39.2779 9.95722L39.0667 10.0009C39.0301 10.0094 38.9928 10.0187 38.9546 10.0286L38.7127 10.0979L38.291 10.2417L37.9594 10.3683L37.3672 10.6118L36.638 10.9284L35.7459 11.3279C32.9716 12.5837 30.5508 13.7528 28.0157 15.1139C26.9938 15.6628 25.9424 16.2509 24.8915 16.8616C24.515 17.0803 24.0327 16.9522 23.8141 16.5756C23.5956 16.199 23.7235 15.7164 24.0999 15.4977C25.1659 14.8783 26.2326 14.2815 27.2703 13.7242C29.8419 12.3435 32.2923 11.1601 35.0964 9.89079L36.2705 9.36712L36.7567 9.15748L37.1859 8.97892L37.5661 8.82866L37.9049 8.70392L38.2101 8.6019L38.4895 8.51983L38.7509 8.45491L39.0021 8.40437C40.1783 8.19557 41.1095 8.48625 41.5111 9.44034Z" fill="#111726"/>
<path d="M47.3547 24.3019C47.5625 23.9192 48.041 23.7775 48.4234 23.9855C48.8059 24.1934 48.9475 24.6722 48.7397 25.0549L48.4141 25.6608L48.1395 26.1885L47.9092 26.6545L47.7168 27.0753C47.5703 27.4116 47.4563 27.7178 47.3577 28.0368L47.2457 28.4284C46.9232 29.646 46.8534 31.0284 47.0553 32.3812C47.2616 33.7661 47.753 35.1251 48.481 36.3101C48.659 36.6 48.8595 36.8943 49.1005 37.223L49.4358 37.6685L50.1369 38.576L50.4309 38.9708C50.4748 39.0317 50.5164 39.0904 50.556 39.1474L50.7703 39.4721C50.8026 39.5239 50.8333 39.5749 50.8627 39.6255C51.6391 40.9596 51.4086 42.0794 50.0088 42.9769L49.7402 43.1404L49.4457 43.3026C49.3942 43.3297 49.3414 43.3567 49.2874 43.3838L48.9461 43.5476L48.5685 43.7148L48.1506 43.8874L47.6882 44.0671C47.6072 44.0978 47.5241 44.1289 47.439 44.1603L46.6133 44.456L45.6598 44.7808L41.4818 46.1394L40.401 46.503C39.127 46.9401 38.0285 47.3512 37.008 47.7806C36.377 48.0461 35.729 48.3384 35.0333 48.6689L34.3533 48.9968L30.728 50.8118C28.7494 51.777 27.5024 52.205 25.7752 52.4498C24.0731 52.6914 21.7679 52.7478 19.6785 52.6305C17.9271 52.5325 16.4116 52.3109 15.3628 52.0265C14.2984 51.7382 13.7985 51.3782 13.2708 50.5029C12.7518 49.6415 12.242 48.3922 11.928 47.1233L11.8288 46.7L11.7413 46.2758C11.7276 46.2041 11.7142 46.1316 11.7011 46.0581L11.626 45.6009C11.6139 45.5216 11.6021 45.4405 11.5903 45.3573L11.4868 44.5413L11.381 43.5534L11.3045 42.7714C11.2627 42.3349 11.5804 41.9498 12.0137 41.9083C12.4076 41.8706 12.7615 42.1299 12.8537 42.503L12.8733 42.6182L12.9818 43.7115L13.0485 44.3222L13.1137 44.8569L13.1799 45.3313C13.1912 45.4063 13.2027 45.4793 13.2143 45.5508L13.2871 45.9643L13.3675 46.3569L13.458 46.7442C13.7347 47.8623 14.1846 48.9647 14.6206 49.6884C14.9315 50.2041 15.0908 50.3189 15.7749 50.5041C16.7092 50.7575 18.1181 50.9635 19.7666 51.0558C21.7602 51.1677 23.9651 51.1138 25.554 50.8882C26.9789 50.6863 28.0236 50.3498 29.6247 49.5924L30.4284 49.1993L33.814 47.5051C34.7395 47.0558 35.5797 46.6707 36.3969 46.3268C37.4538 45.882 38.5845 45.4589 39.8898 45.0111L40.9859 44.6423L44.8164 43.3989L45.8014 43.0674L46.6491 42.7689L47.3722 42.4979L47.7911 42.3298L48.1638 42.1697C48.2223 42.1436 48.279 42.1177 48.334 42.0921L48.6444 41.9411L48.9179 41.7939C49.0034 41.7454 49.0832 41.6972 49.1582 41.6491C49.8268 41.2204 49.8634 41.0426 49.5005 40.4191C49.4324 40.3019 49.3506 40.1753 49.2497 40.0305L49.0206 39.714L48.031 38.4266C47.6751 37.9548 47.3903 37.5467 47.138 37.1357C46.2982 35.7687 45.7338 34.2077 45.4963 32.6139C45.2631 31.0514 45.3438 29.4523 45.7221 28.0243C45.8871 27.4013 46.0726 26.8773 46.3527 26.2608L46.5816 25.7781L46.853 25.2428L47.1737 24.6369C47.2316 24.529 47.2919 24.4175 47.3547 24.3019Z" fill="#111726"/>
<path d="M42.5611 44.3977C42.9022 44.5906 43.0444 44.9996 42.9133 45.3558L42.8543 45.4811L42.4747 46.1589L42.1517 46.7506C42.1022 46.843 42.0547 46.9327 42.009 47.0199L41.7557 47.5174C41.5998 47.8338 41.468 48.1238 41.3493 48.4123L41.1797 48.8469C41.1255 48.9934 41.0732 49.1426 41.0214 49.2977C40.5804 50.6203 40.2929 52.218 40.147 54.0381C40.0029 55.8349 40.0203 57.5435 40.212 58.9262C40.3988 60.2718 40.7672 61.4364 41.2814 62.404C41.548 62.9058 41.8027 63.2921 42.2096 63.8046L42.5458 64.2164L42.9558 64.6997L43.0322 64.8046C43.2299 65.1286 43.1696 65.5574 42.8724 65.8128C42.5752 66.0682 42.1424 66.0632 41.8521 65.8187L41.7587 65.7258L41.3154 65.2028C40.6431 64.3964 40.2816 63.8821 39.8896 63.1444C39.287 62.0104 38.8625 60.6685 38.6507 59.1431C38.4417 57.6353 38.4231 55.8152 38.5758 53.912C38.7311 51.9742 39.0404 50.2553 39.5263 48.7982C39.7271 48.1968 39.9323 47.6797 40.2033 47.1057L40.4532 46.5966C40.498 46.5084 40.5445 46.4181 40.5929 46.3255L40.9072 45.7376L41.2753 45.0726L41.4872 44.696C41.7014 44.3169 42.1822 44.1833 42.5611 44.3977Z" fill="#111726"/>
<path d="M26.0051 50.5493C26.4167 50.6908 26.6358 51.1394 26.4944 51.5513L25.7753 53.6731L25.4751 54.5986L25.1872 55.5327L25.1135 55.78C24.5759 57.593 24.2202 59.1116 24.0167 60.6254L23.9574 61.0959L23.9068 61.564L23.8639 62.0442L23.8115 62.8191L23.7829 63.3934L23.7467 64.378L23.7052 65.9973C23.6956 66.4327 23.3351 66.7779 22.9 66.7683C22.4648 66.7588 22.1198 66.398 22.1293 65.9626L22.1719 64.3062L22.196 63.6141L22.2235 62.9926L22.274 62.1597L22.3153 61.6486L22.3643 61.1552L22.4545 60.4151C22.6465 58.9872 22.9625 57.5701 23.4229 55.9492L23.6777 55.0787L23.9013 54.3484L24.3146 53.07L24.7407 51.807L25.0037 51.039C25.1451 50.6271 25.5934 50.4078 26.0051 50.5493Z" fill="#111726"/>
<path d="M45.3774 56.3084C46.2277 56.2166 46.8107 56.6143 47.0317 57.4153C47.1801 57.954 47.1938 58.7324 47.078 59.4312C47.0154 59.8107 46.9351 60.1155 46.7893 60.5262L46.62 60.9788L46.5142 61.2479C46.3528 61.6541 45.8946 61.8518 45.4901 61.691C45.126 61.5462 44.9296 61.1604 45.0111 60.7896L45.0509 60.6616L45.2209 60.2243L45.3456 59.876C45.4334 59.6136 45.4841 59.4088 45.5229 59.1738C45.5923 58.7548 45.5951 58.2889 45.5428 57.9769L45.5222 57.8797L45.4616 57.8884L45.2436 57.935L44.9503 58.0146L42.9086 58.6428L41.463 59.0519L39.6056 59.5575C39.1854 59.671 38.7528 59.4222 38.6393 59.0018C38.5258 58.5813 38.7744 58.1484 39.1946 58.0348L41.9136 57.2885L43.0794 56.9447L44.3134 56.5586C44.7842 56.4156 45.0965 56.3387 45.3774 56.3084Z" fill="#111726"/>
<path d="M52.7399 55.9726C53.071 56.423 53.0816 56.9288 52.9046 57.6861L52.8117 58.0501L52.6956 58.4502L52.4827 59.1067L52.1546 60.0595L52.1028 60.1769C51.9219 60.5106 51.5209 60.6736 51.151 60.5445C50.7811 60.4155 50.5683 60.0384 50.6339 59.6645L50.6684 59.534L50.9808 58.6271L51.1834 58.0044L51.3215 57.5206L51.3898 57.2355L51.4312 57.0244L51.3912 57.03C51.2739 57.0477 51.1262 57.0813 50.9483 57.133L50.7602 57.1907L50.3956 57.3155L49.8348 57.5302L49.1373 57.821L47.1078 58.7211C47.001 58.7693 46.8909 58.819 46.7776 58.8703C46.381 59.0497 45.9141 58.8735 45.7347 58.4767C45.5554 58.0798 45.7315 57.6126 46.1282 57.4332L48.1287 56.539L48.9424 56.191L49.4431 55.9887L49.879 55.8251L50.2764 55.6897C51.4798 55.3014 52.2664 55.3266 52.7399 55.9726Z" fill="#111726"/>
<path d="M46.4605 31.237C46.0631 31.4146 45.597 31.2363 45.4194 30.8387C45.2596 30.4808 45.388 30.0672 45.6824 29.8693L45.8202 29.7958L46.5237 29.4772L47.1205 29.1954L47.6626 28.923C48.0173 28.7385 48.3701 28.542 48.7905 28.297C50.2498 27.4471 51.8912 26.3441 53.261 25.2594C54.8848 23.9731 56.1233 22.7181 56.9862 21.4344C57.86 20.1344 58.4362 18.669 58.715 17.1172C58.9339 15.8992 58.9732 14.5591 58.8631 13.6363L58.8417 13.4874L58.3033 14.0299L56.9444 15.4105L56.4378 15.9141L56.0955 16.242C54.5554 17.6722 52.6444 19.1294 51.15 19.9826C49.9176 20.6862 49.0707 20.9926 47.5522 21.3589L47.158 21.452L47.0419 21.4701C46.6589 21.501 46.3009 21.2475 46.2117 20.8617C46.1224 20.476 46.3326 20.0909 46.6902 19.9502L46.8017 19.9156L47.1653 19.8299C48.5587 19.4946 49.2856 19.2311 50.3688 18.6128C51.749 17.8247 53.566 16.4393 55.0233 15.0859L55.2877 14.833L56.1869 13.9326L57.5137 12.5883L57.9139 12.1963C57.9831 12.1309 58.0373 12.082 58.0732 12.0533C59.2122 11.1416 60.14 11.683 60.3801 13.1114C60.5647 14.2134 60.5383 15.8829 60.2664 17.3963C59.9498 19.1581 59.293 20.8285 58.2942 22.3146C57.3291 23.7502 55.9808 25.1165 54.2393 26.496C52.8077 27.6298 51.1046 28.7742 49.5836 29.66L48.9617 30.0146C48.4722 30.2865 48.0365 30.5087 47.5174 30.7539L46.8456 31.0638L46.4605 31.237Z" fill="#111726"/>
<path d="M55.8857 23.0097C56.3053 22.8936 56.7394 23.1398 56.8554 23.5596C57.1762 24.7209 57.2616 25.3629 57.1148 26.4341C56.9151 27.8913 56.2786 29.5156 55.2575 30.9034C54.3807 32.0953 53.1371 33.2505 51.6252 34.3908L51.1637 34.7324C50.9811 34.8652 50.8088 34.9883 50.6418 35.1053L50.1508 35.4413L49.6593 35.7615C49.5756 35.8147 49.4905 35.8681 49.4035 35.9221L48.8523 36.2576L48.222 36.6294C48.1086 36.6955 47.9906 36.7641 47.8673 36.8354C47.4905 37.0536 47.0084 36.9248 46.7904 36.5478C46.5724 36.1708 46.7011 35.6884 47.0779 35.4703L47.7382 35.0851L48.3037 34.747L48.8054 34.4355C48.8854 34.3847 48.9641 34.3341 49.042 34.2834L49.5061 33.9736L49.9837 33.6392C50.0662 33.5803 50.1505 33.5195 50.2373 33.4564C51.8383 32.2924 53.1394 31.1222 53.9881 29.9685C54.8492 28.798 55.3884 27.4221 55.5531 26.2198C55.6649 25.4042 55.6049 24.9528 55.3361 23.9799C55.2201 23.5601 55.4662 23.1257 55.8857 23.0097Z" fill="#111726"/>
<path d="M51.016 32.8723C51.3954 32.6589 51.8759 32.7937 52.0892 33.1734L52.2347 33.4355L52.4799 33.9014C52.8039 34.5502 52.9375 34.9999 52.9676 35.5975C53.0114 36.4787 52.7103 37.4711 52.1891 38.3599C51.9079 38.8398 51.6383 39.1976 51.1882 39.6933L50.8138 40.0951C50.7447 40.1677 50.6721 40.2435 50.5956 40.323C50.2935 40.6365 49.7946 40.6458 49.4812 40.3435C49.1678 40.0413 49.1586 39.5421 49.4606 39.2285L49.8319 38.8381C49.8872 38.7789 49.9395 38.7224 49.9891 38.668L50.2566 38.3647C50.497 38.0809 50.6638 37.8448 50.8295 37.562C51.2071 36.918 51.4201 36.2159 51.3933 35.6763C51.3697 35.2074 51.2104 34.828 50.7151 33.9461C50.5018 33.5664 50.6365 33.0857 51.016 32.8723Z" fill="#111726"/>
<path d="M34.5391 44.6048C34.9364 44.7828 35.1141 45.2494 34.9362 45.6468L34.7785 45.9963L34.4857 46.6247C33.8788 47.8916 33.4275 48.5751 32.6842 49.2921C31.6046 50.3341 30.0722 51.0737 28.2578 51.4629C26.4839 51.8436 24.4915 51.8783 22.6455 51.5516C22.386 51.5057 22.1355 51.455 21.8748 51.3953L21.334 51.2629L20.7316 51.0991L18.7537 50.5236L18.2094 50.3791L17.7952 50.2871L17.6878 50.2655C16.8968 50.1087 16.2314 50.0489 15.2757 50.0546L14.6641 50.0656C14.5553 50.0686 14.4427 50.0723 14.326 50.0765L13.5725 50.1082C13.1377 50.1285 12.7688 49.7923 12.7484 49.3573C12.7281 48.9222 13.0641 48.5531 13.4989 48.5327L14.3001 48.4992L15.0001 48.4802C16.0943 48.4617 16.8555 48.5116 17.7285 48.6682L18.2271 48.7659L18.5525 48.839L19.0419 48.9665L21.1436 49.5767L21.7112 49.7312L22.2147 49.855L22.6862 49.9552C22.7639 49.9703 22.8416 49.9847 22.92 49.9985C24.5659 50.2898 26.3528 50.2587 27.9273 49.9208C29.472 49.5894 30.7396 48.9776 31.59 48.1568C32.1306 47.6353 32.4931 47.1049 32.9708 46.1347L33.2205 45.611L33.4977 45.002C33.6756 44.6046 34.1419 44.4267 34.5391 44.6048Z" fill="#111726"/>
<path d="M18.1001 43.9246C18.4768 44.0323 18.7107 44.3966 18.6665 44.7737L18.6394 44.9063L18.483 45.4274L18.3908 45.6875L18.2883 45.931L18.1723 46.1698L18.0361 46.4132L17.8558 46.7059C17.8208 46.7613 17.7829 46.8205 17.7417 46.8847C17.5064 47.251 17.0187 47.3571 16.6526 47.1216C16.2864 46.8861 16.1804 46.3982 16.4158 46.0319L16.6628 45.6376L16.7696 45.4491L16.8527 45.2797L16.9245 45.1075L16.9944 44.9067L17.1257 44.4662C17.2453 44.0474 17.6816 43.8049 18.1001 43.9246Z" fill="#111726"/>
<path d="M11.923 44.4603C12.287 44.2215 12.7755 44.3231 13.0142 44.6873C13.154 44.9007 13.2124 44.9764 13.3251 45.0795L13.504 45.2273L13.6733 45.3513L14.051 45.6122C14.411 45.857 14.5045 46.3474 14.2598 46.7076C14.0152 47.0678 13.525 47.1614 13.165 46.9166L12.6107 46.5291L12.4247 46.3848L12.2621 46.2441C12.0279 46.0298 11.9026 45.8674 11.696 45.5521C11.4574 45.1879 11.559 44.6991 11.923 44.4603Z" fill="#111726"/>
<path d="M16.4307 8.11643C16.8118 7.90594 17.2913 8.0444 17.5016 8.42568C17.712 8.80697 17.5736 9.28669 17.1925 9.49718C7.64497 14.771 1.57625 24.903 1.57625 36.1182C1.57625 52.8569 14.9779 66.4227 31.5048 66.4227C48.0318 66.4227 61.4336 52.8569 61.4336 36.1182C61.4336 30.8247 60.0913 25.7291 57.5738 21.222C57.3615 20.8418 57.4973 20.3614 57.8773 20.1489C58.2572 19.9364 58.7374 20.0724 58.9498 20.4526C61.5978 25.1935 63.0099 30.5537 63.0099 36.1182C63.0099 53.7239 48.9065 67.9999 31.5048 67.9999C14.1032 67.9999 0 53.7239 0 36.1182C0 24.3246 6.38421 13.6659 16.4307 8.11643Z" fill="#111726"/>
<path d="M31.5047 4.2373C40.94 4.2373 49.6962 8.46064 55.6452 15.6322C55.9232 15.9673 55.8771 16.4645 55.5422 16.7426C55.2072 17.0208 54.7104 16.9746 54.4324 16.6395C48.7791 9.82453 40.4652 5.81449 31.5047 5.81449C27.9495 5.81449 24.4814 6.44165 21.2156 7.65286C20.8074 7.80423 20.3539 7.59589 20.2027 7.18751C20.0514 6.77913 20.2596 6.32537 20.6677 6.174C24.1082 4.898 27.7618 4.2373 31.5047 4.2373Z" fill="#111726"/>
<path d="M19.0311 0.419988C18.4107 0.963048 17.6799 1.98264 17.1505 3.13698C16.5128 4.52952 16.1265 6.18024 16.0415 8.04867C15.9475 10.1135 16.2205 12.4343 16.8696 14.831C17.358 16.6339 18.0542 18.5326 18.9169 20.599L19.3581 21.6371L19.5558 22.0827L19.7303 22.4491C20.1163 23.2188 20.3755 23.415 20.9492 23.5458C21.5487 23.6834 22.414 23.6489 23.1743 23.4405C23.9151 23.2369 24.653 22.8464 25.288 22.3585C25.78 21.9811 26.1997 21.5496 26.4671 21.1824C26.8279 20.6888 26.8419 20.4109 26.4581 19.6301L26.2526 19.2313L25.449 17.7467L25.0042 16.9016C24.8626 16.6277 24.727 16.3598 24.595 16.093C24.3684 15.6349 24.1598 15.1941 23.9702 14.77L23.7132 14.1779C22.9801 12.4314 22.4494 10.6267 22.0447 8.61171C21.7891 7.33795 21.5859 6.0025 21.4245 4.64218L21.2835 3.34072L21.1345 1.78607L21.1127 1.5932L21.0677 1.26966C21.0519 1.17343 21.0351 1.08734 21.0163 1.00697C20.7841 0.0149561 19.9761 -0.300391 19.1598 0.315107L19.0311 0.419988ZM19.4807 2.26862L19.5842 2.13318L19.7432 3.77976C19.9244 5.53859 20.1686 7.27435 20.4993 8.92232C20.8706 10.7709 21.3457 12.4598 21.9788 14.0922L22.3381 14.9729C22.5862 15.552 22.8682 16.1576 23.1823 16.7927L23.3893 17.2062L23.826 18.0515L25.0206 20.277L25.0794 20.3975L24.9724 20.5203C24.7986 20.7102 24.5765 20.9169 24.3285 21.1072C23.8456 21.4782 23.2866 21.774 22.7573 21.9195C22.3135 22.0411 21.8073 22.0762 21.4599 22.0351L21.29 22.0052L21.2677 21.9907L21.24 21.9568L21.1781 21.8464L21.0326 21.5339L20.6969 20.7605C19.7071 18.4502 18.9164 16.3581 18.391 14.4185C17.7836 12.1758 17.5297 10.0178 17.6161 8.1204C17.6921 6.45049 18.0319 4.99854 18.5834 3.79436C18.8475 3.21835 19.1694 2.68623 19.4807 2.26862Z" fill="#111726"/>
<path d="M84.3169 22.2378C84.3169 23.1637 84.1053 24.0067 83.6821 24.7667C83.2589 25.5129 82.631 26.1072 81.7982 26.5494C80.979 26.9916 79.9824 27.2127 78.8084 27.2127H77.0063V31.8766H72.4602V17.2007H78.8084C80.5832 17.2007 81.9415 17.6567 82.8835 18.5688C83.8392 19.4809 84.3169 20.7039 84.3169 22.2378ZM78.2965 23.5852C79.2384 23.5852 79.7094 23.136 79.7094 22.2378C79.7094 21.3396 79.2384 20.8904 78.2965 20.8904H77.0063V23.5852H78.2965Z" fill="#FF3369"/>
<path d="M91.1395 32.0218C89.9792 32.0218 88.9347 31.7799 88.0064 31.2962C87.0781 30.8125 86.3478 30.1216 85.8153 29.2233C85.2965 28.3112 85.0371 27.2473 85.0371 26.0312C85.0371 24.815 85.2965 23.7579 85.8153 22.8596C86.3478 21.9475 87.0781 21.2497 88.0064 20.766C88.9347 20.2823 89.9792 20.0405 91.1395 20.0405C92.2999 20.0405 93.3443 20.2823 94.2726 20.766C95.2009 21.2497 95.9245 21.9475 96.4433 22.8596C96.9757 23.7579 97.2419 24.815 97.2419 26.0312C97.2419 27.2473 96.9757 28.3112 96.4433 29.2233C95.9245 30.1216 95.2009 30.8125 94.2726 31.2962C93.3443 31.7799 92.2999 32.0218 91.1395 32.0218ZM91.1395 28.0418C91.5627 28.0418 91.9177 27.876 92.2044 27.5443C92.4911 27.1989 92.6344 26.6944 92.6344 26.0312C92.6344 25.3678 92.4911 24.8703 92.2044 24.5387C91.9177 24.1932 91.5627 24.0204 91.1395 24.0204C90.7163 24.0204 90.3614 24.1932 90.0747 24.5387C89.788 24.8703 89.6446 25.3678 89.6446 26.0312C89.6446 26.6944 89.7812 27.1989 90.0542 27.5443C90.3409 27.876 90.7027 28.0418 91.1395 28.0418Z" fill="#FF3369"/>
<path d="M103.109 16.5376V31.8768H98.5625V16.5376H103.109Z" fill="#FF3369"/>
<path d="M118.099 20.1851L110.706 37.4729H105.73L108.638 31.2956L103.826 20.1851H108.884L111.054 26.1134L113.082 20.1851H118.099Z" fill="#FF3369"/>
<path d="M118.191 26.0312C118.191 24.815 118.437 23.7579 118.928 22.8596C119.433 21.9475 120.129 21.2497 121.017 20.766C121.918 20.2823 122.942 20.0405 124.089 20.0405C125.59 20.0405 126.853 20.4689 127.877 21.3257C128.915 22.1825 129.57 23.3709 129.842 24.8911H125.03C124.853 24.283 124.505 23.979 123.986 23.979C123.617 23.979 123.324 24.1517 123.106 24.4973C122.901 24.8427 122.798 25.354 122.798 26.0312C122.798 26.7083 122.901 27.2196 123.106 27.565C123.324 27.9105 123.617 28.0833 123.986 28.0833C124.505 28.0833 124.853 27.7793 125.03 27.1712H129.842C129.57 28.6912 128.915 29.8797 127.877 30.7365C126.853 31.5933 125.59 32.0218 124.089 32.0218C122.942 32.0218 121.918 31.7799 121.017 31.2962C120.129 30.8125 119.433 30.1216 118.928 29.2233C118.437 28.3112 118.191 27.2473 118.191 26.0312Z" fill="#FF3369"/>
<path d="M139.266 20.103C140.59 20.103 141.621 20.5521 142.357 21.4502C143.108 22.3486 143.484 23.5645 143.484 25.0986V31.8768H138.958V25.679C138.958 25.1262 138.808 24.6909 138.508 24.373C138.221 24.0414 137.833 23.8755 137.34 23.8755C136.836 23.8755 136.44 24.0414 136.153 24.373C135.867 24.6909 135.723 25.1262 135.723 25.679V31.8768H131.177V16.5376H135.723V21.9685C136.077 21.4158 136.549 20.9666 137.136 20.6211C137.737 20.2757 138.446 20.103 139.266 20.103Z" fill="#FF3369"/>
<path d="M144.733 26.0312C144.733 24.8012 144.938 23.7372 145.348 22.8389C145.771 21.9268 146.345 21.2359 147.068 20.766C147.791 20.2823 148.603 20.0405 149.504 20.0405C150.255 20.0405 150.904 20.1995 151.45 20.5173C151.996 20.8213 152.413 21.2427 152.699 21.7817V20.1856H157.225V31.8766H152.699V30.2804C152.413 30.8194 151.996 31.2478 151.45 31.5657C150.904 31.8698 150.255 32.0218 149.504 32.0218C148.603 32.0218 147.791 31.7868 147.068 31.3169C146.345 30.8333 145.771 30.1423 145.348 29.2441C144.938 28.3321 144.733 27.261 144.733 26.0312ZM152.699 26.0312C152.699 25.4092 152.543 24.9256 152.229 24.5801C151.914 24.2346 151.512 24.0619 151.02 24.0619C150.529 24.0619 150.126 24.2346 149.812 24.5801C149.498 24.9256 149.34 25.4092 149.34 26.0312C149.34 26.653 149.498 27.1367 149.812 27.4821C150.126 27.8277 150.529 28.0004 151.02 28.0004C151.512 28.0004 151.914 27.8277 152.229 27.4821C152.543 27.1367 152.699 26.653 152.699 26.0312Z" fill="#FF3369"/>
<path d="M161.452 19.2526C160.66 19.2526 160.025 19.0385 159.547 18.6101C159.07 18.1817 158.83 17.6427 158.83 16.9933C158.83 16.3299 159.07 15.7841 159.547 15.3557C160.025 14.9135 160.66 14.6924 161.452 14.6924C162.23 14.6924 162.858 14.9135 163.336 15.3557C163.813 15.7841 164.053 16.3299 164.053 16.9933C164.053 17.6427 163.813 18.1817 163.336 18.6101C162.858 19.0385 162.23 19.2526 161.452 19.2526ZM163.705 20.1854V31.8764H159.158V20.1854H163.705Z" fill="#FF3369"/>
<path d="M173.739 20.1025C175.064 20.1025 176.094 20.5516 176.831 21.4498C177.582 22.3481 177.957 23.5641 177.957 25.0981V31.8763H173.432V25.6785C173.432 25.1258 173.282 24.6905 172.982 24.3725C172.695 24.041 172.305 23.8751 171.814 23.8751C171.308 23.8751 170.913 24.041 170.627 24.3725C170.339 24.6905 170.197 25.1258 170.197 25.6785V31.8763H165.65V20.1854H170.197V21.9681C170.551 21.4154 171.022 20.9661 171.61 20.6207C172.211 20.2753 172.92 20.1025 173.739 20.1025Z" fill="#FF3369"/>
<path d="M89.8872 40.0015V54.6774H85.3615V47.3602L83.1295 54.6774H79.2387L77.0065 47.3602V54.6774H72.4604V40.0015H78.0305L81.225 48.8113L84.3377 40.0015H89.8872Z" fill="#111726"/>
<path d="M98.2455 54.823C97.0851 54.823 96.0407 54.5811 95.1124 54.0974C94.1841 53.6138 93.4537 52.9229 92.9212 52.0246C92.4025 51.1125 92.1431 50.0485 92.1431 48.8324C92.1431 47.6163 92.4025 46.5592 92.9212 45.6609C93.4537 44.7488 94.1841 44.051 95.1124 43.5673C96.0407 43.0836 97.0851 42.8418 98.2455 42.8418C99.406 42.8418 100.45 43.0836 101.379 43.5673C102.307 44.051 103.031 44.7488 103.549 45.6609C104.082 46.5592 104.348 47.6163 104.348 48.8324C104.348 50.0485 104.082 51.1125 103.549 52.0246C103.031 52.9229 102.307 53.6138 101.379 54.0974C100.45 54.5811 99.406 54.823 98.2455 54.823ZM98.2455 50.8431C98.6687 50.8431 99.0236 50.6773 99.3103 50.3456C99.597 50.0002 99.7404 49.4956 99.7404 48.8324C99.7404 48.1691 99.597 47.6716 99.3103 47.3399C99.0236 46.9945 98.6687 46.8217 98.2455 46.8217C97.8223 46.8217 97.4673 46.9945 97.1806 47.3399C96.8939 47.6716 96.7506 48.1691 96.7506 48.8324C96.7506 49.4956 96.8871 50.0002 97.1602 50.3456C97.4469 50.6773 97.8086 50.8431 98.2455 50.8431Z" fill="#111726"/>
<path d="M114.684 42.9048C116.008 42.9048 117.039 43.3539 117.776 44.2521C118.527 45.1504 118.902 46.3664 118.902 47.9004V54.6786H114.377V48.4808C114.377 47.928 114.227 47.4927 113.926 47.1748C113.64 46.8432 113.251 46.6773 112.759 46.6773C112.254 46.6773 111.858 46.8432 111.571 47.1748C111.285 47.4927 111.141 47.928 111.141 48.4808V54.6786H106.595V42.9876H111.141V44.7704C111.496 44.2176 111.967 43.7684 112.554 43.4229C113.155 43.0775 113.865 42.9048 114.684 42.9048Z" fill="#111726"/>
<path d="M126.833 54.823C125.741 54.823 124.772 54.6434 123.925 54.2841C123.092 53.9247 122.43 53.4273 121.939 52.7916C121.447 52.1559 121.167 51.4373 121.099 50.6357H125.46C125.516 50.9813 125.659 51.237 125.891 51.4028C126.137 51.5685 126.443 51.6515 126.812 51.6515C127.044 51.6515 127.228 51.6031 127.366 51.5064C127.502 51.3958 127.57 51.2645 127.57 51.1125C127.57 50.85 127.426 50.6634 127.14 50.5529C126.854 50.4423 126.369 50.318 125.686 50.1797C124.854 50.0139 124.164 49.8343 123.618 49.6408C123.085 49.4473 122.614 49.1157 122.205 48.6458C121.809 48.176 121.611 47.5264 121.611 46.6973C121.611 45.9788 121.795 45.3292 122.164 44.7488C122.546 44.1546 123.106 43.6916 123.843 43.36C124.58 43.0145 125.474 42.8418 126.525 42.8418C128.083 42.8418 129.298 43.2288 130.171 44.0026C131.058 44.7764 131.59 45.7852 131.768 47.029H127.734C127.666 46.7112 127.522 46.4693 127.304 46.3035C127.086 46.1238 126.792 46.0341 126.423 46.0341C126.191 46.0341 126.013 46.0824 125.891 46.1791C125.768 46.2621 125.707 46.3933 125.707 46.5729C125.707 46.8079 125.85 46.9876 126.137 47.1119C126.423 47.2225 126.88 47.3399 127.508 47.4643C128.341 47.6301 129.044 47.8167 129.618 48.024C130.191 48.2313 130.689 48.5905 131.112 49.1019C131.536 49.5993 131.748 50.2903 131.748 51.1747C131.748 51.8657 131.55 52.4876 131.154 53.0403C130.758 53.5931 130.185 54.0284 129.434 54.3462C128.696 54.6641 127.829 54.823 126.833 54.823Z" fill="#111726"/>
<path d="M141.559 50.7598V54.6775H139.839C136.672 54.6775 135.088 53.0814 135.088 49.8892V46.8213H133.653V42.9865H135.088V40.1675H139.633V42.9865H141.517V46.8213H139.633V49.9722C139.633 50.2486 139.695 50.4489 139.817 50.5733C139.955 50.6977 140.173 50.7598 140.473 50.7598H141.559Z" fill="#111726"/>
<path d="M155.29 48.7288C155.29 49.0466 155.27 49.3506 155.228 49.6408H147.918C147.986 50.6496 148.403 51.154 149.168 51.154C149.658 51.154 150.013 50.926 150.231 50.47H155.044C154.88 51.2991 154.533 52.0454 154 52.7086C153.48 53.3582 152.819 53.8764 152.013 54.2633C151.222 54.6364 150.347 54.823 149.392 54.823C148.245 54.823 147.222 54.5811 146.321 54.0974C145.434 53.6138 144.737 52.9229 144.231 52.0246C143.74 51.1125 143.494 50.0485 143.494 48.8324C143.494 47.6163 143.74 46.5592 144.231 45.6609C144.737 44.7488 145.434 44.051 146.321 43.5673C147.222 43.0836 148.245 42.8418 149.392 42.8418C150.539 42.8418 151.556 43.0836 152.443 43.5673C153.344 44.0372 154.041 44.7143 154.533 45.5987C155.038 46.4832 155.29 47.5264 155.29 48.7288ZM150.683 47.6301C150.683 47.2432 150.559 46.953 150.313 46.7595C150.068 46.5522 149.761 46.4486 149.392 46.4486C148.587 46.4486 148.116 46.8425 147.979 47.6301H150.683Z" fill="#111726"/>
<path d="M162.092 45.1434C162.557 44.4663 163.123 43.9273 163.792 43.5266C164.462 43.112 165.157 42.9048 165.881 42.9048V47.8174H164.591C163.731 47.8174 163.097 47.9694 162.687 48.2735C162.29 48.5775 162.092 49.1165 162.092 49.8903V54.6786H157.547V42.9876H162.092V45.1434Z" fill="#111726"/>
<path d="M173.065 54.823C171.972 54.823 171.003 54.6434 170.157 54.2841C169.324 53.9247 168.663 53.4273 168.17 52.7916C167.68 52.1559 167.399 51.4373 167.331 50.6357H171.692C171.748 50.9813 171.89 51.237 172.122 51.4028C172.368 51.5685 172.675 51.6515 173.045 51.6515C173.276 51.6515 173.461 51.6031 173.597 51.5064C173.734 51.3958 173.802 51.2645 173.802 51.1125C173.802 50.85 173.658 50.6634 173.372 50.5529C173.085 50.4423 172.601 50.318 171.918 50.1797C171.085 50.0139 170.396 49.8343 169.85 49.6408C169.317 49.4473 168.847 49.1157 168.437 48.6458C168.04 48.176 167.842 47.5264 167.842 46.6973C167.842 45.9788 168.027 45.3292 168.396 44.7488C168.779 44.1546 169.338 43.6916 170.074 43.36C170.813 43.0145 171.706 42.8418 172.757 42.8418C174.314 42.8418 175.529 43.2288 176.403 44.0026C177.29 44.7764 177.822 45.7852 178 47.029H173.966C173.898 46.7112 173.754 46.4693 173.536 46.3035C173.317 46.1238 173.023 46.0341 172.655 46.0341C172.423 46.0341 172.246 46.0824 172.122 46.1791C172 46.2621 171.938 46.3933 171.938 46.5729C171.938 46.8079 172.082 46.9876 172.368 47.1119C172.655 47.2225 173.113 47.3399 173.74 47.4643C174.573 47.6301 175.276 47.8167 175.85 48.024C176.423 48.2313 176.921 48.5905 177.345 49.1019C177.768 49.5993 177.98 50.2903 177.98 51.1747C177.98 51.8657 177.782 52.4876 177.385 53.0403C176.989 53.5931 176.416 54.0284 175.666 54.3462C174.929 54.6641 174.062 54.823 173.065 54.823Z" fill="#111726"/>
</svg>
