<svg width="24" height="24" viewBox="0 0 24 24" fill="none" xmlns="http://www.w3.org/2000/svg">
<path d="M9.55429 0C10.0671 0 10.4898 0.38604 10.5476 0.883379L10.5543 1L10.5561 2.51524L10.5633 2.77007L10.5721 2.87235L10.5848 2.94472C10.6749 3.33518 10.9597 3.67561 11.3681 3.86313L11.4765 3.90512L11.645 3.95532L12.891 4.25467L13.1368 4.32224C13.2672 4.36119 13.3822 4.40195 13.4935 4.44974C14.5264 4.89316 15.2753 5.78843 15.4915 6.85914L15.516 7.001L17.2344 7.00159L17.8306 7.00794C17.9254 7.00948 18.018 7.01129 18.1084 7.01338L18.626 7.02953L19.0963 7.05368C19.171 7.05844 19.2439 7.06358 19.315 7.06913L19.7221 7.10749C20.8859 7.23838 21.5502 7.51693 22.2146 8.08574C22.5353 8.36031 22.8211 8.67916 23.065 9.03389L23.1973 9.23442L23.3166 9.4345C23.3542 9.50151 23.3899 9.56905 23.4236 9.6377L23.519 9.84761L23.6034 10.0678C23.6562 10.2189 23.7021 10.3792 23.7419 10.5535L23.7973 10.8261C23.8059 10.8735 23.814 10.9219 23.8219 10.9715L23.865 11.2824C23.8715 11.3366 23.8778 11.3921 23.8837 11.4489L23.916 11.8063L23.9419 12.199L23.962 12.6307L23.9769 13.1051L23.9942 14.1958L23.9987 15.5L23.9912 17.0957L23.9769 17.8949L23.962 18.3693L23.9419 18.801L23.916 19.1937C23.9112 19.2562 23.9061 19.3171 23.9007 19.3766L23.865 19.7176L23.8219 20.0286C23.814 20.0781 23.8059 20.1265 23.7973 20.1739L23.7419 20.4465C23.702 20.6209 23.6562 20.7812 23.6034 20.9322L23.519 21.1524L23.4236 21.3623C23.3899 21.431 23.3542 21.4985 23.3165 21.5655L23.1972 21.7656L23.065 21.9662C22.8211 22.3209 22.5353 22.6397 22.2146 22.9143C22.146 22.973 22.0781 23.0286 22.0103 23.0812L21.8064 23.2303C21.1906 23.652 20.5215 23.8468 19.2877 23.9338L18.8549 23.959L18.3759 23.9772L17.8468 23.9894L16.9497 23.9985L7.72096 24L7.04781 23.9985L6.15069 23.9894L5.62155 23.9772L5.14266 23.959C5.06679 23.9554 4.99285 23.9515 4.92073 23.9473L4.50931 23.9183L4.1376 23.8808C3.25448 23.7756 2.7043 23.5818 2.19118 23.2304L1.9872 23.0812C1.9194 23.0286 1.85156 22.973 1.78298 22.9143C1.46226 22.6397 1.17647 22.3209 0.932489 21.9662C0.90615 21.9279 0.880535 21.8896 0.855626 21.8512L0.714474 21.6194C0.381979 21.0341 0.199471 20.3922 0.102164 19.3981L0.0676325 18.981L0.0412674 18.5222L0.0221476 18.0173L0.00935182 17.4623L0 16.5265V14.4723L0.00935246 13.5368L0.0221481 12.982L0.0412678 12.4773L0.0676329 12.0185L0.102165 11.6016C0.199471 10.6077 0.381979 9.96589 0.714476 9.38061L0.855627 9.14881L0.93249 9.03387C1.17645 8.67914 1.46223 8.36029 1.78295 8.08573C2.48427 7.48532 3.18545 7.20833 4.47458 7.08701L4.9019 7.05368C4.97661 7.04893 5.05311 7.04455 5.13151 7.04053L5.62518 7.02053L6.16823 7.00794L6.76477 7.00159L13.45 7.00128C13.3138 6.69443 13.0514 6.43645 12.7046 6.28754L12.6199 6.25596L12.4313 6.20163L11.1725 5.89938L10.9784 5.84486C10.8126 5.7954 10.6702 5.74345 10.5334 5.68061C9.57044 5.23845 8.86791 4.39864 8.63607 3.3948L8.60442 3.24232L8.58211 3.09071L8.56754 2.92006L8.55671 2.58486L8.55429 1C8.55429 0.447715 9.00201 0 9.55429 0ZM17.1994 9.00143H6.79981L6.27055 9.00669L5.79622 9.01667L5.37292 9.03196L4.99671 9.05313L4.66369 9.08076L4.36993 9.11546C4.27811 9.12827 4.19219 9.14234 4.1115 9.15779L3.8845 9.20836C3.53017 9.29981 3.29043 9.42797 3.08362 9.60503C2.89588 9.76575 2.72656 9.95465 2.58039 10.1672L2.48957 10.3108C2.36055 10.5338 2.26348 10.7948 2.19125 11.1484L2.1467 11.3984C2.13986 11.4425 2.13331 11.4879 2.12704 11.5348L2.09265 11.8326C2.08744 11.8851 2.0825 11.9392 2.0778 11.9949L2.05252 12.3486L2.02474 12.9586L2.00772 13.6746L2.00158 14.2168V16.7821L2.01229 17.5758L2.03272 18.2554L2.06444 18.8329L2.09265 19.1672C2.09785 19.2198 2.10331 19.2708 2.10904 19.3205L2.1467 19.6015L2.19125 19.8516C2.26348 20.2052 2.36055 20.4662 2.48956 20.6892L2.58038 20.8328C2.72656 21.0454 2.89587 21.2343 3.08363 21.395C3.1221 21.4279 3.16122 21.4591 3.20162 21.4887L3.32732 21.5725L3.46457 21.647C3.53672 21.682 3.61464 21.7137 3.7005 21.7423L3.88342 21.7957C3.94834 21.8122 4.01743 21.8274 4.09133 21.8415L4.32807 21.8803C4.37015 21.8862 4.41358 21.8918 4.45846 21.8972L4.74566 21.9264L5.07129 21.9499L5.4392 21.9682L6.07873 21.9871L6.835 21.9971L16.2765 22L17.1625 21.9971L17.9188 21.9871L18.5583 21.9682L18.9262 21.9499L19.2519 21.9264L19.539 21.8972C19.5839 21.8918 19.6274 21.8862 19.6694 21.8803L19.9062 21.8415C19.9801 21.8274 20.0492 21.8122 20.1141 21.7957L20.297 21.7423C20.4401 21.6945 20.5612 21.6384 20.6702 21.5725L20.7959 21.4887C20.8363 21.4591 20.8754 21.4279 20.9139 21.395C21.1017 21.2342 21.271 21.0453 21.4171 20.8329C21.447 20.7895 21.4753 20.7454 21.5023 20.7002L21.579 20.5603L21.6143 20.4866L21.6791 20.3291L21.7365 20.1554L21.7868 19.9619C21.7946 19.9278 21.8022 19.8928 21.8095 19.8567L21.8501 19.6267L21.8848 19.3681L21.914 19.077L21.938 18.75L21.9574 18.3834L21.9725 17.9737L21.988 17.2705L21.9943 16.7372L21.9987 15.5L21.988 13.7296L21.9786 13.2484L21.9574 12.6166L21.938 12.25L21.914 11.923L21.8848 11.632L21.8501 11.3733C21.8439 11.3327 21.8374 11.2932 21.8306 11.2549L21.7868 11.0381L21.7365 10.8446L21.6791 10.6709L21.6143 10.5135C21.5914 10.4633 21.5673 10.4152 21.5417 10.3686L21.4608 10.2328L21.4171 10.1672C21.271 9.95469 21.1017 9.76578 20.9139 9.60503C20.7071 9.42797 20.4673 9.29981 20.1131 9.20836L19.8862 9.1578C19.8055 9.14235 19.7196 9.12827 19.6278 9.11546L19.3342 9.08076L19.0013 9.05313L18.6253 9.03196L18.2023 9.01668L17.7283 9.0067L17.1994 9.00143ZM6.99874 12C7.51157 12 7.93425 12.386 7.99201 12.8834L7.99874 13L7.998 14.5H9.49874C10.051 14.5 10.4987 14.9477 10.4987 15.5C10.4987 16.0128 10.1127 16.4355 9.61536 16.4933L9.49874 16.5H7.998L7.99874 18C7.99874 18.5523 7.55102 19 6.99874 19C6.4859 19 6.06323 18.614 6.00547 18.1166L5.99874 18L5.998 16.5H4.49874C3.94645 16.5 3.49874 16.0523 3.49874 15.5C3.49874 14.9872 3.88478 14.5645 4.38212 14.5067L4.49874 14.5H5.998L5.99874 13C5.99874 12.4477 6.44645 12 6.99874 12ZM15.221 16C15.896 16 16.4432 16.5472 16.4432 17.2222C16.4432 17.8972 15.896 18.4444 15.221 18.4444C14.5459 18.4444 13.9987 17.8972 13.9987 17.2222C13.9987 16.5472 14.5459 16 15.221 16ZM18.6654 13C19.3404 13 19.8876 13.5472 19.8876 14.2222C19.8876 14.8972 19.3404 15.4444 18.6654 15.4444C17.9904 15.4444 17.4432 14.8972 17.4432 14.2222C17.4432 13.5472 17.9904 13 18.6654 13Z" fill="url(#paint0_linear_83_1639)"/>
<defs>
<linearGradient id="paint0_linear_83_1639" x1="0" y1="0" x2="28.234" y2="7.05813" gradientUnits="userSpaceOnUse">
<stop stop-color="#655FF3"/>
<stop offset="1" stop-color="#CD3DF6"/>
</linearGradient>
</defs>
</svg>
