<svg width="24" height="24" viewBox="0 0 24 24" fill="none" xmlns="http://www.w3.org/2000/svg">
<g clip-path="url(#clip0_83_1680)">
<path d="M12.0002 0C12.513 0 12.9357 0.38604 12.9935 0.883379L13.0002 1L13 2.862L14.4235 5.15294L14.8025 5.77957L15.0132 6.14186L15.1068 6.30851L15.2719 6.61639L15.4094 6.89517C15.6632 7.43851 15.7579 7.83561 15.7776 8.30565L15.7817 8.5122L15.7804 8.63154C15.7703 9.07706 15.7001 9.44815 15.5022 9.92026L15.4094 10.1293L15.2333 10.4821L15.0132 10.8826L14.8025 11.2449L14.4565 11.8172L14.5833 11.7513L14.7816 11.6588L14.9822 11.5796L15.1906 11.5129L15.4122 11.4579L15.5905 11.4237L15.7816 11.3952L16.0605 11.3653L16.372 11.3439L16.9122 11.3258L17.3291 11.3218L18.0532 11.3256L20.821 11.369L22.5134 10.4269C22.9959 10.158 23.6049 10.3312 23.8737 10.8136C24.1233 11.2616 23.9919 11.8188 23.5855 12.1113L23.4869 12.1739L21.802 13.112L20.7369 14.9654L20.259 15.7895L19.9846 16.249L19.7586 16.6087L19.6244 16.8091L19.4321 17.0747L19.3007 17.2425C18.9457 17.6836 18.5767 18.0097 18.1367 18.2548L18.0351 18.3101L17.9351 18.3617L17.7367 18.4542L17.5361 18.5334L17.3277 18.6001L17.1061 18.6551L16.9278 18.6893L16.7367 18.7178L16.4578 18.7477L16.1464 18.7691L15.6062 18.7872L15.1893 18.7912L14.4651 18.7874L13 18.764L13.0002 23C13.0002 23.5523 12.5525 24 12.0002 24C11.4873 24 11.0647 23.614 11.0069 23.1166L11.0002 23L11 18.763L10.092 18.7795L9.03862 18.7911L8.39421 18.7872L7.854 18.7691L7.54256 18.7477L7.26366 18.7178L7.07252 18.6893L6.89427 18.6551L6.67263 18.6001C6.55369 18.5663 6.44089 18.5272 6.32998 18.4821L6.16451 18.4097L5.96521 18.3101L5.86365 18.2548C5.48655 18.0447 5.16164 17.7752 4.85296 17.4248L4.69981 17.2427L4.5684 17.0749L4.44057 16.9013L4.24179 16.6088L4.01576 16.2491L3.63539 15.6086L2.199 13.113L0.513439 12.1739C0.0309931 11.9051 -0.142185 11.2961 0.126635 10.8137C0.376254 10.3657 0.919209 10.1844 1.38177 10.376L1.48692 10.4269L3.177 11.369L5.39035 11.3335L6.44375 11.3219L7.08815 11.3258L7.62836 11.3439L7.9398 11.3653L8.21869 11.3952L8.40983 11.4237L8.58808 11.4579L8.80972 11.5129C8.92866 11.5467 9.04146 11.5858 9.15236 11.6309L9.31783 11.7033L9.543 11.816L9.19787 11.2449L8.98714 10.8826L8.80738 10.558L8.72842 10.4081L8.59098 10.1293C8.39558 9.71108 8.2945 9.37949 8.24932 9.03461L8.23121 8.86059L8.21995 8.63154V8.39285L8.23121 8.1638C8.25881 7.81173 8.33591 7.48961 8.50093 7.09751L8.59095 6.89517L8.76699 6.54237L8.98711 6.14185L9.19785 5.77957L9.57682 5.15294L11 2.861L11.0002 1C11.0002 0.447715 11.4479 0 12.0002 0ZM17.633 13.3224L17.2463 13.3227L16.8281 13.3293L16.48 13.3438C15.9644 13.3744 15.6869 13.44 15.4447 13.5583L15.2971 13.6389L15.2405 13.6746L15.1299 13.7546L15.0751 13.8L15.0201 13.8497L14.8789 13.9968L14.7271 14.1837L14.5937 14.3679L14.4461 14.5879L14.2808 14.8484L13.8839 15.5089L13.157 16.766L14.6716 16.7892L15.272 16.7903L15.6903 16.7837L16.0383 16.7692C16.6184 16.7348 16.8971 16.656 17.1632 16.5078C17.3234 16.4185 17.4687 16.3005 17.624 16.1283L17.7426 15.9886L17.8439 15.8585L18.0001 15.6399L18.2432 15.2621L18.4742 14.8786L19.361 13.346L18.5775 13.3332L17.633 13.3224ZM6.75402 13.3227L6.1536 13.3238L4.63901 13.346L5.43649 14.7264L5.75718 15.2621L5.94455 15.5568L6.10565 15.7899L6.25786 15.9887C6.45997 16.2398 6.63697 16.3962 6.83717 16.5078C7.0737 16.6396 7.32014 16.7164 7.77942 16.756L7.96202 16.7692L8.31007 16.7837L8.72834 16.7903L9.32876 16.7892L10.843 16.766L10.4853 16.1447L10.0079 15.3249L9.71959 14.8484L9.55429 14.588L9.40662 14.3679L9.27324 14.1837L9.12148 13.9968L8.98026 13.8497L8.89786 13.7768L8.81549 13.713L8.70326 13.6389L8.57208 13.5665C8.3567 13.4584 8.11676 13.3929 7.70684 13.3573L7.52034 13.3438L7.17228 13.3293L6.75402 13.3227ZM12 5.04L11.1887 6.35077L10.7959 7.01007L10.6453 7.27727L10.4698 7.61408L10.3647 7.84684L10.2917 8.04646L10.2534 8.18885L10.2401 8.256L10.2236 8.38533L10.2198 8.44876V8.57564L10.2236 8.63907L10.2303 8.70312L10.2534 8.83556L10.2705 8.9052L10.2917 8.97796L10.3477 9.13533L10.383 9.22118L10.4699 9.41036L10.6453 9.74718L10.7959 10.0144L10.9762 10.3215L11.3078 10.8681L12 11.984L12.6822 10.885L13.0035 10.3561L13.2578 9.92113L13.4523 9.56534L13.5524 9.36477L13.6312 9.18837L13.6633 9.10785L13.7143 8.95945L13.7494 8.82421L13.7707 8.69774L13.7805 8.57564V8.44876L13.7701 8.32128L13.7602 8.256L13.7469 8.18885L13.6964 8.00871L13.6174 7.80325L13.5767 7.71178L13.4783 7.5095L13.3551 7.27726L13.1182 6.86178L12.922 6.53276L12 5.04Z" fill="url(#paint0_linear_83_1680)"/>
</g>
<defs>
<linearGradient id="paint0_linear_83_1680" x1="0" y1="0" x2="28.2357" y2="7.05902" gradientUnits="userSpaceOnUse">
<stop stop-color="#655FF3"/>
<stop offset="1" stop-color="#CD3DF6"/>
</linearGradient>
<clipPath id="clip0_83_1680">
<rect width="24" height="24" fill="white"/>
</clipPath>
</defs>
</svg>
