<svg width="24" height="24" viewBox="0 0 24 24" fill="none" xmlns="http://www.w3.org/2000/svg">
<path d="M20.1781 0.000937692C21.0879 -0.0141356 21.6641 0.152182 22.2352 0.524115L22.4371 0.663963C22.4709 0.688707 22.5048 0.714173 22.5389 0.740364L22.7365 0.899747C23.4268 1.48677 23.7452 2.12209 23.8885 3.44894L23.9234 3.82843L23.9505 4.24512L23.9707 4.70189L23.9899 5.46857L23.9986 6.34176L24 7.15346V14.0076L23.999 14.007L23.9999 16.8547L23.9926 17.3999L23.9823 17.5821L23.9656 17.7366L23.9408 17.8882C23.7004 19.187 22.7562 20.2665 21.4605 20.7361C21.3304 20.7833 21.1959 20.8223 21.0392 20.8596L20.9182 20.8873L20.7025 20.932L19.6383 21.1328L19.1505 21.2183L18.9747 21.2397L18.7125 21.2562C16.6694 21.3216 14.8843 19.8928 14.6505 17.9375L14.6367 17.7906L14.6292 17.6201L14.6256 16.9589L14.6286 16.6364L14.6345 16.4983L14.6453 16.3756C14.834 14.5969 16.3237 13.2008 18.1934 13.0265L18.3618 13.0151L18.5667 13.0099L21.938 13.008V8.364L9.373 10.72L9.37246 19.7488L9.36844 20.0534L9.35885 20.2778L9.34143 20.4579L9.31396 20.6298C9.07366 21.9286 8.12938 23.0081 6.83358 23.4777C6.74686 23.5092 6.65818 23.537 6.56226 23.5631L6.227 23.6429L5.59892 23.7644L4.67421 23.9356L4.4612 23.9687L4.29071 23.9863C2.16325 24.1579 0.265268 22.6996 0.0237179 20.6795L0.011157 20.5545L0.00140199 20.3318L0 19.4753L0.00754135 19.2424L0.0184411 19.1173C0.200463 17.4021 1.59212 16.0427 3.36776 15.7915L3.63206 15.7626L3.94167 15.7514L7.31109 15.7498L7.31365 6.9515L7.31915 6.42622L7.33746 5.73917L7.35816 5.34134L7.38708 4.98602L7.42546 4.6684C7.52699 3.96748 7.71569 3.53489 8.06163 3.09434L8.21972 2.90424C8.81158 2.22761 9.56864 1.87824 10.9117 1.56613L11.4917 1.44L11.7105 1.39584L16.7645 0.447858L17.3584 0.342902L18.1592 0.210901L18.6376 0.140201L19.0755 0.0836185C19.1453 0.0753776 19.2135 0.0677347 19.2803 0.0606949L19.6634 0.025731C19.7244 0.0211228 19.7841 0.0171275 19.8425 0.01375L20.1781 0.000937692ZM7.31109 17.7479L3.9048 17.7504L3.76367 17.7572C2.85987 17.8414 2.15574 18.5013 2.06868 19.3217L2.06351 19.3958L2.06009 19.6152L2.06324 20.3287L2.07106 20.4494C2.18282 21.384 3.08653 22.0784 4.12051 21.995L4.2276 21.982L4.77407 21.884L5.77349 21.6935L5.92061 21.6608C6.00404 21.6409 6.06316 21.6238 6.11171 21.6062C6.7318 21.3814 7.1746 20.8752 7.28527 20.277L7.29675 20.1972L7.30722 20.0185L7.31155 19.7038L7.31109 17.7479ZM21.9384 15.0064L18.6999 15.007L18.4282 15.0127L18.2331 15.0363C17.406 15.178 16.7775 15.8079 16.6955 16.5798L16.6895 16.6789L16.6887 17.5275L16.6979 17.7077C16.8096 18.6424 17.7134 19.3367 18.7474 19.2533L18.8545 19.2404L19.8343 19.061L20.5475 18.9191L20.686 18.8821L20.7386 18.8645C21.3586 18.6398 21.8014 18.1336 21.9121 17.5354L21.9266 17.4238L21.9365 17.1693L21.9384 15.0064ZM20.1801 2.01631L19.9341 2.02204L19.6551 2.04016L19.3395 2.07089L18.7905 2.14107L18.369 2.2042L17.6453 2.32393L16.1669 2.59195L12.0253 3.37312L11.6379 3.45412L11.2257 3.54883C10.4658 3.73517 10.0813 3.90713 9.84718 4.13768L9.75413 4.24143L9.6857 4.33674L9.62563 4.44303C9.61629 4.46189 9.60728 4.48138 9.59858 4.5016L9.55012 4.63221C9.54265 4.65566 9.53547 4.67999 9.52858 4.70531L9.49059 4.86969C9.48481 4.89929 9.47928 4.93004 9.47401 4.96203L9.44537 5.16962L9.42232 5.41125L9.40437 5.69113L9.39101 6.01343L9.37605 6.80212L9.37315 7.53622L9.373 8.684L21.936 6.329L21.9358 6.10545L21.9252 5.34623L21.9059 4.69962L21.8874 4.32586L21.864 3.99428C21.8596 3.94236 21.855 3.89206 21.8502 3.84333L21.8184 3.56912L21.7805 3.32924C21.7737 3.29194 21.7666 3.25594 21.7592 3.22118L21.7113 3.02686L21.6564 2.859C21.5976 2.70332 21.5275 2.58259 21.444 2.48266L21.356 2.38914L21.2587 2.30634L21.1499 2.23096L21.0317 2.16656C20.9076 2.10772 20.7642 2.06564 20.5863 2.04125L20.3964 2.02278C20.3289 2.01862 20.257 2.01645 20.1801 2.01631Z" fill="url(#paint0_linear_85_3302)"/>
<defs>
<linearGradient id="paint0_linear_85_3302" x1="0" y1="0" x2="28.2353" y2="7.05882" gradientUnits="userSpaceOnUse">
<stop stop-color="#655FF3"/>
<stop offset="1" stop-color="#CD3DF6"/>
</linearGradient>
</defs>
</svg>
