<svg width="32" height="32" viewBox="0 0 32 32" fill="none" xmlns="http://www.w3.org/2000/svg">
<path d="M9.48998 7.4668C14.1423 7.4668 17.9133 11.2876 17.9133 16.0002C17.9133 20.713 14.1419 24.5335 9.48998 24.5335C4.83825 24.5335 1.06665 20.713 1.06665 16.0002C1.06665 11.2877 4.8379 7.4668 9.48998 7.4668ZM22.9417 7.96662C25.2678 7.96662 27.1534 11.5631 27.1534 16.0002C27.1534 20.4364 25.2681 24.0339 22.9421 24.0339C20.6161 24.0339 18.7303 20.4364 18.7303 16.0002C18.7303 11.5643 20.6156 7.96662 22.9417 7.96662ZM29.452 8.80346C30.27 8.80346 30.9333 12.0256 30.9333 16.0004C30.9333 19.9739 30.2702 23.1973 29.452 23.1973C28.6338 23.1973 27.971 19.9748 27.971 16.0004C27.971 12.0258 28.6342 8.80346 29.452 8.80346Z" fill="#1F1F22"/>
</svg>
