<svg width="18" height="15" viewBox="0 0 18 15" fill="none" xmlns="http://www.w3.org/2000/svg">
<path d="M1.10355 6.53254C1.10355 6.53254 9.06452 3.23976 11.8255 2.08029C12.8839 1.61654 16.4733 0.132411 16.4733 0.132411C16.4733 0.132411 18.1299 -0.516838 17.9918 1.05997C17.9458 1.70929 17.5777 3.98175 17.2095 6.43979C16.6573 9.91813 16.0591 13.7211 16.0591 13.7211C16.0591 13.7211 15.9671 14.7878 15.1848 14.9733C14.4025 15.1588 13.114 14.324 12.8839 14.1385C12.6998 13.9994 9.43263 11.9123 8.2362 10.892C7.91406 10.6138 7.54595 10.0573 8.28218 9.40797C9.93882 7.8775 11.9175 5.97604 13.114 4.77022C13.6662 4.21366 14.2184 2.9151 11.9175 4.49191C8.65036 6.76444 5.42916 8.89782 5.42916 8.89782C5.42916 8.89782 4.69286 9.36157 3.31237 8.94416C1.93181 8.52682 0.321209 7.97025 0.321209 7.97025C0.321209 7.97025 -0.783137 7.2746 1.10355 6.53254Z" fill="white"/>
</svg>
