<svg width="32" height="32" viewBox="0 0 32 32" fill="none" xmlns="http://www.w3.org/2000/svg">
<path d="M2.63614 15.2261C2.63614 15.2261 13.9584 10.7772 17.8852 9.2106C19.3905 8.58402 24.4953 6.5788 24.4953 6.5788C24.4953 6.5788 26.8514 5.7016 26.655 7.83204C26.5895 8.70934 26.066 11.7797 25.5425 15.1008C24.7571 19.8004 23.9062 24.9386 23.9062 24.9386C23.9062 24.9386 23.7754 26.3798 22.6628 26.6305C21.5502 26.8811 19.7176 25.7533 19.3905 25.5026C19.1286 25.3146 14.482 22.4948 12.7804 21.1163C12.3222 20.7403 11.7987 19.9884 12.8458 19.1111C15.2019 17.0433 18.016 14.4742 19.7176 12.845C20.503 12.093 21.2884 10.3385 18.016 12.469C13.3694 15.5394 8.78812 18.4218 8.78812 18.4218C8.78812 18.4218 7.74095 19.0484 5.77758 18.4845C3.81411 17.9206 1.52348 17.1686 1.52348 17.1686C1.52348 17.1686 -0.0471449 16.2287 2.63614 15.2261Z" fill="#1F1F22"/>
</svg>
