<svg width="24" height="24" viewBox="0 0 24 24" fill="none" xmlns="http://www.w3.org/2000/svg">
<g clip-path="url(#clip0_83_1674)">
<path d="M9.97565 0.733361C11.1998 -0.286973 13.0002 -0.242609 14.1743 0.86648C15.7718 2.37565 17.3878 4.16286 18.7633 6.12774C20.8037 9.04234 22 11.9093 22 14.6937C22 19.8841 17.4759 24 12 24C6.52412 24 2 19.8842 2 14.6937C2 11.9093 3.19626 9.04243 5.23671 6.12775C6.61228 4.1628 8.22842 2.37541 9.82569 0.866469L9.97565 0.733361ZM12.8009 2.32033C12.3487 1.89322 11.6513 1.89322 11.1991 2.32033C9.69244 3.74368 8.16261 5.43562 6.87513 7.27474C5.04836 9.8842 4 12.3966 4 14.6937C4 18.7352 7.5887 22 12 22C16.4113 22 20 18.7352 20 14.6937C20 12.3966 18.9516 9.88412 17.1248 7.27473C15.8374 5.43567 14.3077 3.7439 12.8009 2.32033ZM7 13C7.55228 13 8 13.4477 8 14C8 14.5253 8.10345 15.0454 8.30448 15.5307C8.50552 16.016 8.80017 16.457 9.17163 16.8284C9.54299 17.1999 9.98389 17.4945 10.4693 17.6955C10.8738 17.863 11.3024 17.9628 11.738 17.9914L12 18C12.5523 18 13 18.4477 13 19C13 19.5523 12.5523 20 12 20C11.2121 20 10.432 19.8448 9.704 19.5433C8.97591 19.2417 8.31445 18.7998 7.75738 18.2426C7.20025 17.6855 6.75827 17.0241 6.45672 16.2961C6.15519 15.5681 6 14.7879 6 14C6 13.4477 6.44772 13 7 13Z" fill="url(#paint0_linear_83_1674)"/>
</g>
<defs>
<linearGradient id="paint0_linear_83_1674" x1="2" y1="0" x2="25.9601" y2="4.99168" gradientUnits="userSpaceOnUse">
<stop stop-color="#655FF3"/>
<stop offset="1" stop-color="#CD3DF6"/>
</linearGradient>
<clipPath id="clip0_83_1674">
<rect width="24" height="24" fill="white"/>
</clipPath>
</defs>
</svg>
