<svg width="24" height="24" viewBox="0 0 24 24" fill="none" xmlns="http://www.w3.org/2000/svg">
<path d="M12 0C18.5103 0 23.8288 5.19123 23.9962 11.6987L24 12C24 18.5103 18.8088 23.8288 12.3013 23.9962L12 24C5.37257 24 0 18.6274 0 12C0 5.48973 5.19125 0.171193 11.6987 0.00379002L12 0ZM12 2L11.7373 2.00338C6.3262 2.14264 2 6.57493 2 12C2 17.5229 6.47714 22.0001 11.9871 22.0001L12.2627 21.9966C17.6738 21.8574 22.0001 17.4251 22.0001 12.0129L21.9966 11.7373C21.8574 6.32619 17.4251 2 12 2ZM12.2116 6C14.8253 6 17 7.9401 17 10.3334C17 12.1466 15.7836 13.6998 14.0573 14.346L17 19H14.2654L10.132 12.4745H12.2259C13.5365 12.4745 14.5989 11.5044 14.5989 10.3078C14.5989 9.11123 13.5365 8.14117 12.2259 8.14117H7.34011L6 6H12.2116Z" fill="url(#paint0_linear_83_1645)"/>
<defs>
<linearGradient id="paint0_linear_83_1645" x1="0" y1="0" x2="28.2353" y2="7.05882" gradientUnits="userSpaceOnUse">
<stop stop-color="#655FF3"/>
<stop offset="1" stop-color="#CD3DF6"/>
</linearGradient>
</defs>
</svg>
