<svg width="24" height="24" viewBox="0 0 24 24" fill="none" xmlns="http://www.w3.org/2000/svg">
<g clip-path="url(#clip0_83_1677)">
<path d="M11.9891 9C12.7219 9 13.4382 9.24669 14.048 9.70895C14.5899 10.1198 15.0261 10.6848 15.3142 11.3456L15.4153 11.5978C15.765 12.5102 16.1571 13.2652 16.5195 13.8619L16.756 14.2361L16.979 14.5634C17.0147 14.6141 17.0498 14.6627 17.0839 14.7094L17.2778 14.9661L17.4463 15.1756L17.5849 15.3378C18.0268 15.7312 18.3839 16.2342 18.6291 16.8083C18.8743 17.3823 19.0011 18.0125 19 18.6507C19 20.1306 18.3753 21.4171 17.2987 22.2263C16.8099 22.5947 16.2572 22.8393 15.678 22.9431C15.5125 22.9728 15.346 22.9909 15.1793 22.9973L14.9294 22.9983C14.5963 22.988 14.2646 22.9314 13.9419 22.8289C13.4104 22.6725 12.8679 22.5807 12.3235 22.5536L11.9968 22.5451C11.3431 22.5435 10.6892 22.6351 10.0506 22.8198C9.80704 22.8959 9.55853 22.9462 9.30826 22.9703L9.05752 22.9857C8.80642 22.9924 8.55461 22.9729 8.30526 22.9271C7.72346 22.8202 7.16865 22.5725 6.6784 22.2003C5.61403 21.3929 5 20.1186 5 18.6525C5.00044 18.0588 5.11083 17.4717 5.32397 16.9297C5.50667 16.4651 5.76134 16.0425 6.07525 15.6817L6.40437 15.3244L6.5849 15.1092L6.73446 14.9196L6.90354 14.6934L7.08884 14.4308L7.28706 14.1322L7.49489 13.7977C7.63592 13.5629 7.78117 13.3044 7.92623 13.0225L8.14313 12.5823C8.25096 12.3534 8.35745 12.1116 8.46074 11.8568L8.5629 11.5978C8.84475 10.8285 9.32051 10.1712 9.93023 9.70895C10.4722 9.29806 11.0985 9.05748 11.7455 9.00909L11.9891 9ZM11.9891 11C11.6979 11 11.4046 11.101 11.1385 11.3027C10.8826 11.4967 10.6648 11.7749 10.5052 12.1299L10.4303 12.3138C9.95748 13.5471 9.37656 14.6304 8.73867 15.5613C8.44414 15.9911 8.1713 16.3411 7.92138 16.6267L7.70586 16.8641L7.58397 16.9947C7.42113 17.1818 7.28509 17.4077 7.18523 17.6617C7.06405 17.9698 7.00026 18.309 7 18.6525C7 19.4965 7.32525 20.1807 7.88762 20.6073C8.13076 20.7919 8.39579 20.9102 8.66696 20.96C8.87637 20.9985 9.08868 20.9958 9.31876 20.9454L9.49488 20.8986C11.0285 20.4549 12.6353 20.4289 14.2101 20.8301L14.547 20.9227C14.8026 21.0038 15.0657 21.0211 15.325 20.9745C15.5919 20.9267 15.8541 20.8107 16.097 20.6276C16.6679 20.1986 17 19.5043 17 18.6473C17.0006 18.2785 16.9279 17.9169 16.7898 17.5938C16.6849 17.3481 16.5457 17.1325 16.3821 16.9563L16.2551 16.8317L16.1637 16.7504L16.083 16.6586C15.1801 15.6319 14.2651 14.1848 13.5373 12.2858C13.385 11.87 13.1382 11.529 12.8398 11.3027C12.5736 11.101 12.2804 11 11.9891 11ZM2.36121 8.00019C2.7807 7.99496 3.21821 8.09935 3.65011 8.31289C4.40554 8.68653 5.05964 9.35689 5.49229 10.2012C5.92494 11.0454 6.08889 11.9713 5.95396 12.8085C5.81051 13.697 5.35224 14.3847 4.66058 14.7433C4.37879 14.8903 4.0831 14.9711 3.78301 14.9935L3.6025 15C3.18044 14.9992 2.75346 14.8872 2.34761 14.686C1.5939 14.3123 0.939227 13.6414 0.507158 12.7976C0.0750767 11.954 -0.0888821 11.0282 0.0460407 10.1908C0.188928 9.30467 0.647766 8.61479 1.33716 8.25551C1.60231 8.11732 1.88699 8.03525 2.1826 8.00914L2.36121 8.00019ZM21.6138 8C22.7766 8.00142 23.7365 8.83321 23.9549 10.191C24.231 11.9245 23.2108 13.9153 21.6512 14.6882C21.2786 14.8726 20.9057 14.9724 20.5481 14.995L20.3958 15C19.2365 15.0025 18.2673 14.1839 18.0459 12.8099C17.7669 11.0763 18.7878 9.0856 20.3496 8.31271C20.7266 8.12613 21.1021 8.02627 21.4611 8.00455L21.6138 8ZM21.2367 10.1052C20.462 10.4886 19.8806 11.6231 20.0204 12.4918C20.1036 13.008 20.3156 13.1177 20.7631 12.8962C21.491 12.5355 22.0494 11.5078 21.9969 10.6618L21.9803 10.5086C21.8975 9.99394 21.6859 9.8829 21.2367 10.1052ZM2.26148 10.0291C2.15928 10.0824 2.06705 10.2207 2.02057 10.509C1.95554 10.9126 2.04359 11.4102 2.28733 11.8861C2.52954 12.3591 2.87832 12.7168 3.23593 12.8941C3.48304 13.0166 3.63497 13.0225 3.74 12.9677C3.84245 12.9146 3.93276 12.7794 3.97944 12.4903C4.04446 12.0868 3.95638 11.5894 3.71239 11.1133C3.46956 10.6394 3.12156 10.2827 2.76344 10.1056C2.51213 9.98135 2.36031 9.97759 2.26148 10.0291ZM16.2446 1C18.0777 1 19.2318 2.87818 18.9607 4.79327C18.7149 6.52715 17.3965 7.89889 15.9193 7.99466L15.7546 8C13.9254 8 12.7683 6.12495 13.0392 4.20673C13.2845 2.47285 14.6023 1.10111 16.0798 1.00534L16.2446 1ZM7.85267 1.0016C9.39504 1.05622 10.7201 2.5025 10.9602 4.20606C11.0932 5.14589 10.8894 6.09455 10.4007 6.80931C9.8745 7.57821 9.16537 7.94872 8.43418 7.99502L8.29686 7.99991C6.8302 8.01202 5.31549 6.74578 5.0398 4.79449C4.90677 3.85415 5.11068 2.90496 5.59934 2.19073C6.06498 1.50717 6.74451 1.09132 7.5067 1.01283L7.68045 1.00132L7.85267 1.0016ZM16.2446 3C15.7629 3 15.142 3.6212 15.0196 4.48647C14.8947 5.37068 15.3246 6 15.7546 6C16.2362 6 16.8577 5.37835 16.9804 4.51293C17.1055 3.62947 16.6759 3 16.2446 3ZM7.80271 3.00126L7.71157 3.00231C7.54385 3.01958 7.39018 3.11425 7.24997 3.32007C7.05098 3.61092 6.95528 4.05628 7.02014 4.5147C7.21611 5.90179 8.30653 6.32807 8.74975 5.6804C8.92416 5.42534 9.01917 5.05279 8.99681 4.65705L8.97993 4.48631C8.86934 3.70173 8.34492 3.11742 7.89728 3.01559L7.80271 3.00126Z" fill="url(#paint0_linear_83_1677)"/>
</g>
<defs>
<linearGradient id="paint0_linear_83_1677" x1="0" y1="1" x2="27.9228" y2="8.6159" gradientUnits="userSpaceOnUse">
<stop stop-color="#655FF3"/>
<stop offset="1" stop-color="#CD3DF6"/>
</linearGradient>
<clipPath id="clip0_83_1677">
<rect width="24" height="24" fill="white"/>
</clipPath>
</defs>
</svg>
