<svg width="24" height="24" viewBox="0 0 24 24" fill="none" xmlns="http://www.w3.org/2000/svg">
<path d="M16.9357 0L17.4842 0.00501607L17.9711 0.0175313L18.4032 0.0393857C19.4205 0.107225 19.9867 0.279822 20.573 0.686191C21.1542 1.08903 21.5399 1.63182 21.9015 2.4643L21.9791 2.64706L22.0858 2.91356L22.2472 3.34774L23.6322 7.33056L23.7602 7.70567L23.8589 8.01466C24.0142 8.52927 24.0311 8.78254 23.9591 9.17041C23.9383 9.28274 23.9078 9.39221 23.8676 9.49996L23.7998 9.66588C23.7404 9.79757 23.6705 9.91799 23.5654 10.066L23.4209 10.2594L23.2332 10.4942L12 24L11.2352 23.0806C11.2318 23.0767 11.2284 23.0727 11.2251 23.0686L0.879948 10.6319L0.5793 10.2596L0.434769 10.0662C0.413752 10.0366 0.39414 10.0081 0.375736 9.98038L0.278238 9.82114C0.220809 9.718 0.176422 9.61761 0.132497 9.50009C0.0922418 9.39238 0.0617272 9.28296 0.0409032 9.17066C-0.0179663 8.85316 -0.0174329 8.62619 0.0697572 8.27226L0.141021 8.01511L0.239755 7.70602L1.40651 4.33378L1.72588 3.42278L1.94452 2.83616L2.09866 2.46416C2.46021 1.63176 2.84589 1.08901 3.42703 0.686207C4.0133 0.279826 4.57945 0.107226 5.598 0.039384L6.03067 0.0175285L6.51832 0.00501214L7.06766 0H16.9357ZM15.512 8.663H8.488L12 19.278L15.512 8.663ZM6.45 8.851L2.721 9.748L9.405 17.784L6.45 8.851ZM17.55 8.851L14.594 17.784L21.279 9.748L17.55 8.851ZM8.106 1.952L7.07095 1.9524L6.38611 1.9604L6.00928 1.97265L5.68869 1.9913C5.59048 1.99867 5.50057 2.00722 5.41787 2.01708L5.19033 2.05071C4.91293 2.10112 4.7337 2.17445 4.58358 2.2785C4.35242 2.43873 4.16815 2.69804 3.93851 3.22676L3.83798 3.46703L3.64826 3.96813L2.302 7.838L6.35 6.865L8.106 1.952ZM16.9324 1.9524L15.893 1.952L17.649 6.866L21.693 7.838L20.563 4.56457L20.3091 3.85115L20.1964 3.55341L20.0953 3.30533L19.9866 3.06036C19.7904 2.64168 19.622 2.42094 19.4165 2.27851C19.2663 2.17445 19.0871 2.10113 18.8099 2.05071L18.5826 2.01708C18.4587 2.00229 18.3186 1.99044 18.1587 1.98113L17.8114 1.96577L17.4048 1.95644L16.9324 1.9524ZM13.8 1.95282H10.2001C10.1962 1.98253 10.1908 2.01227 10.184 2.04196L10.152 2.15161L8.522 6.71H15.478L13.8481 2.15161C13.8246 2.08583 13.8087 2.01926 13.8 1.95282Z" fill="url(#paint0_linear_83_1607)"/>
<defs>
<linearGradient id="paint0_linear_83_1607" x1="0" y1="0" x2="28.2353" y2="7.05882" gradientUnits="userSpaceOnUse">
<stop stop-color="#655FF3"/>
<stop offset="1" stop-color="#CD3DF6"/>
</linearGradient>
</defs>
</svg>
