<svg width="24" height="24" viewBox="0 0 24 24" fill="none" xmlns="http://www.w3.org/2000/svg">
<path d="M2 17.9993V19.666C2 20.9108 2.89019 21.9091 3.99144 21.9935L4.14286 21.9993H19.8571C20.9762 21.9993 21.915 21.0552 21.9945 19.8341L22 19.666V17.9993H24V19.666C24 21.9744 22.2687 23.8806 20.0651 23.994L19.8571 23.9993H4.14286C1.91097 23.9993 0.112012 22.1631 0.00503381 19.8812L0 19.666V17.9993H2ZM12.956 0.956002L12.9559 13.2979L18.148 8.08223L19.5 9.44925L12 16.9993L4.5 9.44925L5.852 8.08223L11.0439 13.2979L11.044 0.956002C11.044 0.428015 11.472 0 12 0C12.528 0 12.956 0.428013 12.956 0.955994C12.956 0.955997 12.956 0.955999 12.956 0.956002Z" fill="url(#paint0_linear_85_3299)"/>
<defs>
<linearGradient id="paint0_linear_85_3299" x1="0" y1="0" x2="28.2352" y2="7.05901" gradientUnits="userSpaceOnUse">
<stop stop-color="#655FF3"/>
<stop offset="1" stop-color="#CD3DF6"/>
</linearGradient>
</defs>
</svg>
