<svg width="192" height="48" viewBox="0 0 192 48" fill="none" xmlns="http://www.w3.org/2000/svg">
<path d="M192 47.9173C189.33 47.9173 186.661 47.9173 183.939 47.9173C183.939 38.4166 183.939 28.9413 183.939 19.3331C178.412 24.7148 172.98 30.0047 167.534 35.3085C167.13 34.913 166.747 34.538 166.364 34.1622C162.247 30.1245 158.128 26.0892 154.014 22.0482C150.413 18.5118 146.816 14.9712 143.225 11.425C143.103 11.3035 142.99 11.1058 142.989 10.9425C142.976 7.40119 142.979 3.85985 142.98 0.31852C142.98 0.265187 142.99 0.212674 143.007 0.0600586C151.207 8.05596 159.356 16.0026 167.573 24.0141C167.681 23.873 167.759 23.7401 167.866 23.635C175.784 15.8886 183.705 8.14375 191.626 0.400571C191.743 0.287341 191.875 0.188879 192 0.0838535C192 16.0281 192 31.9723 192 47.9173Z" fill="#1F1F22"/>
<path d="M0 0.0848029C0.195524 0.0798798 0.391049 0.0716747 0.586573 0.0716747C7.5642 0.0708541 14.5418 0.0798798 21.5194 0.0683926C26.3631 0.059367 30.3466 1.88911 33.6084 5.34839C38.3438 10.3716 38.833 17.579 36.2383 22.7753C34.4669 26.324 31.7975 29.0415 28.0355 30.6382C27.9592 30.6702 27.8853 30.708 27.7552 30.7687C31.0875 36.4721 34.4131 42.164 37.7664 47.9018C37.602 47.9092 37.4962 47.9191 37.3913 47.9191C34.5105 47.9199 31.6305 47.9158 28.7496 47.9264C28.4744 47.9273 28.3309 47.8427 28.1941 47.6122C23.6123 39.8542 19.0238 32.1012 14.4361 24.3474C14.3681 24.2317 14.306 24.1135 14.1978 23.9191C14.4269 23.9191 14.588 23.9182 14.7491 23.9191C17.0274 23.9371 19.3057 23.9716 21.5849 23.9707C25.6045 23.9691 29.0845 20.8315 29.5678 16.934C30.1519 12.2202 26.3203 8.80111 23.1264 8.25711C22.5105 8.15208 21.8786 8.09383 21.2534 8.09219C16.1916 8.07906 11.129 8.05362 6.06797 8.11188C5.07105 8.12337 4.52727 7.6647 4.10014 6.96398C2.7986 4.82983 1.53902 2.67024 0.26014 0.522136C0.185455 0.396598 0.0872727 0.285008 0 0.166854C0 0.139777 0 0.11188 0 0.0848029Z" fill="#1F1F22"/>
<path d="M129.243 47.9058C129.243 31.9575 129.243 16.0453 129.243 0.101074C131.943 0.101074 134.631 0.101074 137.358 0.101074C137.358 13.3442 137.358 26.5864 137.358 39.8722C145.526 39.8722 153.657 39.8722 161.824 39.8722C161.824 42.57 161.824 45.2252 161.824 47.9058C150.972 47.9058 140.127 47.9058 129.243 47.9058Z" fill="#1F1F22"/>
<path d="M76.3328 47.8746C84.4835 31.9361 92.6158 16.0338 100.793 0.0419922C106.258 10.7275 111.683 21.3359 117.144 32.0141C116.936 32.0141 116.803 32.0141 116.67 32.0141C113.901 32.0141 111.132 32.0067 108.364 32.0239C108.024 32.0264 107.88 31.9041 107.741 31.6276C105.513 27.2371 103.274 22.8514 101.038 18.465C100.971 18.3329 100.898 18.2032 100.798 18.0194C100.702 18.1844 100.623 18.3058 100.558 18.433C96.9375 25.5 93.3216 32.5696 89.6956 39.6334C88.3244 42.305 86.9314 44.9667 85.5358 47.6268C85.4695 47.7532 85.2874 47.9041 85.1591 47.905C82.264 47.9197 79.3688 47.9148 76.4746 47.9132C76.4461 47.9132 76.4209 47.8992 76.3328 47.8746Z" fill="#1F1F22"/>
<path d="M40.8032 27.9624C40.8032 25.3196 40.8032 22.7005 40.8032 20.0576C51.6687 20.0576 62.5132 20.0576 73.3853 20.0576C73.3853 22.6956 73.3853 25.313 73.3853 27.9624C62.5333 27.9624 51.688 27.9624 40.8032 27.9624Z" fill="#1F1F22"/>
<path d="M40.8203 47.9065C40.7037 47.4699 40.8371 47.1795 41.1652 46.8857C43.6701 44.6466 46.154 42.3836 48.6547 40.1395C48.8016 40.0074 49.0391 39.9007 49.2346 39.9007C57.1748 39.8892 65.1149 39.8909 73.055 39.8917C73.1515 39.8917 73.248 39.9024 73.3781 39.9097C73.3781 42.574 73.3781 45.2283 73.3781 47.9073C62.5269 47.9065 51.685 47.9065 40.8203 47.9065Z" fill="#1F1F22"/>
<path d="M73.3907 0.0986328C73.3907 2.75299 73.3907 5.38766 73.3907 8.06253C73.238 8.06991 73.0886 8.08222 72.9392 8.08222C65.0662 8.08304 57.1932 8.08468 49.3202 8.07402C49.1096 8.07402 48.8393 7.99279 48.6959 7.85248C46.1339 5.34991 43.587 2.83258 41.0377 0.31853C40.9814 0.263556 40.9328 0.202017 40.8413 0.0994533C51.7219 0.0986328 62.5454 0.0986328 73.3907 0.0986328Z" fill="#1F1F22"/>
<path d="M125.245 47.9173C124.092 47.9173 122.988 47.9173 121.885 47.9173C120.08 47.9173 118.276 47.9231 116.473 47.9075C116.318 47.9058 116.083 47.8008 116.02 47.6777C114.738 45.1908 113.477 42.6939 112.212 40.1988C112.181 40.1397 112.158 40.0781 112.113 39.9772C112.266 39.9698 112.384 39.96 112.502 39.96C115.271 39.9592 118.04 39.96 120.809 39.9575C121.024 39.9575 121.194 39.9567 121.317 40.1996C122.592 42.7054 123.881 45.2039 125.166 47.704C125.191 47.7499 125.203 47.8024 125.245 47.9173Z" fill="#1F1F22"/>
</svg>
