<svg width="32" height="32" viewBox="0 0 32 32" fill="none" xmlns="http://www.w3.org/2000/svg">
<path d="M11.2509 26.6666C20.9117 26.6666 26.1949 18.8702 26.1949 12.1094C26.1949 11.888 26.1903 11.6676 26.18 11.4481C27.208 10.7236 28.0952 9.82641 28.8 8.79877C27.8588 9.20633 26.8461 9.48064 25.7837 9.60432C26.8681 8.97093 27.7006 7.9689 28.0934 6.77448C27.0624 7.37027 25.9344 7.79027 24.7582 8.01637C23.7998 7.02189 22.4353 6.3999 20.9244 6.3999C18.0239 6.3999 15.6718 8.69115 15.6718 11.5155C15.6718 11.917 15.7179 12.3074 15.8081 12.6821C11.4428 12.4681 7.57198 10.4322 4.98144 7.33653C4.51486 8.11732 4.26945 9.0047 4.27026 9.90806C4.27026 11.6831 5.19748 13.2501 6.60756 14.1668C5.77348 14.142 4.95771 13.9226 4.22884 13.5269C4.22806 13.5484 4.22806 13.5693 4.22806 13.5923C4.22806 16.07 6.03848 18.1388 8.44176 18.6076C7.99039 18.7273 7.52463 18.7879 7.05681 18.7876C6.71896 18.7876 6.3897 18.7552 6.0697 18.6954C6.73837 20.7282 8.67731 22.2075 10.9762 22.2489C9.17849 23.6214 6.91398 24.4389 4.45279 24.4389C4.03411 24.4393 3.61577 24.4156 3.19995 24.368C5.52445 25.8194 8.28457 26.6662 11.2512 26.6662" fill="#1F1F22"/>
</svg>
