<svg width="24" height="14" viewBox="0 0 24 14" fill="none" xmlns="http://www.w3.org/2000/svg">
<path d="M6.76875 0C10.5072 0 13.5375 3.13423 13.5375 7.0001C13.5375 10.8661 10.5069 14 6.76875 14C3.03075 14 0 10.8661 0 7.0001C0 3.13433 3.03047 0 6.76875 0ZM17.5781 0.410014C19.4473 0.410014 20.9626 3.36023 20.9626 7.0001C20.9626 10.6391 19.4476 13.5902 17.5785 13.5902C15.7094 13.5902 14.194 10.6391 14.194 7.0001C14.194 3.36119 15.7089 0.410014 17.5781 0.410014ZM22.8097 1.09649C23.4669 1.09649 24 3.73962 24 7.00019C24 10.2597 23.4671 12.9039 22.8097 12.9039C22.1522 12.9039 21.6196 10.2605 21.6196 7.00019C21.6196 3.73982 22.1525 1.09649 22.8097 1.09649Z" fill="white"/>
</svg>
