<svg width="211" height="44" viewBox="0 0 211 44" fill="none" xmlns="http://www.w3.org/2000/svg">
<path fill-rule="evenodd" clip-rule="evenodd" d="M38.4785 17.1876L42.7284 21.198L36.8704 26.8126L42.6135 32.4272L38.3636 36.4377L38.0191 36.0939L32.7354 30.9377L27.4518 36.0939L27.1072 36.4377L26.4181 37.1252C26.0948 37.5623 25.7076 37.9485 25.2695 38.271C22.4403 40.6463 18.8594 41.9453 15.1617 41.9377C13.1706 41.9377 11.1991 41.5465 9.35955 40.7864C7.52005 40.0263 5.84864 38.9122 4.44075 37.5077C3.03286 36.1032 1.91606 34.4358 1.15411 32.6007C0.392168 30.7657 0 28.7989 0 26.8126C0 24.8264 0.392168 22.8596 1.15411 21.0245C1.91606 19.1895 3.03286 17.5221 4.44075 16.1176C5.84864 14.7131 7.52005 13.599 9.35955 12.8389C11.1991 12.0788 13.1706 11.6876 15.1617 11.6876C18.8594 11.68 22.4403 12.979 25.2695 15.3542L26.4181 16.5001L27.1072 17.1876L27.5667 17.5313L32.8503 22.6876L38.1339 17.5313L38.4785 17.1876ZM22.2831 33.0002L22.8574 32.4272L28.6004 26.8126L22.8574 21.198L22.2831 20.6251L22.1682 20.5105C21.8038 20.0706 21.3783 19.6848 20.9047 19.3647C19.2081 18.113 17.157 17.4309 15.0468 17.4168C12.5343 17.4039 10.1194 18.3861 8.33204 20.1477C6.54468 21.9092 5.53095 24.3062 5.51334 26.8126C5.51324 28.0562 5.76062 29.2875 6.24111 30.4349C6.72161 31.5824 7.42567 32.6234 8.31247 33.4974C9.19927 34.3714 10.2512 35.0611 11.4072 35.5265C12.5632 35.9918 13.8003 36.2237 15.0468 36.2085C17.157 36.1944 19.2081 35.5123 20.9047 34.2606C21.3783 33.9405 21.8038 33.5546 22.1682 33.1147L22.2831 33.0002ZM46.2891 12.2605C47.6387 11.9016 49.0274 11.7092 50.4241 11.6876C52.4392 11.6597 54.4399 12.0294 56.3113 12.7754C58.1828 13.5214 59.888 14.629 61.3289 16.0345C62.7699 17.4401 63.9182 19.1158 64.7078 20.9655C65.4975 22.8152 65.913 24.8023 65.9303 26.8126C65.8755 30.8667 64.2133 34.7341 61.3073 37.5687C58.4013 40.4032 54.4882 41.9741 50.4241 41.9377C46.7263 41.9453 43.1454 40.6463 40.3163 38.271L44.5661 34.2606C46.2628 35.5123 48.3139 36.1944 50.4241 36.2085C52.922 36.2085 55.3177 35.2186 57.084 33.4565C58.8504 31.6945 59.8427 29.3046 59.8427 26.8126C59.8427 24.3207 58.8504 21.9308 57.084 20.1687C55.3177 18.4067 52.922 17.4168 50.4241 17.4168C48.3139 17.4309 46.2628 18.113 44.5661 19.3647L40.3163 15.3542V0H46.2891V12.2605ZM86.031 36.7809C81.7812 36.7809 78.4502 33.3434 78.4502 28.4163C78.4502 23.3746 81.7812 20.1662 85.9162 20.1662C86.9928 20.1533 88.0585 20.3837 89.0332 20.8401C90.0079 21.2965 90.8664 21.9671 91.5444 22.8016V20.51H94.9902V36.5517H91.6592V34.1454C90.9813 34.98 90.1228 35.6506 89.148 36.107C88.1733 36.5634 87.1077 36.7938 86.031 36.7809ZM91.2978 30.4058C91.514 29.766 91.5978 29.0892 91.5444 28.4163C91.5444 24.9787 89.2471 23.0308 86.7202 23.0308H86.3756C85.081 23.1374 83.8818 23.7525 83.0418 24.7409C82.2017 25.7293 81.7896 27.0102 81.896 28.3017C81.896 31.7392 84.1932 33.8017 86.7202 33.8017C87.3965 33.7793 88.0613 33.6204 88.6744 33.3345C89.2874 33.0486 89.8359 32.6416 90.2868 32.1382C90.7378 31.6349 91.0817 31.0455 91.2978 30.4058ZM104.064 36.4371H100.733V14.8953H104.064V36.4371ZM113.253 20.3954V22.8016C113.942 21.9713 114.8 21.2967 115.771 20.8226C116.741 20.3485 117.801 20.0857 118.881 20.0516C123.131 20.0516 126.462 23.3746 126.462 28.3017C126.462 33.2288 123.131 36.6663 118.881 36.6663C117.809 36.6536 116.752 36.4118 115.781 35.9572C114.81 35.5026 113.948 34.8458 113.253 34.0309V43.9997H109.922V20.3954H113.253ZM122.759 30.4486C122.981 29.7954 123.069 29.1041 123.016 28.4163V28.0725C123.021 27.4241 122.897 26.7812 122.65 26.1812C122.404 25.5812 122.04 25.0361 121.581 24.5776C121.121 24.1191 120.575 23.7564 119.973 23.5105C119.372 23.2646 118.727 23.1405 118.077 23.1454H117.848C116.523 23.2523 115.294 23.8796 114.433 24.8895C113.571 25.8993 113.147 27.209 113.253 28.5308C113.253 31.9684 115.55 33.9163 118.077 33.9163C118.768 33.8929 119.448 33.7304 120.074 33.4384C120.701 33.1464 121.261 32.731 121.723 32.2172C122.184 31.7034 122.537 31.1018 122.759 30.4486ZM134.502 36.4371H131.171V14.8953H134.502V22.2287C135.092 21.4988 135.848 20.9203 136.707 20.5415C137.566 20.1628 138.504 19.9948 139.441 20.0516C143.117 20.0516 145.874 22.4579 145.874 26.9267V36.4371H142.543V27.4996C142.543 24.5204 140.935 23.0308 138.523 23.0308C136.11 23.0308 134.502 24.5204 134.502 27.4996V36.4371ZM158.049 36.7809C153.799 36.7809 150.468 33.3434 150.468 28.4163C150.468 23.3746 153.799 20.1662 158.049 20.1662C159.126 20.1533 160.191 20.3837 161.166 20.8401C162.141 21.2965 162.999 21.9671 163.677 22.8016V20.51H167.008V36.5517H163.677V34.1454C162.999 34.98 162.141 35.6506 161.166 36.107C160.191 36.5634 159.126 36.7938 158.049 36.7809ZM163.431 30.4058C163.647 29.766 163.731 29.0892 163.677 28.4163C163.731 27.7433 163.647 27.0665 163.431 26.4267C163.215 25.787 162.871 25.1976 162.42 24.6943C161.969 24.1909 161.42 23.7839 160.807 23.498C160.194 23.2121 159.529 23.0532 158.853 23.0308H158.508C157.214 23.1374 156.015 23.7525 155.175 24.7409C154.335 25.7293 153.922 27.0102 154.029 28.3017C154.029 31.7392 156.326 33.8017 158.853 33.8017C159.529 33.7793 160.194 33.6204 160.807 33.3345C161.42 33.0486 161.969 32.6416 162.42 32.1382C162.871 31.6349 163.215 31.0455 163.431 30.4058ZM176.197 14.8953V22.8016C176.859 21.9486 177.714 21.2648 178.692 20.8066C179.671 20.3483 180.745 20.1288 181.825 20.1662C186.075 20.1662 189.406 23.4891 189.406 28.4163C189.406 33.3434 186.075 36.7809 181.825 36.7809C180.749 36.7938 179.683 36.5634 178.708 36.107C177.733 35.6506 176.875 34.98 176.197 34.1454V36.4371H172.866V14.8953H176.197ZM185.703 30.4486C185.925 29.7954 186.013 29.1041 185.96 28.4163V28.0725C185.965 27.4241 185.841 26.7812 185.594 26.1812C185.348 25.5812 184.984 25.0361 184.525 24.5776C184.065 24.1191 183.519 23.7564 182.917 23.5105C182.316 23.2646 181.671 23.1405 181.021 23.1454H180.791C179.467 23.2523 178.238 23.8796 177.377 24.8895C176.515 25.8993 176.091 27.209 176.197 28.5308C176.197 31.9684 178.494 33.9163 181.021 33.9163C181.712 33.8929 182.392 33.7304 183.018 33.4384C183.644 33.1464 184.205 32.731 184.667 32.2172C185.128 31.7034 185.481 31.1018 185.703 30.4486ZM197.332 36.4371H194.001V20.3954H197.332V36.4371ZM196.516 18.178C196.265 18.2813 195.995 18.3339 195.723 18.3329C195.151 18.3137 194.607 18.0782 194.202 17.674C193.796 17.2698 193.56 16.7271 193.541 16.1558C193.584 15.6032 193.831 15.0862 194.234 14.705C194.637 14.3239 195.168 14.1058 195.723 14.0933C196.277 14.1357 196.796 14.3821 197.178 14.7844C197.56 15.1867 197.778 15.7163 197.791 16.2704C197.792 16.5415 197.739 16.8102 197.636 17.0609C197.532 17.3116 197.38 17.5394 197.188 17.7311C196.996 17.9229 196.767 18.0748 196.516 18.178ZM208.358 36.4371C205.602 36.4371 203.764 35.1767 203.764 31.9684V23.1454H201.811V20.3954H203.764V16.3849H207.095V20.3954H211V23.1454H207.095V31.9684C207.095 33.2288 207.554 33.6871 208.932 33.6871H211V36.4371H208.358Z" fill="white"/>
</svg>
