<svg width="234" height="30" viewBox="0 0 234 30" fill="none" xmlns="http://www.w3.org/2000/svg">
<path fill-rule="evenodd" clip-rule="evenodd" d="M12.9076 0C15.9499 0 18.4718 1.00026 20.4523 3.00077C22.4432 5.00128 23.4438 7.53254 23.4438 10.6048C23.4438 13.677 22.4432 16.2082 20.4626 18.2087C18.4819 20.2093 15.9603 21.2095 12.9178 21.2095H7.21069V29.3443H0.421387V24.8957C3.1446 24.031 5.11772 21.483 5.11772 18.4741C5.11772 15.4653 3.1446 12.9172 0.421387 12.0526V7.85916V0H12.9076ZM11.856 15.6877C13.2343 15.6877 14.3574 15.208 15.2353 14.2588C16.1134 13.3095 16.5625 12.0949 16.5524 10.615C16.5524 9.135 16.1134 7.92039 15.2353 6.97118C14.347 6.02195 13.2241 5.54225 11.856 5.54225H7.20047V15.6877H11.856ZM49.8846 0V29.377H56.3125V0H49.8846ZM35.7496 30.0002C39.1603 30.0002 41.8824 29.0002 43.9157 26.9838C45.949 24.9674 46.9657 22.3937 46.9657 19.2625C46.9657 16.1314 45.949 13.5576 43.9157 11.5576C41.8824 9.55762 39.1603 8.55762 35.7496 8.55762C32.3388 8.55762 29.6167 9.55762 27.567 11.5576C25.5173 13.5576 24.5006 16.1314 24.5006 19.2625C24.5006 22.3937 25.5173 24.9674 27.567 26.9838C29.6167 29.0002 32.3388 30.0002 35.7496 30.0002ZM39.2751 23.0658C38.406 24.0494 37.2254 24.5412 35.7496 24.5412C34.2409 24.5412 33.0603 24.0658 32.2076 23.0822C31.3549 22.0986 30.9286 20.8363 30.9286 19.2625C30.9286 17.7051 31.3549 16.4264 32.2076 15.4429C33.0603 14.4593 34.2409 13.9675 35.7496 13.9675C37.2254 13.9675 38.406 14.4593 39.2751 15.4429C40.1442 16.4264 40.5705 17.6887 40.5705 19.2625C40.5705 20.8199 40.1442 22.0822 39.2751 23.0658ZM80.6797 29.377H72.8251L66.3972 20.6066V29.377H59.9692V0H66.3972V17.5902L72.9891 9.16393H80.5486L72.4972 18.7377L80.6797 29.377ZM82.8607 26.9345C84.5661 28.9181 86.8946 29.9181 89.8298 29.9181C91.1745 29.9345 92.5027 29.6066 93.6833 28.9837C94.8312 28.3443 95.7003 27.5246 96.2578 26.5246V29.3771H102.637V9.14756H96.2578V12.0492C95.6839 10.9672 94.7984 10.0984 93.7325 9.5246C92.5519 8.90165 91.24 8.59018 89.9118 8.60657C87.0258 8.60657 84.6973 9.60657 82.9427 11.623C81.1881 13.6394 80.3027 16.1803 80.3027 19.2623C80.3027 22.3935 81.1553 24.9509 82.8607 26.9345ZM95.2575 23.082C94.4048 24.082 93.2242 24.5902 91.6828 24.5902C90.2234 24.5902 89.0591 24.0984 88.1736 23.0984C87.2882 22.1148 86.8454 20.8361 86.8454 19.2623C86.8454 17.705 87.2882 16.4427 88.1736 15.459C89.0591 14.4754 90.2234 13.9836 91.6828 13.9836C93.2242 13.9836 94.4212 14.4918 95.2575 15.4918C96.0938 16.4919 96.5202 17.7541 96.5202 19.2623C96.5202 20.8033 96.1102 22.082 95.2575 23.082ZM115.017 30.0002C112.115 30.0002 109.786 29.3773 108.048 28.115C106.31 26.8527 105.441 25.2461 105.441 23.2953H111.819C111.819 24.0002 112.131 24.574 112.738 25.0166C113.361 25.4592 114.148 25.6887 115.132 25.6887C115.837 25.6887 116.394 25.5248 116.837 25.1805C117.263 24.8527 117.509 24.3445 117.493 23.8035C117.493 22.8855 117.001 22.3117 116.017 22.0822L111.065 20.8199C109.409 20.3937 108.163 19.6887 107.294 18.6723C106.424 17.6559 105.998 16.4264 105.998 14.9838C105.998 13.0822 106.785 11.5412 108.343 10.3445C109.901 9.14778 112.016 8.55762 114.64 8.55762C117.542 8.55762 119.789 9.11499 121.33 10.2297C122.872 11.3445 123.675 12.9019 123.675 14.8527H117.329C117.362 14.2134 117.083 13.6068 116.591 13.2134C116.099 12.8199 115.427 12.6232 114.558 12.6232C113.853 12.6232 113.295 12.7707 112.885 13.0822C112.475 13.3609 112.246 13.8199 112.262 14.2953C112.262 15.197 112.836 15.7871 113.984 16.0986L118.772 17.41C120.363 17.8363 121.625 18.5248 122.527 19.492C123.429 20.4428 123.921 21.7215 123.888 23.033C123.888 25.1314 123.101 26.8199 121.511 28.0822C119.92 29.3445 117.755 30.0002 115.017 30.0002ZM138.269 24.2459C137.531 24.3442 136.777 24.3934 136.039 24.377C135.121 24.3934 134.416 24.1639 133.957 23.7049C133.497 23.2295 133.251 22.3278 133.251 20.9508V14.2295H137.826V9.14753H133.251V0.114746H126.823V22.2459C126.791 23.3934 126.955 24.5245 127.299 25.6065C127.611 26.5573 128.004 27.2786 128.447 27.7868C128.922 28.3114 129.513 28.7213 130.169 28.9836C130.775 29.2623 131.398 29.4426 132.054 29.5573C132.694 29.6557 133.35 29.6885 133.989 29.6885C135.416 29.7049 136.859 29.5901 138.269 29.3606V24.2459ZM149.944 29.9177C147.009 29.9177 144.681 28.9177 142.975 26.9341C141.27 24.9505 140.417 22.3931 140.417 19.262C140.417 16.18 141.303 13.639 143.057 11.6226C144.828 9.60625 147.14 8.60625 150.026 8.60625C151.355 8.57346 152.667 8.90133 153.847 9.52428C154.913 10.098 155.799 10.9669 156.356 12.0489V9.14723H162.735V29.3767H156.356V26.5243C155.799 27.5243 154.929 28.344 153.782 28.9833C152.601 29.6062 151.289 29.9341 149.944 29.9177ZM151.797 24.5899C153.339 24.5899 154.519 24.0817 155.372 23.0817C156.208 22.0817 156.635 20.803 156.635 19.262C156.635 17.7538 156.208 16.4915 155.372 15.4915C154.536 14.4915 153.339 13.9833 151.797 13.9833C150.338 13.9833 149.174 14.4751 148.288 15.4587C147.403 16.4423 146.96 17.7046 146.96 19.262C146.96 20.8358 147.403 22.1144 148.288 23.098C149.157 24.098 150.338 24.5899 151.797 24.5899ZM165.654 9.14754V29.3771L172.082 29.3443V21.541C172.082 17.0328 173.853 14.7869 177.411 14.7869C178.067 14.8033 178.706 14.8361 179.346 14.918V8.96721C178.805 8.85245 178.231 8.78688 177.673 8.80327C176.394 8.80327 175.164 9.21311 174.164 10C173.115 10.8033 172.41 11.918 172.082 13.377V9.14754H165.654ZM191.53 24.377C192.267 24.3934 193.022 24.3442 193.76 24.2459V29.3606C192.349 29.5901 190.906 29.7049 189.48 29.6885C188.84 29.6885 188.184 29.6557 187.545 29.5573C186.889 29.4426 186.266 29.2623 185.659 28.9836C185.003 28.7213 184.413 28.3114 183.937 27.7868C183.495 27.2786 183.101 26.5573 182.789 25.6065C182.445 24.5245 182.281 23.3934 182.314 22.2459V0.114746H188.742V9.14753H193.317V14.2295H188.742V20.9508C188.742 22.3278 188.971 23.2295 189.447 23.7049C189.923 24.1803 190.611 24.3934 191.53 24.377ZM217.225 21.0164C217.323 20.0984 217.389 19.1475 217.389 18.2131C217.389 15.3606 216.405 13.0327 214.454 11.2623C212.486 9.47537 209.944 8.57373 206.812 8.57373C203.5 8.57373 200.86 9.52455 198.876 11.4426C196.892 13.3606 195.891 15.9672 195.891 19.2623C195.891 22.6229 196.892 25.2459 198.876 27.1475C200.876 29.0492 203.582 30 207.026 30C209.715 30 211.994 29.377 213.847 28.1311C215.7 26.8852 216.782 25.2623 217.094 23.2787H210.797C210.24 24.541 208.977 25.1639 207.026 25.1639C205.599 25.1803 204.467 24.8197 203.631 24.082C202.795 23.3443 202.336 22.3279 202.287 21.0164H217.225ZM211.059 17.0328H202.287C202.303 15.7705 202.729 14.7541 203.533 14C204.32 13.2295 205.402 12.8524 206.78 12.8524C208.157 12.8524 209.206 13.2131 209.928 13.9344C210.649 14.6557 211.027 15.6885 211.059 17.0328ZM220.308 29.3771V9.14754H226.736V13.377C227.064 11.918 227.769 10.8033 228.818 10C229.819 9.21311 231.048 8.80327 232.327 8.80327C232.885 8.78688 233.459 8.85245 234 8.96721V14.918C233.36 14.8361 232.721 14.8033 232.065 14.7869C228.507 14.7869 226.736 17.0328 226.736 21.541V29.3443L220.308 29.3771Z" fill="#1F1F22"/>
</svg>
