<svg width="144" height="48" viewBox="0 0 144 48" fill="none" xmlns="http://www.w3.org/2000/svg">
<path d="M132.532 3.39292e-05H11.4737C11.0324 3.39292e-05 10.5964 3.39292e-05 10.1563 0.00243392C9.78793 0.00483391 9.42245 0.0118059 9.05051 0.0176739C8.24246 0.027156 7.43632 0.0980451 6.63908 0.229725C5.84297 0.364272 5.07179 0.617931 4.35163 0.982123C3.63236 1.3494 2.97513 1.82663 2.40381 2.39651C1.82948 2.96479 1.35073 3.62164 0.985977 4.34181C0.620215 5.06055 0.366594 5.83074 0.233874 6.62579C0.0998924 7.41983 0.0277958 8.22303 0.018231 9.02818C0.00706375 9.3961 0.00588445 9.76524 0 10.1332V37.8702C0.00588445 38.2428 0.00706375 38.6038 0.018231 38.9765C0.0277987 39.7816 0.0998954 40.5848 0.233874 41.3788C0.366227 42.1743 0.619863 42.9449 0.985977 43.6639C1.35057 44.3818 1.82938 45.036 2.40381 45.6011C2.97297 46.1735 3.63061 46.6511 4.35163 47.0155C5.07178 47.3807 5.84288 47.6359 6.63908 47.7725C7.43646 47.9031 8.24252 47.974 9.05051 47.9846C9.42245 47.9928 9.78793 47.9975 10.1563 47.9975C10.5964 47.9999 11.0324 47.9999 11.4737 47.9999H132.532C132.965 47.9999 133.404 47.9999 133.837 47.9975C134.203 47.9975 134.579 47.9928 134.946 47.9846C135.753 47.9746 136.557 47.9037 137.353 47.7725C138.152 47.6349 138.925 47.3798 139.649 47.0155C140.369 46.6508 141.027 46.1733 141.595 45.6011C142.168 45.0338 142.648 44.38 143.017 43.6639C143.38 42.9444 143.632 42.1738 143.762 41.3788C143.896 40.5847 143.971 39.7817 143.985 38.9765C143.99 38.6038 143.99 38.2428 143.99 37.8702C144 37.4343 144 37.0007 144 36.5577V11.4434C144 11.0039 144 10.568 143.99 10.1332C143.99 9.76524 143.99 9.3961 143.985 9.02813C143.971 8.22291 143.896 7.41989 143.762 6.62574C143.631 5.83115 143.38 5.06102 143.017 4.34176C142.274 2.89826 141.096 1.72326 139.649 0.982015C138.925 0.618713 138.152 0.365121 137.353 0.229617C136.557 0.097357 135.753 0.0264432 134.946 0.0175059C134.579 0.0116499 134.203 0.00461791 133.837 0.00227792C133.404 -0.00012207 132.965 -0.00012207 132.532 -0.00012207V3.39292e-05Z" fill="#A6A6A6"/>
<path d="M10.1623 46.9498C9.79562 46.9498 9.43783 46.9452 9.07407 46.937C8.3205 46.9272 7.56869 46.8618 6.82481 46.7413C6.13118 46.6222 5.45924 46.4006 4.83115 46.0838C4.20882 45.7697 3.6412 45.3578 3.15005 44.8639C2.65178 44.3758 2.23696 43.8097 1.922 43.1881C1.60358 42.5624 1.38321 41.8917 1.26858 41.1995C1.14478 40.4556 1.0778 39.7034 1.06822 38.9495C1.06059 38.6964 1.0506 37.8537 1.0506 37.8537V10.1332C1.0506 10.1332 1.06124 9.30348 1.06828 9.05972C1.07745 8.30694 1.14404 7.55595 1.26747 6.81325C1.38232 6.11907 1.60285 5.44647 1.92145 4.81873C2.23524 4.19751 2.64777 3.63101 3.14303 3.1412C3.63774 2.64673 4.20717 2.23271 4.83056 1.91424C5.45721 1.5985 6.12788 1.37847 6.82011 1.26151C7.56643 1.13979 8.32085 1.07398 9.07703 1.06464L10.1628 1.04999H133.831L134.93 1.06523C135.679 1.07411 136.427 1.13933 137.166 1.26034C137.865 1.37876 138.543 1.60032 139.177 1.91775C140.426 2.55957 141.442 3.57498 142.083 4.82166C142.396 5.44507 142.613 6.11218 142.727 6.80036C142.852 7.54916 142.922 8.30605 142.936 9.065C142.94 9.40484 142.94 9.76988 142.94 10.1332C142.949 10.5832 142.949 11.0115 142.949 11.4433V36.5576C142.949 36.9936 142.949 37.419 142.94 37.8479C142.94 38.2381 142.94 38.5956 142.935 38.9635C142.921 39.7089 142.852 40.4523 142.729 41.1877C142.617 41.885 142.398 42.5609 142.079 43.1917C141.762 43.8066 141.35 44.3678 140.857 44.8545C140.366 45.3511 139.797 45.7654 139.173 46.0815C138.541 46.4007 137.865 46.6231 137.166 46.7413C136.422 46.8624 135.67 46.9279 134.917 46.937C134.564 46.9452 134.195 46.9498 133.837 46.9498L132.532 46.9522L10.1623 46.9498Z" fill="black"/>
<path d="M29.806 24.3608C29.8189 23.3592 30.0857 22.3771 30.5815 21.506C31.0773 20.6348 31.7861 19.9029 32.6418 19.3783C32.0982 18.6041 31.381 17.967 30.5473 17.5175C29.7136 17.0681 28.7862 16.8187 27.8389 16.7891C25.8182 16.5776 23.8592 17.9949 22.8294 17.9949C21.7798 17.9949 20.1944 16.8101 18.4871 16.8451C17.3828 16.8807 16.3066 17.2009 15.3633 17.7746C14.42 18.3483 13.6418 19.1558 13.1046 20.1186C10.7772 24.1366 12.5132 30.0419 14.7426 33.2898C15.858 34.8802 17.1616 36.6568 18.8673 36.5938C20.5364 36.5247 21.1598 35.5324 23.1746 35.5324C25.1707 35.5324 25.7555 36.5938 27.4959 36.5537C29.2869 36.5247 30.4154 34.9562 31.4917 33.3507C32.2931 32.2175 32.9097 30.9651 33.3189 29.6397C32.2783 29.2009 31.3903 28.4663 30.7656 27.5275C30.1409 26.5888 29.8072 25.4874 29.806 24.3608Z" fill="white"/>
<path d="M26.5189 14.653C27.4954 13.4839 27.9765 11.9813 27.86 10.4642C26.3681 10.6205 24.9899 11.3316 24.0001 12.4558C23.5162 13.005 23.1456 13.6439 22.9094 14.336C22.6733 15.0281 22.5762 15.7599 22.6238 16.4894C23.3701 16.4971 24.1084 16.3358 24.783 16.0177C25.4577 15.6996 26.0512 15.233 26.5189 14.653Z" fill="white"/>
<path d="M50.9051 32.5674H45.2091L43.8412 36.5952H41.4286L46.8238 21.6936H49.3304L54.7255 36.5952H52.2718L50.9051 32.5674ZM45.799 30.7088H50.314L48.0883 24.1721H48.026L45.799 30.7088Z" fill="white"/>
<path d="M66.3773 31.1635C66.3773 34.5397 64.5652 36.7088 61.8306 36.7088C61.1379 36.745 60.4489 36.5858 59.8427 36.2497C59.2364 35.9135 58.7374 35.4139 58.4026 34.808H58.3509V40.1893H56.1146V25.7307H58.2792V27.5378H58.3204C58.6705 26.9348 59.178 26.4378 59.7889 26.0996C60.3997 25.7613 61.0911 25.5946 61.7895 25.6171C64.5546 25.6171 66.3773 27.7967 66.3773 31.1635ZM64.0787 31.1635C64.0787 28.9639 62.9387 27.5178 61.1995 27.5178C59.4908 27.5178 58.3415 28.9944 58.3415 31.1635C58.3415 33.3526 59.4908 34.8186 61.1995 34.8186C62.9388 34.8186 64.0787 33.3831 64.0787 31.1635Z" fill="white"/>
<path d="M78.3684 31.1635C78.3684 34.5397 76.5563 36.7088 73.8217 36.7088C73.129 36.7449 72.4401 36.5858 71.8338 36.2497C71.2276 35.9135 70.7285 35.4139 70.3938 34.808H70.342V40.1893H68.1057V25.7307H70.2704V27.5377H70.3115C70.6616 26.9348 71.1691 26.4378 71.78 26.0996C72.3908 25.7613 73.0822 25.5946 73.7806 25.6171C76.5458 25.6171 78.3684 27.7967 78.3684 31.1635ZM76.0698 31.1635C76.0698 28.9639 74.9299 27.5178 73.1907 27.5178C71.482 27.5178 70.3327 28.9944 70.3327 31.1635C70.3327 33.3526 71.482 34.8186 73.1907 34.8186C74.9299 34.8186 76.0698 33.383 76.0698 31.1635H76.0698Z" fill="white"/>
<path d="M86.294 32.4433C86.4597 33.921 87.8993 34.8913 89.8665 34.8913C91.7515 34.8913 93.1076 33.9209 93.1076 32.5885C93.1076 31.4319 92.2897 30.7393 90.353 30.2647L88.4164 29.7995C85.6724 29.1385 84.3985 27.8588 84.3985 25.7823C84.3985 23.2112 86.6454 21.4452 89.8359 21.4452C92.9936 21.4452 95.1582 23.2112 95.2311 25.7823H92.9736C92.8385 24.2952 91.6057 23.3975 89.8042 23.3975C88.0027 23.3975 86.7699 24.3057 86.7699 25.6276C86.7699 26.6811 87.5573 27.301 89.4834 27.7756L91.1298 28.1787C94.1958 28.9018 95.4696 30.1299 95.4696 32.3096C95.4696 35.0974 93.2427 36.8435 89.7008 36.8435C86.3868 36.8435 84.1493 35.1385 84.0048 32.4432L86.294 32.4433Z" fill="white"/>
<path d="M100.296 23.1597V25.7308H102.368V27.4968H100.296V33.4862C100.296 34.4167 100.711 34.8503 101.621 34.8503C101.867 34.846 102.113 34.8288 102.357 34.7987V36.5541C101.948 36.6304 101.531 36.665 101.115 36.6572C98.9092 36.6572 98.049 35.8311 98.049 33.724V27.4968H96.4648V25.7308H98.0489V23.1597H100.296Z" fill="white"/>
<path d="M103.568 31.1636C103.568 27.7452 105.587 25.5972 108.735 25.5972C111.894 25.5972 113.903 27.7452 113.903 31.1636C113.903 34.5913 111.904 36.7299 108.735 36.7299C105.567 36.7299 103.568 34.5913 103.568 31.1636ZM111.625 31.1636C111.625 28.8186 110.547 27.4347 108.735 27.4347C106.923 27.4347 105.846 28.8292 105.846 31.1636C105.846 33.5178 106.923 34.8913 108.735 34.8913C110.547 34.8913 111.625 33.5178 111.625 31.1636H111.625Z" fill="white"/>
<path d="M115.747 25.7308H117.88V27.58H117.932C118.076 27.0025 118.415 26.4921 118.893 26.1346C119.37 25.7771 119.956 25.5944 120.552 25.6171C120.81 25.6162 121.067 25.6441 121.319 25.7003V27.7863C120.993 27.6871 120.654 27.6416 120.314 27.6515C119.989 27.6384 119.665 27.6955 119.364 27.8189C119.064 27.9424 118.793 28.1293 118.572 28.3668C118.351 28.6042 118.183 28.8867 118.082 29.1947C117.98 29.5027 117.947 29.8289 117.983 30.1511V36.5952H115.747L115.747 25.7308Z" fill="white"/>
<path d="M131.629 33.4042C131.328 35.3764 129.402 36.7299 126.938 36.7299C123.769 36.7299 121.801 34.6124 121.801 31.2151C121.801 27.8073 123.779 25.5972 126.844 25.5972C129.858 25.5972 131.754 27.662 131.754 30.9561V31.7202H124.059V31.855C124.023 32.2548 124.074 32.6576 124.206 33.0366C124.339 33.4156 124.551 33.7621 124.828 34.0532C125.105 34.3443 125.441 34.5732 125.814 34.7247C126.187 34.8763 126.587 34.9471 126.99 34.9323C127.518 34.9817 128.049 34.8596 128.502 34.5843C128.955 34.309 129.307 33.8951 129.506 33.4042L131.629 33.4042ZM124.069 30.1616H129.516C129.536 29.8021 129.482 29.4423 129.356 29.1049C129.23 28.7674 129.035 28.4596 128.784 28.2007C128.533 27.9417 128.232 27.7373 127.898 27.6003C127.564 27.4632 127.205 27.3965 126.844 27.4042C126.48 27.402 126.119 27.4718 125.782 27.6095C125.445 27.7472 125.139 27.9501 124.881 28.2064C124.623 28.4628 124.418 28.7675 124.279 29.1031C124.14 29.4387 124.069 29.7985 124.069 30.1616V30.1616Z" fill="white"/>
<path d="M45.5186 10.4771C45.9875 10.4436 46.4579 10.5142 46.8961 10.6839C47.3343 10.8536 47.7292 11.1182 48.0524 11.4586C48.3756 11.7989 48.619 12.2065 48.7651 12.6521C48.9112 13.0976 48.9563 13.5699 48.8972 14.0349C48.8972 16.3224 47.6574 17.6373 45.5186 17.6373H42.925V10.4771H45.5186ZM44.0403 16.6247H45.3941C45.7291 16.6447 46.0643 16.5899 46.3755 16.4644C46.6866 16.3388 46.9657 16.1457 47.1925 15.899C47.4194 15.6523 47.5882 15.3583 47.6867 15.0384C47.7852 14.7184 47.8109 14.3806 47.762 14.0495C47.8074 13.7197 47.779 13.384 47.679 13.0664C47.579 12.7488 47.4098 12.4572 47.1835 12.2125C46.9571 11.9678 46.6794 11.776 46.37 11.6509C46.0606 11.5258 45.7274 11.4705 45.3941 11.489H44.0403V16.6247Z" fill="white"/>
<path d="M50.157 14.9332C50.123 14.5781 50.1637 14.2198 50.2766 13.8813C50.3896 13.5428 50.5722 13.2316 50.8128 12.9676C51.0534 12.7037 51.3467 12.4927 51.6738 12.3484C52.0009 12.2041 52.3547 12.1295 52.7124 12.1295C53.0702 12.1295 53.4239 12.2041 53.7511 12.3484C54.0782 12.4927 54.3715 12.7037 54.6121 12.9676C54.8527 13.2316 55.0353 13.5428 55.1482 13.8813C55.2612 14.2198 55.3019 14.5781 55.2678 14.9332C55.3025 15.2886 55.2623 15.6474 55.1497 15.9864C55.037 16.3255 54.8545 16.6372 54.6139 16.9017C54.3732 17.1662 54.0797 17.3776 53.7522 17.5222C53.4248 17.6669 53.0706 17.7416 52.7124 17.7416C52.3543 17.7416 52.0001 17.6669 51.6726 17.5222C51.3452 17.3776 51.0517 17.1662 50.811 16.9017C50.5703 16.6372 50.3878 16.3255 50.2752 15.9864C50.1626 15.6474 50.1223 15.2886 50.157 14.9332ZM54.1679 14.9332C54.1679 13.7619 53.6402 13.0769 52.7142 13.0769C51.7846 13.0769 51.2617 13.7619 51.2617 14.9332C51.2617 16.1138 51.7847 16.7935 52.7142 16.7935C53.6402 16.7935 54.1679 16.1091 54.1679 14.9332H54.1679Z" fill="white"/>
<path d="M62.0614 17.6372H60.952L59.8321 13.6575H59.7475L58.6323 17.6372H57.5335L56.0399 12.2337H57.1245L58.0952 16.3569H58.1751L59.2892 12.2337H60.3151L61.4291 16.3569H61.5138L62.4797 12.2337H63.5491L62.0614 17.6372Z" fill="white"/>
<path d="M64.8054 12.2337H65.8348V13.0921H65.9147C66.0503 12.7838 66.2789 12.5254 66.5688 12.3528C66.8586 12.1802 67.1953 12.1021 67.5317 12.1294C67.7954 12.1096 68.0601 12.1493 68.3063 12.2454C68.5525 12.3415 68.7739 12.4916 68.954 12.6846C69.1342 12.8777 69.2684 13.1086 69.3469 13.3604C69.4253 13.6122 69.446 13.8783 69.4073 14.1392V17.6371H68.3379V14.4069C68.3379 13.5386 67.9595 13.1068 67.1686 13.1068C66.9896 13.0984 66.8109 13.1288 66.6448 13.1958C66.4786 13.2628 66.329 13.3648 66.2061 13.4949C66.0832 13.625 65.99 13.78 65.9328 13.9493C65.8756 14.1187 65.8558 14.2984 65.8748 14.4761V17.6372H64.8054L64.8054 12.2337Z" fill="white"/>
<path d="M71.1112 10.1243H72.1806V17.6372H71.1112V10.1243Z" fill="white"/>
<path d="M73.6672 14.9331C73.6332 14.578 73.6739 14.2197 73.7869 13.8812C73.8998 13.5427 74.0825 13.2315 74.3231 12.9675C74.5637 12.7035 74.857 12.4926 75.1842 12.3483C75.5114 12.204 75.8652 12.1294 76.2229 12.1294C76.5806 12.1294 76.9344 12.204 77.2616 12.3483C77.5888 12.4926 77.882 12.7035 78.1227 12.9675C78.3633 13.2315 78.5459 13.5427 78.6589 13.8812C78.7718 14.2197 78.8126 14.578 78.7786 14.9331C78.8132 15.2886 78.773 15.6474 78.6603 15.9864C78.5476 16.3255 78.3651 16.6372 78.1244 16.9017C77.8837 17.1662 77.5902 17.3776 77.2627 17.5222C76.9352 17.6668 76.5811 17.7415 76.2229 17.7415C75.8647 17.7415 75.5105 17.6668 75.1831 17.5222C74.8556 17.3776 74.5621 17.1662 74.3214 16.9017C74.0807 16.6372 73.8982 16.3255 73.7855 15.9864C73.6728 15.6474 73.6325 15.2886 73.6672 14.9331ZM77.678 14.9331C77.678 13.7619 77.1504 13.0769 76.2244 13.0769C75.2948 13.0769 74.7719 13.7619 74.7719 14.9332C74.7719 16.1138 75.2948 16.7935 76.2244 16.7935C77.1504 16.7935 77.678 16.1091 77.678 14.9331H77.678Z" fill="white"/>
<path d="M79.9045 16.1091C79.9045 15.1364 80.6308 14.5757 81.9199 14.496L83.3877 14.4116V13.9452C83.3877 13.3745 83.0093 13.0522 82.2784 13.0522C81.6814 13.0522 81.2677 13.2708 81.149 13.6528H80.1137C80.223 12.7247 81.0985 12.1294 82.3277 12.1294C83.6862 12.1294 84.4524 12.8038 84.4524 13.9452V17.6372H83.423V16.8778H83.3384C83.1666 17.1502 82.9255 17.3723 82.6395 17.5213C82.3536 17.6704 82.0331 17.7411 81.7108 17.7262C81.4833 17.7498 81.2534 17.7256 81.0359 17.6552C80.8183 17.5847 80.618 17.4696 80.4479 17.3173C80.2777 17.1649 80.1414 16.9787 80.0478 16.7706C79.9542 16.5625 79.9054 16.3371 79.9045 16.1091ZM83.3877 15.6473V15.1956L82.0645 15.28C81.3183 15.3298 80.9798 15.5829 80.9798 16.0592C80.9798 16.5456 81.4029 16.8286 81.9846 16.8286C82.1551 16.8458 82.3272 16.8286 82.4909 16.7781C82.6546 16.7276 82.8064 16.6448 82.9373 16.5346C83.0682 16.4244 83.1755 16.289 83.2529 16.1366C83.3303 15.9842 83.3761 15.8178 83.3877 15.6473Z" fill="white"/>
<path d="M85.8577 14.9331C85.8577 13.2257 86.7379 12.1441 88.107 12.1441C88.4456 12.1285 88.7817 12.2094 89.076 12.3773C89.3702 12.5451 89.6105 12.7931 89.7687 13.0921H89.8486V10.1243H90.918V17.6372H89.8932V16.7835H89.8086C89.6382 17.0805 89.3896 17.3253 89.0896 17.4915C88.7897 17.6577 88.4499 17.7388 88.107 17.7262C86.7285 17.7263 85.8577 16.6446 85.8577 14.9331ZM86.9624 14.9331C86.9624 16.0792 87.5042 16.7689 88.4102 16.7689C89.3115 16.7689 89.8686 16.0693 89.8686 14.9378C89.8686 13.8116 89.3057 13.1021 88.4102 13.1021C87.51 13.1021 86.9624 13.7964 86.9624 14.9331H86.9624Z" fill="white"/>
<path d="M95.3424 14.9332C95.3083 14.5781 95.3491 14.2198 95.462 13.8813C95.5749 13.5428 95.7575 13.2316 95.9982 12.9676C96.2388 12.7037 96.532 12.4927 96.8592 12.3484C97.1863 12.2041 97.5401 12.1295 97.8978 12.1295C98.2555 12.1295 98.6093 12.2041 98.9364 12.3484C99.2636 12.4927 99.5568 12.7037 99.7974 12.9676C100.038 13.2316 100.221 13.5428 100.334 13.8813C100.447 14.2198 100.487 14.5781 100.453 14.9332C100.488 15.2886 100.448 15.6474 100.335 15.9864C100.222 16.3255 100.04 16.6372 99.7992 16.9017C99.5586 17.1662 99.2651 17.3776 98.9376 17.5222C98.6101 17.6669 98.2559 17.7416 97.8978 17.7416C97.5396 17.7416 97.1855 17.6669 96.858 17.5222C96.5305 17.3776 96.237 17.1662 95.9964 16.9017C95.7557 16.6372 95.5732 16.3255 95.4606 15.9864C95.3479 15.6474 95.3077 15.2886 95.3424 14.9332ZM99.3532 14.9332C99.3532 13.7619 98.8256 13.0769 97.8996 13.0769C96.97 13.0769 96.4471 13.7619 96.4471 14.9332C96.4471 16.1138 96.97 16.7935 97.8996 16.7935C98.8256 16.7935 99.3532 16.1091 99.3532 14.9332Z" fill="white"/>
<path d="M101.888 12.2337H102.918V13.0921H102.997C103.133 12.7838 103.362 12.5254 103.651 12.3528C103.941 12.1802 104.278 12.1021 104.614 12.1294C104.878 12.1096 105.143 12.1493 105.389 12.2454C105.635 12.3415 105.857 12.4916 106.037 12.6846C106.217 12.8777 106.351 13.1086 106.43 13.3604C106.508 13.6122 106.529 13.8783 106.49 14.1392V17.6371H105.421V14.4069C105.421 13.5386 105.042 13.1068 104.251 13.1068C104.072 13.0984 103.894 13.1288 103.727 13.1958C103.561 13.2628 103.412 13.3648 103.289 13.4949C103.166 13.625 103.073 13.78 103.015 13.9493C102.958 14.1187 102.938 14.2984 102.957 14.4761V17.6372H101.888V12.2337Z" fill="white"/>
<path d="M112.533 10.8884V12.2583H113.707V13.1566H112.533V15.9351C112.533 16.5011 112.767 16.749 113.299 16.749C113.435 16.7485 113.571 16.7403 113.707 16.7243V17.6126C113.515 17.6469 113.32 17.6651 113.125 17.6671C111.936 17.6671 111.462 17.2499 111.462 16.2081V13.1565H110.602V12.2583H111.462V10.8884H112.533Z" fill="white"/>
<path d="M115.167 10.1243H116.227V13.1021H116.312C116.454 12.7909 116.689 12.531 116.985 12.3578C117.28 12.1845 117.623 12.1064 117.964 12.1341C118.227 12.1199 118.489 12.1635 118.732 12.262C118.976 12.3604 119.194 12.5112 119.372 12.7036C119.551 12.896 119.684 13.1253 119.763 13.3751C119.843 13.6248 119.865 13.8889 119.83 14.1485V17.6372H118.76V14.4116C118.76 13.5485 118.357 13.1114 117.601 13.1114C117.417 13.0964 117.233 13.1216 117.06 13.1852C116.887 13.2489 116.73 13.3495 116.6 13.48C116.47 13.6105 116.37 13.7677 116.307 13.9407C116.245 14.1136 116.221 14.2982 116.237 14.4813V17.6372H115.168L115.167 10.1243Z" fill="white"/>
<path d="M126.066 16.1782C125.921 16.6721 125.606 17.0993 125.177 17.385C124.747 17.6708 124.231 17.797 123.718 17.7415C123.361 17.7509 123.006 17.6827 122.678 17.5417C122.35 17.4007 122.057 17.1901 121.819 16.9248C121.581 16.6594 121.403 16.3456 121.299 16.005C121.195 15.6644 121.166 15.3052 121.215 14.9525C121.167 14.5986 121.197 14.2387 121.301 13.8971C121.405 13.5555 121.581 13.2402 121.818 12.9725C122.055 12.7048 122.347 12.491 122.674 12.3455C123.001 12.2001 123.355 12.1264 123.713 12.1294C125.221 12.1294 126.131 13.1566 126.131 14.8534V15.2255H122.304V15.2853C122.287 15.4836 122.312 15.6832 122.378 15.8713C122.443 16.0594 122.547 16.2318 122.682 16.3776C122.818 16.5233 122.983 16.6391 123.167 16.7176C123.35 16.7961 123.548 16.8355 123.747 16.8333C124.003 16.8639 124.262 16.818 124.492 16.7013C124.721 16.5847 124.911 16.4026 125.036 16.1782L126.066 16.1782ZM122.304 14.4368H125.041C125.055 14.2555 125.03 14.0733 124.969 13.9021C124.907 13.7308 124.811 13.5742 124.685 13.4424C124.559 13.3106 124.408 13.2064 124.239 13.1366C124.071 13.0668 123.89 13.0329 123.707 13.037C123.522 13.0347 123.339 13.0694 123.167 13.1389C122.996 13.2084 122.841 13.3115 122.71 13.4419C122.579 13.5724 122.476 13.7276 122.406 13.8985C122.336 14.0693 122.302 14.2524 122.304 14.4368H122.304Z" fill="white"/>
</svg>
