<svg width="162" height="48" viewBox="0 0 162 48" fill="none" xmlns="http://www.w3.org/2000/svg">
<path fill-rule="evenodd" clip-rule="evenodd" d="M155.997 48H6.00184C2.69377 48 -0.000366211 45.2948 -0.000366211 42V6C-0.000366211 2.69327 2.69377 0 6.00184 0H155.997C159.303 0 162 2.69327 162 6V42C162 45.2948 159.303 48 155.997 48Z" fill="black"/>
<path fill-rule="evenodd" clip-rule="evenodd" d="M155.997 0.960598C158.772 0.960598 161.043 3.22594 161.043 6V42C161.043 44.7741 158.787 47.0394 155.997 47.0394H6.00184C3.22724 47.0394 0.956291 44.7741 0.956291 42V6C0.956291 3.22594 3.21233 0.960598 6.00184 0.960598H155.997ZM155.997 0H6.00184C2.69377 0 -0.000366211 2.70524 -0.000366211 6V42C-0.000366211 45.3067 2.69377 48 6.00184 48H155.997C159.303 48 162 45.3067 162 42V6C162 2.70524 159.303 0 155.997 0Z" fill="#A6A6A6"/>
<path d="M85.3418 15.8784C84.26 15.8784 83.348 15.4983 82.6268 14.7502C81.9116 14.023 81.5122 13.0205 81.5301 11.9971C81.5301 10.9048 81.8996 9.98012 82.6268 9.24695C83.3451 8.49882 84.257 8.11877 85.3388 8.11877C86.4088 8.11877 87.3207 8.49882 88.0538 9.24695C88.781 10.0041 89.1506 10.9287 89.1506 11.9971C89.1386 13.0923 88.7691 14.017 88.0538 14.7472C87.3356 15.5013 86.4237 15.8784 85.3418 15.8784ZM53.1522 15.8784C52.0942 15.8784 51.1763 15.5043 50.4253 14.7652C49.6802 14.029 49.3018 13.0983 49.3018 12.0001C49.3018 10.9018 49.6802 9.97114 50.4253 9.23498C51.1614 8.49583 52.0793 8.12177 53.1522 8.12177C53.6768 8.12177 54.1864 8.22651 54.6751 8.43897C55.155 8.64546 55.5454 8.92675 55.8344 9.27089L55.906 9.35768L55.0983 10.1537L55.0149 10.0549C54.5589 9.5103 53.948 9.24396 53.1403 9.24396C52.4191 9.24396 51.7903 9.50132 51.2717 10.01C50.7502 10.5218 50.4849 11.1921 50.4849 12.0031C50.4849 12.814 50.7502 13.4844 51.2717 13.9961C51.7903 14.5048 52.4191 14.7622 53.1403 14.7622C53.9092 14.7622 54.5559 14.5048 55.0596 13.9961C55.3576 13.6968 55.5424 13.2779 55.6079 12.7482H53.0181V11.629H56.7196L56.7345 11.7307C56.7613 11.9193 56.7881 12.1138 56.7881 12.2933C56.7881 13.3258 56.4782 14.1607 55.8642 14.7771C55.1669 15.5073 54.2549 15.8784 53.1522 15.8784ZM95.9515 15.7198H94.8101L91.3142 10.1028L91.344 11.1143V15.7168H90.2026V8.28037H91.505L91.5407 8.33723L94.8279 13.628L94.7981 12.6195V8.28037H95.9515V15.7198ZM76.7647 15.7198H75.6084V9.39957H73.6026V8.28037H78.7674V9.39957H76.7617V15.7198H76.7647ZM72.6609 15.7198H71.5075V8.28037H72.6609V15.7198ZM66.1789 15.7198H65.0255V9.39957H63.0198V8.28037H68.1846V9.39957H66.1789V15.7198ZM62.2897 15.7078H57.867V8.28037H62.2897V9.39957H59.0233V11.4405H61.9708V12.5477H59.0233V14.5886H62.2897V15.7078ZM83.4732 13.9811C83.9888 14.4988 84.6146 14.7592 85.3418 14.7592C86.0899 14.7592 86.7008 14.5048 87.2104 13.9811C87.7171 13.4724 87.9734 12.8051 87.9734 12.0001C87.9734 11.1951 87.7171 10.5248 87.2134 10.019C86.6978 9.50132 86.069 9.24097 85.3448 9.24097C84.5968 9.24097 83.9858 9.49533 83.4792 10.019C82.9725 10.5278 82.7162 11.1951 82.7162 12.0001C82.7162 12.8051 82.9695 13.4754 83.4732 13.9811Z" fill="white"/>
<path fill-rule="evenodd" clip-rule="evenodd" d="M81.4229 26.1067C78.6065 26.1067 76.3237 28.2524 76.3237 31.212C76.3237 34.1446 78.6214 36.3172 81.4229 36.3172C84.2392 36.3172 86.5221 34.1566 86.5221 31.212C86.5221 28.2524 84.2392 26.1067 81.4229 26.1067ZM81.4229 34.2943C79.8821 34.2943 78.5559 33.0135 78.5559 31.2C78.5559 29.3596 79.8851 28.1057 81.4229 28.1057C82.9637 28.1057 84.2899 29.3596 84.2899 31.2C84.2928 33.0254 82.9637 34.2943 81.4229 34.2943ZM70.2976 26.1067C67.4813 26.1067 65.1984 28.2524 65.1984 31.212C65.1984 34.1446 67.4962 36.3172 70.2976 36.3172C73.114 36.3172 75.3968 34.1566 75.3968 31.212C75.3968 28.2524 73.111 26.1067 70.2976 26.1067ZM70.2976 34.2943C68.7568 34.2943 67.4306 33.0135 67.4306 31.2C67.4306 29.3596 68.7598 28.1057 70.2976 28.1057C71.8384 28.1057 73.1646 29.3596 73.1646 31.2C73.1646 33.0254 71.8384 34.2943 70.2976 34.2943ZM57.0594 27.6658V29.8264H62.2241C62.0662 31.0384 61.6668 31.9332 61.0559 32.5466C60.2989 33.3067 59.1307 34.1327 57.0713 34.1327C53.8974 34.1327 51.4148 31.5591 51.4148 28.3721C51.4148 25.185 53.8974 22.6115 57.0713 22.6115C58.7849 22.6115 60.0337 23.2908 60.9605 24.1586L62.4864 22.6264C61.1989 21.3875 59.4853 20.4389 57.0832 20.4389C52.7291 20.4389 49.0753 24 49.0753 28.3601C49.0753 32.7322 52.7261 36.2813 57.0832 36.2813C59.4346 36.2813 61.1989 35.5092 62.5937 34.0549C64.0153 32.6274 64.4653 30.6135 64.4653 28.9885C64.4653 28.4828 64.4265 28.0279 64.3461 27.6419H57.0564C57.0594 27.6389 57.0594 27.6658 57.0594 27.6658ZM111.207 29.3476C110.781 28.2015 109.494 26.0948 106.853 26.0948C104.237 26.0948 102.061 28.1626 102.061 31.2C102.061 34.0668 104.213 36.3052 107.107 36.3052C109.431 36.3052 110.784 34.8778 111.342 34.0399L109.616 32.8788C109.044 33.7317 108.248 34.2913 107.119 34.2913C105.977 34.2913 105.178 33.7706 104.648 32.7441L111.446 29.9162C111.446 29.9192 111.207 29.3476 111.207 29.3476ZM104.275 31.0534C104.222 29.0813 105.801 28.0788 106.931 28.0788C107.822 28.0788 108.564 28.5187 108.817 29.1591L104.275 31.0534ZM98.753 36H100.985V21.0015H98.753V36ZM95.0873 27.2409H95.0068C94.5032 26.6394 93.5465 26.0948 92.3246 26.0948C89.7884 26.0948 87.4519 28.3362 87.4519 31.215C87.4519 34.0818 89.7765 36.2963 92.3246 36.2963C93.5316 36.2963 94.5032 35.7486 95.0068 35.1352H95.0873V35.8683C95.0873 37.8165 94.0502 38.8668 92.3782 38.8668C91.0103 38.8668 90.1609 37.8793 89.8152 37.0534L87.8751 37.8673C88.4324 39.214 89.9195 40.8808 92.3753 40.8808C94.9919 40.8808 97.2092 39.3337 97.2092 35.5601V26.4H95.0992V27.2409C95.1022 27.2409 95.0873 27.2409 95.0873 27.2409ZM92.5243 34.2943C90.9835 34.2943 89.696 33.0015 89.696 31.215C89.696 29.4135 90.9835 28.1087 92.5243 28.1087C94.0502 28.1087 95.2333 29.4284 95.2333 31.215C95.2482 33.0015 94.0531 34.2943 92.5243 34.2943ZM121.659 21.0015H116.322V36H118.554V30.3202H121.662C124.133 30.3202 126.562 28.5217 126.562 25.6668C126.562 22.812 124.142 21.0015 121.659 21.0015ZM121.725 28.2254H118.551V23.0783H121.725C123.397 23.0783 124.341 24.4638 124.341 25.6519C124.341 26.8279 123.385 28.2254 121.725 28.2254ZM135.508 26.0798C133.887 26.0798 132.215 26.801 131.524 28.3721L133.503 29.198C133.929 28.3721 134.71 28.0908 135.535 28.0908C136.691 28.0908 137.86 28.785 137.887 30.0239V30.1825C137.487 29.9551 136.611 29.608 135.562 29.608C133.425 29.608 131.258 30.781 131.258 32.9805C131.258 34.9945 133.011 36.2873 134.963 36.2873C136.462 36.2873 137.288 35.608 137.803 34.8209H137.884V35.982H140.035V30.2364C140.035 27.5611 138.056 26.0798 135.508 26.0798ZM135.228 34.2943C134.498 34.2943 133.476 33.9352 133.476 33.0135C133.476 31.8524 134.751 31.4125 135.839 31.4125C136.823 31.4125 137.288 31.6249 137.872 31.9182C137.711 33.2648 136.578 34.2823 135.228 34.2943ZM147.885 26.4L145.322 32.9057H145.242L142.586 26.4H140.184L144.169 35.4943L141.898 40.5486H144.223L150.353 26.4H147.885ZM127.792 36H130.025V21.0015H127.792V36Z" fill="white"/>
<path fill-rule="evenodd" clip-rule="evenodd" d="M12.469 9.04039C12.1233 9.41446 11.9236 9.98603 11.9236 10.7342V37.2688C11.9236 38.017 12.1233 38.5885 12.4809 38.9476L12.5733 39.0284L27.3791 24.1616V23.8294L12.5614 8.95959L12.469 9.04039Z" fill="url(#paint0_linear_10340_60757)"/>
<path fill-rule="evenodd" clip-rule="evenodd" d="M32.3054 29.1322L27.3672 24.1736V23.8265L32.3054 18.8679L32.4127 18.9337L38.254 22.2674C39.9259 23.213 39.9259 24.7751 38.254 25.7327L32.4127 29.0664L32.3054 29.1322Z" fill="url(#paint1_linear_10340_60757)"/>
<path fill-rule="evenodd" clip-rule="evenodd" d="M32.4128 29.0663L27.3672 24L12.469 38.9596C13.0144 39.5461 13.9293 39.612 14.9515 39.0404L32.4128 29.0663Z" fill="url(#paint2_linear_10340_60757)"/>
<path fill-rule="evenodd" clip-rule="evenodd" d="M32.4128 18.9337L14.9515 8.97458C13.9293 8.38805 13.0114 8.46884 12.469 9.05538L27.3672 24L32.4128 18.9337Z" fill="url(#paint3_linear_10340_60757)"/>
<path opacity="0.2" fill-rule="evenodd" clip-rule="evenodd" d="M32.3054 28.9586L14.9634 38.8519C13.9948 39.4115 13.1305 39.3726 12.5732 38.8639L12.4808 38.9566L12.5732 39.0374C13.1305 39.5432 13.9948 39.5851 14.9634 39.0254L32.4246 29.0663L32.3054 28.9586Z" fill="black"/>
<path opacity="0.12" fill-rule="evenodd" clip-rule="evenodd" d="M38.254 25.5591L32.2905 28.9586L32.3978 29.0663L38.2391 25.7327C39.0765 25.2539 39.4878 24.6254 39.4878 24C39.4371 24.5746 39.011 25.1192 38.254 25.5591Z" fill="black"/>
<path opacity="0.25" fill-rule="evenodd" clip-rule="evenodd" d="M14.9515 9.14812L38.254 22.4409C39.011 22.8688 39.4372 23.4284 39.5027 24C39.5027 23.3746 39.0915 22.7461 38.254 22.2673L14.9515 8.97456C13.2796 8.01396 11.9236 8.81595 11.9236 10.7342V10.9077C11.9236 8.98653 13.2796 8.1995 14.9515 9.14812Z" fill="white"/>
<defs>
<linearGradient id="paint0_linear_10340_60757" x1="26.0511" y1="10.4479" x2="2.32178" y2="16.7446" gradientUnits="userSpaceOnUse">
<stop stop-color="#00A0FF"/>
<stop offset="0.00657" stop-color="#00A1FF"/>
<stop offset="0.2601" stop-color="#00BEFF"/>
<stop offset="0.5122" stop-color="#00D2FF"/>
<stop offset="0.7604" stop-color="#00DFFF"/>
<stop offset="1" stop-color="#00E3FF"/>
</linearGradient>
<linearGradient id="paint1_linear_10340_60757" x1="40.4343" y1="24.0001" x2="11.5172" y2="24.0001" gradientUnits="userSpaceOnUse">
<stop stop-color="#FFE000"/>
<stop offset="0.4087" stop-color="#FFBD00"/>
<stop offset="0.7754" stop-color="#FFA500"/>
<stop offset="1" stop-color="#FF9C00"/>
</linearGradient>
<linearGradient id="paint2_linear_10340_60757" x1="29.6692" y1="26.7568" x2="10.5139" y2="58.8646" gradientUnits="userSpaceOnUse">
<stop stop-color="#FF3A44"/>
<stop offset="1" stop-color="#C31162"/>
</linearGradient>
<linearGradient id="paint3_linear_10340_60757" x1="8.71746" y1="0.214566" x2="17.2634" y2="14.5544" gradientUnits="userSpaceOnUse">
<stop stop-color="#32A071"/>
<stop offset="0.0685" stop-color="#2DA771"/>
<stop offset="0.4762" stop-color="#15CF74"/>
<stop offset="0.8009" stop-color="#06E775"/>
<stop offset="1" stop-color="#00F076"/>
</linearGradient>
</defs>
</svg>
